<svg width="59" height="58" viewBox="0 0 59 58" fill="none" xmlns="http://www.w3.org/2000/svg">
<path d="M23.8299 43.6152V49.3875C23.8299 49.3875 15.2859 49.7538 15.2859 56.2766H43.3419C43.3419 49.7538 34.7979 49.3875 34.7979 49.3875V43.6152H23.8299Z" fill="#5575FF"/>
<path d="M25.6321 8.94141V14.7222C25.6321 15.5628 26.3132 16.2386 27.1578 16.2386H31.3755C32.2201 16.2386 32.9012 15.5628 32.9012 14.7222V8.94141H25.6321Z" fill="#5575FF"/>
<path d="M1.95605 37.7812V41.3456C1.95605 43.8598 3.98965 45.884 6.5157 45.884H52.1121C54.6381 45.884 56.6717 43.8598 56.6717 41.3456V37.7812H1.95605Z" fill="#5575FF"/>
<path d="M6.51925 0.912109C3.50377 0.912109 1.0459 3.35146 1.0459 6.35285V41.3481C1.0459 44.3495 3.50377 46.7959 6.51925 46.7959H33.886V49.3877C33.8856 49.8742 34.2705 50.2745 34.7587 50.2954C37.9878 50.7885 41.6587 51.7638 42.2804 55.3692H29.3139H16.3474C16.9938 51.9211 20.4309 50.6552 23.869 50.2954C25.0849 50.2434 25.0066 48.4281 23.7907 48.4801C19.2715 49.0756 14.4395 51.1889 14.3739 56.2769C14.374 56.7781 14.7822 57.1845 15.2859 57.1845H29.3139H43.3419C43.8455 57.1845 44.2538 56.7781 44.2538 56.2769C43.8992 51.559 40.192 49.0852 35.7099 48.5829V46.7959H52.1121C55.1276 46.7959 57.5854 44.3495 57.5854 41.3481C57.5941 29.6909 57.5854 18.0247 57.5854 6.35285C57.5854 3.35146 55.1276 0.912109 52.1121 0.912109H6.51925ZM6.51925 2.72746H52.1121C54.1487 2.72746 55.7616 4.32575 55.7616 6.35285V36.8735H5.66432C4.43109 36.8561 4.43109 38.7062 5.66432 38.6889H55.7616V41.3481C55.7616 43.3752 54.1487 44.9788 52.1121 44.9788H6.51925C4.48265 44.9788 2.86975 43.3752 2.86975 41.3481V6.35285C2.86975 4.32575 4.48264 2.72746 6.51925 2.72746ZM17.4784 8.04766C15.1881 8.04766 13.3177 9.91452 13.3177 12.1943V25.8094C13.3177 28.0892 15.188 29.9578 17.4784 29.9578H41.1458C43.4363 29.9578 45.3136 28.0891 45.3136 25.8094V12.1943C45.3136 9.91452 43.4362 8.04766 41.1458 8.04766H17.4784ZM17.4784 9.86301H32.0461V14.7471C32.0461 15.101 31.7835 15.3569 31.4263 15.3569H27.1979C26.8407 15.3569 26.5852 15.1009 26.5852 14.7471V11.5188C26.5589 10.3351 24.7878 10.3351 24.7614 11.5188V14.7471C24.7614 16.077 25.8633 17.1723 27.1979 17.1723H31.4263C32.7609 17.1723 33.8628 16.077 33.8628 14.7471V9.86301H41.1458C42.4574 9.86301 43.4897 10.8888 43.4897 12.1943V25.8094C43.4897 27.1149 42.4574 28.1424 41.1458 28.1424H17.4784C16.1669 28.1424 15.1416 27.1149 15.1416 25.8094V12.1943C15.1416 10.8888 16.1669 9.86301 17.4784 9.86301Z" fill="#00003A"/>
</svg>
