<svg width="57" height="58" viewBox="0 0 57 58" fill="none" xmlns="http://www.w3.org/2000/svg">
<path d="M52.3641 26.1873C55.1846 45.5891 31.9352 61.6447 14.7387 48.9603C13.41 48.1832 11.7675 49.3274 12.0128 50.8417C16.7108 54.3203 22.4127 56.1742 28.268 56.1855C43.3536 56.1855 55.5829 44.0133 55.5829 28.998C55.5828 27.4551 55.4507 25.9149 55.1881 24.3942C53.78 23.5723 52.1602 24.6696 52.3641 26.1873Z" fill="#5575FF"/>
<path d="M20.9973 1.86693C19.997 2.13383 20.3332 3.92033 21.4693 3.62201C30.8096 0.730133 41.7231 4.22013 48.4834 12.018C34.3874 15.8418 18.5493 16.2028 8.08607 12.0818C10.5538 9.1654 13.695 6.73851 17.412 5.06507C18.5235 4.56582 17.77 2.90637 16.6585 3.40573C14.318 4.37696 8.51078 4.6389 5.17751 6.37163C1.24115 8.13287 2.65406 11.5689 5.23273 12.7945C-0.135399 20.3672 -1.62408 30.4044 2.10332 39.5852C7.78165 53.5712 23.5594 60.6197 37.8306 55.5422C52.1018 50.4648 59.8154 35.0602 55.2997 20.6605C54.3968 17.7811 53.0649 15.1495 51.4009 12.8069C55.6363 10.9773 54.1992 7.52861 51.3777 6.31136C48.9521 5.04513 45.0581 4.06084 39.9448 3.427C34.3581 0.705431 27.1958 0.244846 20.9973 1.86693ZM44.5454 6.02239C47.1651 6.57171 49.2114 7.23102 50.5299 7.91929C53.1219 9.22248 52.1922 10.308 50.2521 11.3C48.5934 9.2715 46.6678 7.50237 44.5454 6.02239ZM12.1559 6.18194C9.33584 8.00988 7.96129 9.34653 6.34414 11.339C4.52693 10.4938 4.04665 9.07698 6.03957 7.97248C7.33745 7.27607 9.51541 6.74288 12.1559 6.18194ZM6.93191 13.5515C19.5966 18.1866 35.6682 17.6515 49.7035 13.5657C51.3546 15.8282 52.6737 18.3877 53.556 21.2012C57.7858 34.6894 50.5857 49.0772 37.2179 53.8332C23.8501 58.5892 9.11429 52.0069 3.79537 38.9062C0.254887 30.1858 1.73481 20.6637 6.93191 13.5515Z" fill="#00003A"/>
<path d="M14.5707 29.422C14.3304 29.4264 14.1015 29.5252 13.934 29.6969C13.7665 29.8686 13.6741 30.0993 13.6768 30.3385C13.6768 34.4044 16.5874 38.0609 21.0701 39.9853C25.5528 41.9097 30.9842 41.9097 35.4668 39.9853C39.9495 38.0609 42.8601 34.4044 42.8601 30.3385C42.8601 30.0981 42.7642 29.8676 42.5934 29.6976C42.4226 29.5276 42.1909 29.4321 41.9494 29.4321C41.7079 29.4321 41.4762 29.5276 41.3054 29.6976C41.1346 29.8676 41.0387 30.0981 41.0387 30.3385C41.0387 33.5415 38.7309 36.6095 34.7477 38.3195C30.7645 40.0295 25.7725 40.0295 21.7893 38.3195C17.806 36.6095 15.4983 33.5415 15.4983 30.3385C15.4996 30.2172 15.4766 30.097 15.4303 29.9847C15.3841 29.8725 15.3158 29.7705 15.2293 29.685C15.1428 29.5996 15.0399 29.5322 14.9268 29.487C14.8137 29.4419 14.6926 29.4198 14.5707 29.422Z" fill="#00003A"/>
<path d="M15.6699 23.2107C15.6699 17.481 24.2528 17.4851 24.2528 23.2107C24.2528 24.4193 22.4314 24.4193 22.4314 23.2107C22.2459 19.9022 17.5507 20.2886 17.4913 23.2107C17.4913 24.4193 15.6699 24.4193 15.6699 23.2107Z" fill="#00003A"/>
<path d="M32.2866 23.2107C32.2866 17.481 40.8695 17.4851 40.8695 23.2107C40.8695 24.4193 39.0481 24.4193 39.0481 23.2107C38.8626 19.9022 34.1674 20.2886 34.108 23.2107C34.108 24.4193 32.2866 24.4193 32.2866 23.2107Z" fill="#00003A"/>
</svg>
