<svg width="59" height="58" viewBox="0 0 59 58" fill="none" xmlns="http://www.w3.org/2000/svg">
<path d="M27.1887 6.77753L3.85971 20.3821C2.04567 21.4399 1.41921 23.7286 2.47044 25.5409C3.52169 27.3532 5.83943 27.9815 7.65347 26.9237L29.3135 14.2942L50.9736 26.9237C52.7877 27.9815 55.1072 27.3532 56.1584 25.5409C57.2097 23.7286 56.5832 21.4399 54.7692 20.3821L31.4402 6.77753C29.9917 5.8845 28.634 5.90974 27.1887 6.77753Z" fill="#5575FF"/>
<path d="M20.1846 40.0367C21.5283 42.3532 24.5044 43.147 26.8318 41.8096C29.1592 40.4721 29.9567 37.5099 28.6129 35.1933C27.2692 32.8767 21.7306 30.1552 20.4864 30.8702C19.0609 31.6894 18.8408 37.7201 20.1846 40.0367H20.1846Z" fill="#5575FF"/>
<path d="M38.3492 40.0367C37.0054 42.3532 34.0294 43.147 31.7019 41.8096C29.3745 40.4721 28.5771 37.5099 29.9208 35.1933C31.2646 32.8767 36.8031 30.1552 38.0473 30.8702C39.4728 31.6894 39.6929 37.7201 38.3492 40.0367H38.3492Z" fill="#5575FF"/>
<path d="M26.7188 5.99893C26.5514 6.11241 26.1193 6.35653 25.8318 6.51658C24.737 7.11642 25.6941 8.74047 26.7544 8.08197L27.6503 7.56077C28.9695 6.82506 30.0125 7.04449 30.9792 7.56077L54.3082 21.1653C55.7062 21.9805 56.1763 23.6962 55.3697 25.0867C54.5633 26.477 52.8208 26.9478 51.4352 26.1398L29.7752 13.5103C29.4903 13.3439 29.1374 13.3439 28.8525 13.5103L7.19246 26.1398C5.80664 26.9479 4.06644 26.4773 3.25977 25.0867C2.4532 23.6962 2.92328 21.9805 4.32131 21.1653L23.8494 9.77678C24.9442 9.17694 23.987 7.55289 22.9268 8.21139L3.3987 19.5981C1.16865 20.8986 0.385808 23.7603 1.68171 25.9944C2.97753 28.2283 5.87282 29.0145 8.11508 27.7069L9.42241 26.9446V46.7309C9.42241 50.1095 12.1835 52.8578 15.5779 52.8578H43.0498C46.4441 52.8578 49.2053 50.1095 49.2053 46.7309V29.5968C49.2227 28.3693 47.364 28.3693 47.3814 29.5968V46.7309C47.3814 49.1352 45.4653 51.0424 43.0498 51.0424H30.0477V41.682C32.9151 44.2833 37.0887 43.7495 39.2026 40.5474C40.0576 39.0733 40.2816 36.9276 40.2125 34.9134C39.8562 29.2044 37.8404 29.1121 33.6562 31.1338C31.9351 32.021 29.5362 33.9502 29.3138 34.5908C28.3762 33.3281 26.7735 32.1214 24.9715 31.1338C20.5859 28.7628 18.5777 29.8463 18.4152 34.9134C18.346 36.9276 18.5755 39.0733 19.4305 40.5474C20.7426 42.8094 23.3741 43.8645 25.8122 43.2687C26.1169 43.1942 26.4209 43.0914 26.7152 42.9655C27.8677 42.5022 27.1268 40.7847 25.9956 41.2973C25.7937 41.3837 25.5902 41.4468 25.3829 41.4976C23.7193 41.9042 21.9128 41.2036 21.0068 39.6415C20.5159 38.7954 20.1776 36.7629 20.2391 34.9719C20.2391 31.0944 20.8528 31.068 24.1362 32.747C27.42 34.3702 28.2279 35.9258 28.2238 39.1203V51.0424H15.5779C13.1624 51.0424 11.2463 49.1352 11.2463 46.7309V25.881L29.3138 15.3452L50.5126 27.7069C52.7551 29.0146 55.6517 28.2287 56.9478 25.9944C58.2437 23.7603 57.4608 20.8986 55.2308 19.5981L31.9214 6.00602C29.818 4.82474 28.2649 5.10995 26.7188 5.99893ZM38.3886 34.9737C38.45 36.7647 38.1118 38.7971 37.6209 39.6433C36.5215 41.5386 34.1124 42.1788 32.2081 41.0845C30.3039 39.9902 29.6607 37.5924 30.7601 35.697C31.2391 34.8712 32.8793 33.5809 34.4969 32.747C38.0108 30.9447 38.3914 32.4412 38.3886 34.9737Z" fill="#00003A"/>
</svg>
