<svg width="57" height="58" viewBox="0 0 57 58" fill="none" xmlns="http://www.w3.org/2000/svg">
<path d="M32.1226 18.9316V49.6278H50.785C53.4923 49.6278 55.6724 47.4597 55.6724 44.765V35.112H41.9935C40.6673 35.112 39.5997 34.0494 39.5997 32.7294V29.0473C39.5997 27.7273 40.6673 26.6646 41.9935 26.6646H52.2687L51.1128 23.7962C50.105 21.2952 48.1348 18.9316 45.4275 18.9316H32.1226Z" fill="#5575FF"/>
<path d="M48.9092 49.6739C48.9092 50.5293 48.7399 51.3763 48.411 52.1666C48.0822 52.9568 47.6001 53.6749 46.9924 54.2797C46.3847 54.8846 45.6633 55.3643 44.8693 55.6917C44.0754 56.019 43.2244 56.1876 42.365 56.1876C41.5056 56.1876 40.6546 56.019 39.8606 55.6917C39.0667 55.3643 38.3452 54.8846 37.7375 54.2797C37.1299 53.6749 36.6478 52.9568 36.3189 52.1666C35.9901 51.3763 35.8208 50.5293 35.8208 49.6739C35.8208 47.9463 36.5103 46.2896 37.7376 45.068C38.9648 43.8465 40.6294 43.1602 42.365 43.1602C44.1006 43.1602 45.7651 43.8465 46.9924 45.068C48.2197 46.2896 48.9092 47.9463 48.9092 49.6739Z" fill="#5575FF"/>
<path d="M13.9304 15.462C12.9247 15.493 12.1137 16.2314 12.1137 17.2844V21.6207H0.962158V29.047H12.1119V33.3815C12.1119 35.0663 14.2756 35.9637 15.8166 34.4115L22.6329 27.3309C23.5985 26.3803 24.0882 24.7627 22.64 23.3687L15.8166 16.2562C15.207 15.6804 14.5339 15.4433 13.9304 15.462Z" fill="#5575FF"/>
<path d="M22.4626 49.6739C22.4626 50.5293 22.2934 51.3763 21.9645 52.1666C21.6356 52.9568 21.1536 53.6749 20.5459 54.2797C19.9382 54.8846 19.2168 55.3643 18.4228 55.6917C17.6288 56.019 16.7778 56.1876 15.9185 56.1876C15.0591 56.1876 14.2081 56.019 13.4141 55.6917C12.6201 55.3643 11.8987 54.8846 11.291 54.2797C10.6833 53.6749 10.2013 52.9568 9.87241 52.1666C9.54353 51.3763 9.37426 50.5293 9.37427 49.6739C9.37427 47.9463 10.0637 46.2896 11.291 45.068C12.5183 43.8465 14.1828 43.1602 15.9185 43.1602C17.6541 43.1602 19.3186 43.8465 20.5459 45.068C21.7732 46.2896 22.4626 47.9463 22.4626 49.6739Z" fill="#5575FF"/>
<path d="M4.58277 0.910156C2.08716 0.910156 0.0498453 2.93793 0.0498453 5.42195C0.0409649 18.9709 0.0498453 32.4846 0.0498453 46.0228C0.0498453 48.5068 2.08715 50.5346 4.58277 50.5346H8.52258C8.91845 54.2622 12.0997 57.1879 15.9462 57.1879C20.059 57.1879 23.4127 53.8446 23.4127 49.751C23.4127 45.6574 20.059 42.3194 15.9462 42.3194C12.1857 42.3194 9.06948 45.112 8.56177 48.7192H4.58277C3.06565 48.7192 1.8737 47.5328 1.8737 46.0228V29.9541H11.1996V33.3809C11.1996 34.61 12.0328 35.6205 13.1 35.971C14.1701 36.3811 15.7193 35.8548 16.4752 35.0385L23.2737 27.9756C23.8856 27.3733 24.3639 26.5557 24.4493 25.5965C24.5347 24.6373 24.1615 23.5702 23.2737 22.7157L16.4752 15.628C14.5124 13.719 11.2014 14.7427 11.2014 17.2838V20.7124H4.78047C3.54725 20.695 3.54725 22.5451 4.78047 22.5278H12.1133C12.6169 22.5277 13.0252 22.1214 13.0252 21.6201V17.2838C13.0252 15.9812 14.5739 16.3043 15.1839 16.9115L21.9806 23.9956C22.9359 25.0008 22.8081 25.8928 21.9735 26.7009L15.1679 33.7709C14.2638 34.7118 13.0234 34.3161 13.0234 33.3791V29.0446C13.0224 28.544 12.6144 28.1387 12.1115 28.1387H1.8737V5.42195C1.8737 3.91184 3.06564 2.72551 4.58277 2.72551H28.5013C30.0185 2.72551 31.2104 3.91184 31.2104 5.42195V48.7192H26.7184C25.4857 48.7021 25.4857 50.5514 26.7184 50.5346H35.013C35.4089 54.2621 38.5902 57.1879 42.4367 57.1879C46.2832 57.1879 49.4627 54.2621 49.8586 50.5346H50.7848C53.9812 50.5346 56.584 47.9461 56.584 44.7641V35.1111C56.584 34.9952 56.5616 34.8803 56.5181 34.7725L51.9585 23.4567C50.7254 20.6408 49.5384 18.0919 45.4272 18.0231H33.0342V5.42195C33.0342 2.93793 30.997 0.910156 28.5013 0.910156H4.58277ZM33.0342 19.8384H45.4272C48.4145 19.8384 49.4222 22.08 50.2665 24.1339L50.9201 25.756H41.9932C40.1776 25.756 38.6875 27.2392 38.6875 29.0464V32.7285C38.6875 34.5356 40.1776 36.0188 41.9932 36.0188H51.4545C52.6871 36.036 52.6871 34.1867 51.4545 34.2035H41.9932C41.1564 34.2035 40.5113 33.5614 40.5113 32.7285V29.0464C40.5113 28.2135 41.1564 27.5714 41.9932 27.5714H51.6522L54.7602 35.2867V44.7641C54.7602 46.9715 53.0029 48.7192 50.7848 48.7192H49.8212C49.3135 45.1119 46.1973 42.3194 42.4367 42.3194C38.6761 42.3194 35.5581 45.1119 35.0504 48.7192H33.0342V19.8384ZM15.9462 44.1347C19.0733 44.1347 21.587 46.6385 21.587 49.751C21.587 52.8635 19.0734 55.3726 15.9462 55.3726C12.8191 55.3726 10.3055 52.8635 10.3055 49.751C10.3055 46.6385 12.8192 44.1347 15.9462 44.1347ZM42.4367 44.1347C45.5638 44.1347 48.0775 46.6385 48.0775 49.751C48.0775 52.8635 45.5638 55.3726 42.4367 55.3726C39.3096 55.3726 36.7888 52.8635 36.7888 49.751C36.7888 46.6385 39.3096 44.1347 42.4367 44.1347Z" fill="#00003A"/>
</svg>
