<svg width="57" height="58" viewBox="0 0 57 58" fill="none" xmlns="http://www.w3.org/2000/svg">
<path d="M52.3641 26.1873C55.1846 45.5891 31.9352 61.6447 14.7387 48.9603C13.41 48.1832 11.7675 49.3274 12.0128 50.8417C16.7108 54.3203 22.4127 56.1742 28.268 56.1855C43.3536 56.1855 55.5829 44.0133 55.5829 28.998C55.5828 27.4551 55.4507 25.9149 55.1881 24.3942C53.78 23.5723 52.1602 24.6696 52.3641 26.1873Z" fill="#5575FF"/>
<path d="M27.8092 0.906191C25.5431 0.943526 23.2464 1.25468 20.9627 1.86378C19.9639 2.13026 20.2996 3.91395 21.4339 3.6161C35.1247 -0.0352303 49.2471 7.70067 53.4702 21.1676C57.6933 34.6346 50.5045 48.9998 37.1577 53.7484C23.811 58.4969 9.09831 51.9249 3.78775 38.8448C-1.52276 25.7647 4.46884 10.8711 17.3829 5.05692C18.4927 4.55845 17.7405 2.90157 16.6307 3.40014C2.84389 9.60732 -3.57102 25.5586 2.09838 39.5227C7.76779 53.4867 23.5207 60.5241 37.7695 55.4546C52.0182 50.3851 59.7197 35.0048 55.2111 20.6277C51.4071 8.49709 40.0462 0.703865 27.8092 0.906191Z" fill="#00003A"/>
<path d="M2.88093 11.9492C1.92237 11.9492 1.15063 12.7174 1.15063 13.6715V15.93C1.15063 16.8841 1.92237 17.6523 2.88093 17.6523H4.33736V20.0153C4.33736 26.6676 9.71793 32.0231 16.4014 32.0231C23.0849 32.0231 28.4655 26.6676 28.4655 20.0153C28.4655 26.6676 33.846 32.0231 40.5295 32.0231C47.213 32.0231 52.5936 26.6676 52.5936 20.0153V17.6523H53.6552C54.6138 17.6523 55.3855 16.8841 55.3855 15.93V13.6715C55.3855 12.7174 54.6138 11.9492 53.6552 11.9492H2.88093Z" fill="#5575FF"/>
<path d="M23.2856 35.7542C23.2856 37.7822 24.754 39.6545 26.9554 39.6545H32.3391C33.5534 39.6545 33.5534 37.8415 32.3391 37.8415H27.0092C25.7097 37.8415 25.12 36.6345 25.1071 35.7543C25.1071 34.4013 23.2856 34.4714 23.2856 35.7542Z" fill="#00003A"/>
<path d="M2.88263 11.043C1.43538 11.043 0.241211 12.2316 0.241211 13.6721V15.9332C0.241211 17.3738 1.43538 18.5623 2.88263 18.5623H3.42704V20.014C3.42704 27.1527 9.22675 32.9321 16.3989 32.9321C23.5711 32.9321 29.3775 27.1527 29.3775 20.014C29.3775 19.7736 29.2815 19.5431 29.1107 19.3731C28.9399 19.2031 28.7083 19.1076 28.4668 19.1076C28.2252 19.1076 27.9936 19.2031 27.8228 19.3731C27.652 19.5431 27.556 19.7736 27.556 20.014C27.556 26.1799 22.5937 31.1192 16.3989 31.1192C10.2041 31.1192 5.24848 26.1799 5.24848 20.014V17.6525C5.24806 17.5335 5.22408 17.4157 5.17791 17.3059C5.13174 17.1961 5.06428 17.0964 4.9794 17.0125C4.89452 16.9286 4.79387 16.8622 4.6832 16.817C4.57253 16.7719 4.454 16.7489 4.3344 16.7494H2.88263C2.41276 16.7494 2.06265 16.401 2.06265 15.9332V13.6721C2.06265 13.2044 2.41276 12.8559 2.88263 12.8559H53.6543C54.1242 12.8559 54.4743 13.2044 54.4743 13.6721V15.9332C54.4743 16.401 54.1242 16.7494 53.6543 16.7494H52.5924C52.352 16.7502 52.1217 16.8456 51.9517 17.0148C51.7818 17.184 51.6859 17.4133 51.685 17.6525V20.014C51.685 26.1799 46.7227 31.1192 40.5279 31.1192C36.6317 31.1192 33.2342 29.1585 31.2392 26.1754C31.1055 25.9749 30.8973 25.8355 30.6603 25.7878C30.4234 25.7401 30.1771 25.7881 29.9757 25.9212C29.7742 26.0542 29.6342 26.2615 29.5863 26.4973C29.5384 26.7332 29.5866 26.9784 29.7203 27.1789C32.0418 30.6502 36.017 32.9321 40.5279 32.9321C47.7001 32.9321 53.5065 27.1527 53.5065 20.014V18.5623H53.6543C55.1016 18.5623 56.2958 17.3738 56.2958 15.9332V13.6721C56.2958 12.2316 55.1016 11.043 53.6543 11.043H2.88263Z" fill="#00003A"/>
</svg>
