<svg width="151" height="90" viewBox="0 0 151 90" fill="none" xmlns="http://www.w3.org/2000/svg">
<g opacity="0.04">
<path d="M148.204 21.2873L75.7611 0.110368C75.2634 -0.0344308 74.7348 -0.0344432 74.2387 0.110332L2.04449 21.2839C1.49122 21.4457 1.00681 21.7804 0.663567 22.2379C0.320328 22.6954 0.136678 23.2511 0.140035 23.8222C0.143392 24.3933 0.333577 24.9491 0.682194 25.4066C1.03081 25.8641 1.51916 26.1988 2.07433 26.3607L74.5175 47.5376C75.0153 47.6823 75.5439 47.6824 76.0399 47.5377L128.757 32.0762L128.973 68.8227C128.339 68.8225 127.727 69.0447 127.245 69.4499C126.764 69.8551 126.445 70.4169 126.344 71.0352L123.759 86.9166C123.698 87.2957 123.721 87.684 123.826 88.0545C123.932 88.425 124.117 88.7688 124.371 89.062C124.624 89.3552 124.938 89.5909 125.292 89.7525C125.646 89.9141 126.03 89.9979 126.419 89.9979L137.133 89.9982C137.522 89.9981 137.906 89.9144 138.258 89.7528C138.61 89.5912 138.921 89.3556 139.171 89.0624C139.421 88.7691 139.602 88.4253 139.703 88.0549C139.805 87.6844 139.823 87.2961 139.757 86.917L136.985 71.0354C136.878 70.4171 136.552 69.8553 136.066 69.4501C135.579 69.0448 134.964 68.8226 134.33 68.8228L134.105 30.508L148.234 26.3641C148.787 26.2023 149.272 25.8676 149.615 25.4101C149.958 24.9527 150.142 24.3969 150.139 23.8258C150.135 23.2547 149.945 22.6989 149.596 22.2414C149.248 21.7839 148.759 21.4492 148.204 21.2873Z" fill="url(#paint0_linear)"/>
<path d="M75.2742 52.917C74.5032 52.9176 73.7356 52.8079 72.9952 52.5913L35.0236 41.4934L35.1995 71.4457C35.2529 80.5397 56.1067 84.6814 75.4607 84.6817C94.8147 84.682 115.62 80.541 115.567 71.4471L115.391 41.4945L77.556 52.5914C76.8157 52.8073 76.0473 52.917 75.2742 52.917Z" fill="url(#paint1_linear)"/>
</g>
<defs>
<linearGradient id="paint0_linear" x1="1.05473" y1="-1.07025e-05" x2="87.8107" y2="131.933" gradientUnits="userSpaceOnUse">
<stop stop-color="#6C55FF"/>
<stop offset="1" stop-color="#163CB7"/>
</linearGradient>
<linearGradient id="paint1_linear" x1="35.5887" y1="41.4932" x2="75.2226" y2="108.813" gradientUnits="userSpaceOnUse">
<stop stop-color="#6C55FF"/>
<stop offset="1" stop-color="#163CB7"/>
</linearGradient>
</defs>
</svg>
