<svg width="114" height="40" viewBox="0 0 114 40" fill="none" xmlns="http://www.w3.org/2000/svg">
<path d="M33.2841 29.162V39.1061H0V0H32.5407V9.94414H13.2679V14.5251H30.1959V24.0223H13.2679V29.162H33.2841Z" fill="white"/>
<path d="M47.1726 10.2235H35.4488V0H72.3931V10.2235H60.6693V39.1061H47.1726V10.2235Z" fill="white"/>
<path d="M94.4985 40C88.3602 40 83.5753 38.3799 80.144 35.1397C76.7126 31.8994 74.997 27.3557 74.997 21.5084V0H88.4936V21.1173C88.4936 23.9851 89.0083 26.0708 90.0377 27.3743C91.1052 28.6778 92.6303 29.3296 94.6129 29.3296C96.5954 29.3296 98.1014 28.6778 99.1308 27.3743C100.198 26.0708 100.732 23.9851 100.732 21.1173V0H114V21.5084C114 27.3557 112.284 31.8994 108.853 35.1397C105.422 38.3799 100.637 40 94.4985 40Z" fill="white"/>
</svg>
