<svg width="161" height="58" viewBox="0 0 161 58" fill="none" xmlns="http://www.w3.org/2000/svg">
<g opacity="0.04">
<path d="M47.0065 42.2849V56.7039H0V0H45.9566V14.419H18.738V21.0615H42.6451V34.8324H18.738V42.2849H47.0065Z" fill="#F9F9FF"/>
<path d="M66.621 14.824H50.0637V0H102.239V14.824H85.682V56.7039H66.621V14.824Z" fill="#F9F9FF"/>
<path d="M133.458 58C124.789 58 118.032 55.6508 113.186 50.9525C108.34 46.2542 105.917 39.6657 105.917 31.1872V0H124.978V30.6201C124.978 34.7784 125.705 37.8026 127.159 39.6927C128.666 41.5829 130.82 42.5279 133.62 42.5279C136.42 42.5279 138.547 41.5829 140.001 39.6927C141.508 37.8026 142.262 34.7784 142.262 30.6201V0H161V31.1872C161 39.6657 158.577 46.2542 153.731 50.9525C148.885 55.6508 142.127 58 133.458 58Z" fill="#F9F9FF"/>
</g>
</svg>
