<svg width="162" height="58" viewBox="0 0 162 58" fill="none" xmlns="http://www.w3.org/2000/svg">
<path d="M47.5065 42.2849V56.7039H0.5V0H46.4566V14.419H19.238V21.0615H43.1451V34.8324H19.238V42.2849H47.5065Z" fill="#4149DB" fill-opacity="0.04"/>
<path d="M67.121 14.824H50.5637V0H102.739V14.824H86.182V56.7039H67.121V14.824Z" fill="#4149DB" fill-opacity="0.04"/>
<path d="M133.958 58C125.289 58 118.532 55.6508 113.686 50.9525C108.84 46.2542 106.417 39.6657 106.417 31.1872V0H125.478V30.6201C125.478 34.7784 126.205 37.8026 127.659 39.6927C129.166 41.5829 131.32 42.5279 134.12 42.5279C136.92 42.5279 139.047 41.5829 140.501 39.6927C142.008 37.8026 142.762 34.7784 142.762 30.6201V0H161.5V31.1872C161.5 39.6657 159.077 46.2542 154.231 50.9525C149.385 55.6508 142.627 58 133.958 58Z" fill="#4149DB" fill-opacity="0.04"/>
</svg>
