<svg width="117" height="118" viewBox="0 0 117 118" fill="none" xmlns="http://www.w3.org/2000/svg">
<path d="M41.3733 91.1774H75.5123C79.6673 91.1774 83.0123 94.5225 83.0123 98.6775V107.77C83.0123 111.925 79.6673 115.27 75.5123 115.27H41.3733C37.2183 115.27 33.8733 111.925 33.8733 107.77V98.6775C33.8733 94.5225 37.2183 91.1774 41.3733 91.1774Z" fill="#5575FF"/>
<path d="M67.5456 47.5451C65.0963 49.3252 61.4737 46.3692 58.4458 46.3697C55.418 46.3702 51.7964 49.3275 49.3466 47.5482C46.8967 45.7689 48.5885 41.4102 47.6524 38.5307C46.7162 35.6512 42.7847 33.1207 43.7199 30.2408C44.655 27.361 49.3232 27.6231 51.7725 25.843C54.2218 24.0629 55.4135 19.5418 58.4414 19.5413C61.4692 19.5407 62.6625 24.0615 65.1123 25.8409C67.5622 27.6201 72.2303 27.3563 73.1664 30.2358C74.1026 33.1153 70.1719 35.6472 69.2367 38.5271C68.3015 41.4068 69.9948 45.765 67.5456 47.5451Z" fill="#5575FF"/>
<path d="M28.0621 2.76994V9.82303C4.77312 5.58275 -6.91199 31.0097 5.19591 46.1328C7.93778 49.6183 12.4411 55.7656 17.7789 60.6093C22.612 64.8544 28.1337 68.806 35.0384 67.2707C38.1742 71.0202 42.1959 74.0154 46.7901 75.9352V89.3018H41.3775C36.2162 89.3018 31.9952 93.5118 31.9952 98.6732V107.766C31.9952 112.927 36.2162 117.152 41.3775 117.152H75.5084C80.6697 117.152 84.8944 112.927 84.8944 107.766V98.6732C84.8944 93.5118 80.6697 89.3018 75.5084 89.3018H50.5401V74.8474C50.5398 74.0592 50.0467 73.3555 49.306 73.0861C39.0877 69.3713 31.8121 59.6477 31.8121 48.0885V2.76994C31.8121 0.0886451 28.0621 0.315275 28.0621 2.76994ZM38.9899 0.898584C36.4554 0.863151 36.4554 4.68337 38.9899 4.64864H85.0738V48.092C85.0738 59.6511 77.7983 69.375 67.5799 73.0898C66.8393 73.3591 66.3461 74.0629 66.3458 74.8511V84.4678C66.3104 87.0033 70.1316 87.0033 70.0958 84.4678V75.9389C74.6933 74.0178 78.7182 71.0201 81.8548 67.2668C88.7211 68.8088 94.558 64.7167 99.1217 60.6093C104.46 55.7656 108.963 49.6183 111.705 46.1328C125.657 27.3318 107.539 5.10879 88.8238 9.82671V2.77361C88.8238 1.73812 87.9843 0.898655 86.9488 0.898584H38.9899ZM28.0365 13.6464C28.0457 13.6495 28.0528 13.6506 28.062 13.6533V48.0883C28.062 53.8992 29.7241 59.2757 32.5664 63.8463C27.8114 64.0597 23.4635 60.6775 20.2983 57.8294C15.3583 53.3467 10.97 47.3999 8.14379 43.8073C-3.52077 27.8561 11.79 9.01735 28.0364 13.6462L28.0365 13.6464ZM108.757 43.8075C105.931 47.4001 101.542 53.3469 96.6021 57.8296C92.8462 61.2115 88.918 63.958 84.3231 63.8466C87.1641 59.2766 88.8238 53.9015 88.8238 48.092V13.6574C107.899 9.07416 119.501 30.1582 108.757 43.8075ZM53.3746 20.9192C50.7027 24.9123 50.5568 24.6136 46.6034 25.8449C41.6447 27.2505 40.2118 31.3243 43.4649 35.4908C45.7219 38.3495 46.068 38.9658 46.0614 43.4522C45.9976 48.7081 49.1241 51.1313 54.2608 49.4106C58.443 47.9962 58.443 47.9467 62.6361 49.4067C68.0776 51.3493 70.974 48.3251 70.8319 43.4412C70.3443 40.0177 71.7121 37.8251 73.421 35.4798C76.6557 31.3188 75.3209 27.2943 70.2826 25.8373C65.5078 24.4556 66.058 24.506 63.504 20.9229C60.1879 16.7826 56.6478 16.301 53.3746 20.9192ZM60.4791 23.1275C63.2899 27.3231 64.1529 28.1253 69.129 29.4155C72.2503 30.3742 71.7013 31.3983 70.3851 33.2788C67.5857 36.4341 66.9458 39.3815 67.0782 43.4449C67.1243 46.2941 66.4389 46.7085 63.7897 45.8398C59.5692 44.2961 58.0515 43.8248 53.1036 45.8437C50.4013 46.7557 49.7942 46.1768 49.8004 43.4524C50.229 37.8045 48.9973 36.4877 46.5045 33.2827C44.7949 30.9994 45.1154 30.2883 47.7606 29.4118C52.9459 27.9156 53.6728 27.311 56.4068 23.1275C58.0567 20.8054 58.9458 20.9126 60.4791 23.1275ZM41.3775 93.0555H75.5084C78.6571 93.0555 81.1444 95.5245 81.1444 98.6732V107.766C81.1444 110.915 78.6571 113.402 75.5084 113.402H41.3775C38.2288 113.402 35.7452 110.915 35.7452 107.766V98.6732C35.7452 95.5245 38.2288 93.0555 41.3775 93.0555Z" fill="#00003A"/>
</svg>
