<svg width="120" height="120" viewBox="0 0 120 120" fill="none" xmlns="http://www.w3.org/2000/svg">
<path d="M56.052 86.1951L51.6285 91.1357L54.7719 96.5568L52.2337 116.433H67.8882L65.4161 96.5568L68.5594 91.1357L64.136 86.1951C62.8419 86.7494 61.506 87.0563 60.094 87.035C58.682 87.0563 57.3461 86.749 56.052 86.1951Z" fill="#5575FF"/>
<path d="M72.5887 25.5327C72.5887 25.5327 62.645 40.7798 46.2379 44.923C36.4945 47.3834 31.1795 41.4353 28.4694 36.1977C26.3527 30.1188 27.4611 24.0049 28.9702 20.085C35.1301 0.238991 77.9411 -2.95613 84.1896 18.4063C95.6722 18.4063 94.4493 46.4143 84.1896 46.4143L72.5887 25.5327Z" fill="#5575FF"/>
<path d="M37.581 6.91778C26.6066 13.8275 23.2493 26.4174 26.7424 36.8733C28.0425 40.3471 31.0663 43.3064 33.9828 45.2288V48.3795C33.9828 58.5464 39.7882 67.3259 48.2582 71.6411V76.5561C40.8633 79.4517 33.2279 81.7393 26.2289 83.7598C12.8325 88.0178 7.13418 102.692 7.04224 116.433C7.04554 117.465 7.88062 118.301 8.91285 118.304H111.261C112.299 118.308 113.143 117.471 113.147 116.433C113.147 102.134 107.379 88.2029 93.9636 83.7598C85.6909 81.4967 79.4227 79.8148 71.8206 76.5084C69.8507 75.4327 68.2964 76.3222 68.1114 78.1489C67.6017 82.1457 64.2441 85.1719 60.0944 85.1719C55.5846 85.1719 52.0141 81.5978 52.0141 77.0879V73.2073C54.5598 74.0344 57.2709 74.4947 60.0944 74.4947C74.5285 74.4947 86.206 62.8133 86.206 48.3795V48.086C96.2789 44.9443 97.9321 18.441 85.8942 17.617C80.5986 -1.13091 49.7337 -0.531391 37.581 6.91778ZM82.4574 18.644C82.5602 19.5996 83.3669 20.3223 84.328 20.3202C92.1598 19.4774 93.1524 40.7155 85.091 44.0147C82.5627 39.4628 80.0312 34.9127 77.5058 30.3592C76.3313 28.0473 72.8902 29.9504 74.2231 32.1748C76.9495 37.1218 79.7049 42.0528 82.4501 46.9893V48.3831C82.4501 60.8013 72.5122 70.7425 60.0944 70.7425C47.6766 70.7425 37.7387 60.8013 37.7387 48.3831V46.8573C40.344 47.579 43.3711 47.6723 46.7727 46.8133C64.0914 42.4399 74.2781 26.6033 74.2781 26.6033C75.6459 24.5054 72.4988 22.4514 71.131 24.5493C71.131 24.5493 61.3919 39.256 45.8447 43.1821C38.4456 44.4739 32.6328 41.3515 30.2892 35.5309C26.8789 26.3476 31.2287 15.2589 39.5103 10.1455C48.6196 3.7561 77.9774 1.92439 82.4574 18.644ZM48.746 80.4404C49.4922 82.9607 51.059 85.1267 53.1328 86.6427L47.0771 93.4063C44.3733 90.1803 44.77 86.083 44.792 82.1533L48.746 80.4404ZM71.4428 80.4441L75.4005 82.1607C75.5053 86.3976 75.5127 90.1556 73.1117 93.4211L67.0487 86.6465C69.125 85.131 70.6953 82.9657 71.4428 80.4441ZM41.0288 83.4188C40.9762 88.6457 41.7909 95.6998 46.0098 98.0903C46.7701 98.4927 47.7075 98.3293 48.2838 97.6905L51.3025 94.3124L52.832 96.9459L50.5726 114.559H28.5983V102.429C28.5983 99.5458 24.8424 99.4903 24.8424 102.429V114.559H11.1723C11.811 103.689 15.8249 90.7626 27.6007 87.2517C32.0773 85.9809 36.5534 84.6976 41.0288 83.4188ZM79.16 83.4188L92.5771 87.2517C103.255 90.6897 108.517 103.496 109.017 114.559H92.8375V102.429C92.8375 99.4672 89.0816 99.8842 89.0816 102.429V114.559H69.5539L67.3531 96.9569L68.8826 94.3197L71.894 97.6905C72.4724 98.3364 73.4152 98.5003 74.179 98.0903C79.0341 94.3121 79.1831 88.7502 79.16 83.4188ZM56.5952 88.3997C59.0157 89.1756 61.4968 89.0925 63.5936 88.3997L66.2491 91.3707L64.3381 94.6828H55.8543L53.9324 91.3743L56.5952 88.3997ZM56.4228 98.4387H63.7549L65.7649 114.559H54.3614L56.4228 98.4387Z" fill="#00003A"/>
</svg>
