<svg width="121" height="120" viewBox="0 0 121 120" fill="none" xmlns="http://www.w3.org/2000/svg">
<path d="M60.5004 3.74768C39.0916 3.74768 21.7363 21.1029 21.7363 42.5117C21.7363 63.1052 34.1311 70.7637 34.1311 80.7688H86.8786C86.8786 71.2677 99.2643 62.3502 99.2643 42.5123C99.2643 19.8575 83.2353 3.74768 60.5003 3.74768H60.5004Z" fill="#5575FF"/>
<path d="M60.595 1.88159C36.5152 1.88159 19.8962 21.6669 19.8962 42.584C19.8962 59.5317 26.1376 64.0456 30.181 73.4308C31.0899 75.9013 34.783 74.3276 33.6324 71.96C29.7089 62.5199 23.6521 58.9637 23.6521 42.584C23.6521 22.1564 40.1674 5.64116 60.595 5.64116C82.4787 5.64116 97.5415 20.7793 97.5415 42.584C98.6172 56.5319 88.186 67.4838 85.5366 78.2688H70.6963L81.7513 36.9832C82.1353 35.588 80.8623 34.3016 79.4626 34.6687L60.595 39.6607L41.7274 34.6687C40.0643 34.2231 39.1019 35.7125 39.4424 36.9832L50.4973 78.2688H34.8795C31.3778 78.2688 28.5047 81.1418 28.5047 84.6435V96.179C28.5047 99.6807 31.3778 102.554 34.8795 102.554H35.9029C37.0142 111.425 44.5271 118.318 53.7067 118.318H67.4869C74.9681 118.318 81.3554 113.758 84.0511 107.256C85.0122 104.936 81.5351 103.495 80.5739 105.815C78.4407 110.96 73.4481 114.559 67.4869 114.559H53.7067C46.5564 114.559 40.7857 109.389 39.7138 102.554H86.3105C89.8122 102.554 92.6889 99.6807 92.6889 96.179V84.6435C92.6889 82.1938 91.2671 80.0763 89.2228 79.0097C94.198 66.2766 101.195 54.0659 101.297 42.584C101.297 15.0713 79.2789 1.88159 60.595 1.88159ZM43.8915 39.1325L60.1108 43.4166C60.4287 43.5018 60.7649 43.5018 61.0828 43.4166L77.3022 39.1325L66.801 78.2688H54.389L43.8915 39.1325ZM34.8795 82.0247H86.3105C87.7964 82.0247 88.933 83.1576 88.933 84.6435V96.179C88.933 97.6649 87.7964 98.7979 86.3105 98.7979H34.8795C33.3936 98.7979 32.2607 97.6649 32.2607 96.179V84.6435C32.2607 83.1576 33.3936 82.0247 34.8795 82.0247Z" fill="#00003A"/>
</svg>
