<svg width="117" height="118" viewBox="0 0 117 118" fill="none" xmlns="http://www.w3.org/2000/svg">
<path d="M58.5075 2.74036C55.7879 2.76162 53.1539 2.91541 50.4655 3.32644C38.3136 20.8025 47.7584 42.8227 66.8901 46.9054C66.2415 56.5707 72.5915 65.0843 82.6481 65.0843C97.2377 65.0843 103.825 47.6037 93.7004 37.6879C97.5849 33.0675 99.8803 27.2445 100.182 21.2158C89.5378 9.43782 74.3827 2.76481 58.5075 2.74036Z" fill="#5575FF"/>
<path d="M3.03317 49.7582C2.5038 52.8076 2.27875 55.8955 2.25732 58.9904C2.25846 79.5829 13.5119 98.5288 31.5945 108.381C62.7407 81.2676 32.7844 40.7251 3.03317 49.7582Z" fill="#5575FF"/>
<path d="M78.1948 93.4433C78.1948 96.054 77.1577 98.5578 75.3116 100.404C73.4656 102.25 70.9618 103.287 68.3511 103.287C65.7403 103.287 63.2366 102.25 61.3905 100.404C59.5444 98.5578 58.5073 96.054 58.5073 93.4433C58.5073 90.8326 59.5444 88.3288 61.3905 86.4828C63.2366 84.6367 65.7403 83.5997 68.3511 83.5997C70.9618 83.5997 73.4656 84.6367 75.3116 86.4828C77.1577 88.3288 78.1948 90.8326 78.1948 93.4433Z" fill="#5575FF"/>
<path d="M58.5073 0.872681C26.4279 0.872681 0.374972 26.911 0.375 58.9904C0.375014 91.0698 26.428 117.123 58.5073 117.123C90.5867 117.123 116.625 91.0698 116.625 58.9904C116.625 26.911 90.5867 0.872681 58.5073 0.872681ZM58.5073 4.62274C88.5601 4.62274 112.875 28.9377 112.875 58.9904C112.875 89.0431 88.56 113.373 58.5073 113.373C28.4546 113.373 4.12502 89.0431 4.125 58.9904C4.125 56.3812 4.31974 53.8178 4.67428 51.3073C23.8896 47.1187 42.8042 61.44 42.8042 81.9591C42.7976 89.1755 40.311 96.0809 35.8864 101.592C34.3083 103.544 37.249 105.903 38.8125 103.939C43.7657 97.7701 46.5467 90.0347 46.5542 81.9591C46.5542 59.2028 25.929 43.6215 5.38839 47.3448C9.87903 26.7429 26.0284 10.5341 46.5944 5.94456C37.5615 23.3914 46.5781 42.7747 64.916 48.1065C64.103 59.2631 73.5804 66.9628 82.6479 66.9628C97.3532 66.9628 106.356 49.8939 95.8828 37.6183C97.6281 35.3141 99.2089 32.8825 100.215 30.1915C101.094 27.8467 97.5783 26.532 96.6994 28.8768C95.6683 31.6346 94.1714 34.2186 92.2646 36.4865C91.6308 37.2417 91.69 38.3589 92.4001 39.0428C102.158 49.2217 94.0552 63.2127 82.6479 63.2127C73.2174 63.2127 67.4365 54.6193 68.7429 47.1911C68.894 46.2067 68.2491 45.275 67.2744 45.0706C49.1085 40.886 40.8126 20.781 51.5346 5.08036C53.8196 4.78839 56.1424 4.62252 58.5073 4.62252L58.5073 4.62274ZM68.3474 81.7321C61.8975 81.7321 56.625 86.99 56.625 93.4398C56.625 99.8897 61.8975 105.162 68.3474 105.162C74.7973 105.162 80.0735 99.8897 80.0735 93.4398C80.0735 86.99 74.7973 81.7321 68.3474 81.7321ZM68.3474 85.4819C72.7706 85.4819 76.3235 89.0167 76.3235 93.4398C76.3235 97.8631 72.7706 101.412 68.3474 101.412C63.9242 101.412 60.375 97.8631 60.375 93.4398C60.375 89.0167 63.9242 85.4819 68.3474 85.4819Z" fill="#00003A"/>
</svg>
