<svg width="215" height="65" viewBox="0 0 215 65" fill="none" xmlns="http://www.w3.org/2000/svg">
<path d="M19.2477 45.0937C19.6259 45.0937 19.9761 45.2478 20.2283 45.514C20.4664 45.7661 20.6065 46.1023 20.5925 46.4525C20.5925 46.8028 20.4524 47.139 20.2003 47.3911C19.9481 47.6573 19.5979 47.7974 19.2337 47.7974C18.8694 47.7974 18.5332 47.6573 18.2811 47.4051C17.8188 46.9428 17.7488 46.2284 18.113 45.6821L18.2531 45.4719L18.4632 45.3319C18.7013 45.1778 18.9675 45.0937 19.2477 45.0937ZM11.8371 45.0937C12.1173 45.0937 12.3694 45.1778 12.5936 45.3319L12.8037 45.4719L12.9438 45.6821C13.308 46.2144 13.238 46.9428 12.7757 47.4051C12.5235 47.6573 12.1873 47.7974 11.8231 47.7974C11.4589 47.7974 11.1227 47.6573 10.8705 47.4051C10.6184 47.153 10.4783 46.8028 10.4783 46.4525C10.4783 46.0883 10.6184 45.7521 10.8705 45.5C11.1367 45.2338 11.4729 45.0937 11.8371 45.0937ZM20.4104 37.3329L15.5494 42.1939L10.6884 37.3329L10.1421 37.8793L10.6884 38.4256L9.76384 39.3502L10.3102 39.8965L11.2347 38.9719L11.7951 39.5323L10.8705 40.4569L11.4169 41.0032L12.3414 40.0786L14.9891 42.7263L13.0138 44.7015C12.6636 44.4633 12.2574 44.3372 11.8371 44.3372C11.3048 44.3372 10.7725 44.5474 10.3662 44.9536C9.55371 45.7661 9.55371 47.0829 10.3662 47.8954C10.7725 48.3017 11.3048 48.5118 11.8371 48.5118C12.3694 48.5118 12.9018 48.3157 13.308 47.8954C14.0225 47.181 14.1065 46.0603 13.5602 45.2478L15.5354 43.2726L17.5106 45.2478C16.9643 46.0603 17.0343 47.181 17.7628 47.8954C18.169 48.3017 18.7013 48.5118 19.2337 48.5118C19.766 48.5118 20.3123 48.3017 20.7186 47.8954C21.5031 47.0969 21.5171 45.8081 20.7466 44.9956C20.3404 44.5614 19.78 44.3513 19.2337 44.3513C18.8274 44.3513 18.4072 44.4773 18.0569 44.7155L16.0817 42.7403L18.7294 40.0926L19.6539 41.0172L20.2143 40.4709L19.2897 39.5463L19.85 38.9859L20.7746 39.9105L21.321 39.3642L20.3964 38.4396L20.9427 37.8933L20.4104 37.3329Z" fill="#F2F2F2"/>
<path fill-rule="evenodd" clip-rule="evenodd" d="M41.7739 39.5183C40.9614 39.056 40.0928 38.6918 39.1963 38.4536C38.5239 38.2715 37.8515 38.1594 37.165 38.1034V44.6874C38.762 44.7855 40.303 45.1918 41.7739 45.9062V39.5183Z" fill="#F2F2F2"/>
<path fill-rule="evenodd" clip-rule="evenodd" d="M47.1669 38.1034C46.4805 38.1594 45.7941 38.2715 45.1357 38.4536C44.2391 38.6918 43.3846 39.056 42.5581 39.5183V45.9062C44.029 45.1918 45.57 44.7855 47.1669 44.6874V38.1034Z" fill="#F2F2F2"/>
<path fill-rule="evenodd" clip-rule="evenodd" d="M47.9375 45.4439C46.0183 45.4439 44.1831 45.9202 42.5581 46.7747C42.4321 46.8448 42.292 46.9148 42.1659 46.9849C42.0398 46.9148 41.8997 46.8448 41.7737 46.7747C40.1347 45.9202 38.3135 45.4439 36.3943 45.4439V40.9331H35.6099V47.7693H48.7219V40.9191H47.9375V45.4439Z" fill="#F2F2F2"/>
<path fill-rule="evenodd" clip-rule="evenodd" d="M28.8579 28.0592V62.7166H28.984C43.609 62.7166 55.4603 50.6832 55.4603 35.82V28.0452H28.8579V28.0592ZM49.5066 48.5539H48.7221H35.6101H34.8256V40.1487H35.6101H36.3945V37.2909C38.4678 37.2909 40.443 37.8513 42.1661 38.8459C43.9032 37.8513 45.8644 37.3049 47.9377 37.3049V40.1487H48.7221H49.5066V48.5539Z" fill="#F2F2F2"/>
<path fill-rule="evenodd" clip-rule="evenodd" d="M28.8578 -4.57764e-05H0V28.8577V32.5V36.1422C0 52.084 12.9159 65 28.8578 65C44.7996 65 57.7155 52.084 57.7155 36.1422V32.5V28.8577V-4.57764e-05H28.8578ZM55.4601 29.0959V32.4859V35.876C55.4601 50.6972 43.5528 62.7165 28.8718 62.7165C14.1907 62.7165 2.28341 50.6972 2.28341 35.876V32.4859V29.0959V2.25534H28.8718H55.4601V29.0959Z" fill="#F2F2F2"/>
<path fill-rule="evenodd" clip-rule="evenodd" d="M47.2513 10.8566C47.1953 10.5484 47.1253 10.2543 47.0272 9.96008C46.733 9.86202 46.4388 9.79198 46.1307 9.73594C45.6684 9.65189 45.2061 9.60986 44.7438 9.60986C43.7352 9.60986 42.7686 9.80598 41.844 10.1702C40.8914 10.5624 40.0229 11.1368 39.2945 11.8653C38.552 12.6077 37.9916 13.4622 37.5994 14.4148C37.2212 15.3394 37.0391 16.32 37.0391 17.3146C37.0391 17.7909 37.0811 18.2532 37.1651 18.7015C37.2212 19.0096 37.2912 19.3038 37.3893 19.598C37.6835 19.6961 37.9776 19.7661 38.2858 19.8221C38.7481 19.9062 39.2104 19.9482 39.6727 19.9482C40.6813 19.9482 41.6479 19.7521 42.5725 19.3879C43.5251 18.9956 44.3936 18.4353 45.122 17.6928C45.8645 16.9504 46.4248 16.0959 46.8171 15.1433C47.1953 14.2187 47.3774 13.2381 47.3774 12.2435C47.3774 11.7812 47.3354 11.3049 47.2513 10.8566ZM46.3968 10.5905C46.4809 10.9407 46.5369 11.3049 46.5789 11.6691H45.5003V11.487H44.3656V12.6217H45.5003V12.4396H46.5929C46.5649 13.2941 46.3828 14.1346 46.0466 14.9331H42.0261V10.9267C42.3343 10.8006 42.6565 10.6885 42.9787 10.6045V13.028H42.7966V14.1627H43.9313V13.028H43.7492V10.4504C44.6598 10.3383 45.5423 10.3803 46.3968 10.5905ZM40.3591 16.6422V11.9493C40.6533 11.7112 40.9475 11.501 41.2697 11.3189V14.9471V15.7316H45.6684C45.4863 16.0538 45.2761 16.348 45.038 16.6422H40.3591ZM39.5746 16.6422H37.8376C37.8656 16.334 37.9216 16.0398 37.9917 15.7316H39.5746V16.6422ZM39.5746 12.6918V14.9471H38.2158C38.51 14.1346 38.9582 13.3642 39.5746 12.6918ZM41.886 18.8275V17.4267H41.1016V19.0517C40.0789 19.2618 39.0143 19.2478 37.9917 19.0096C37.8656 18.4913 37.7955 17.959 37.7955 17.4407H44.2955C43.5811 18.0711 42.7546 18.5334 41.886 18.8275Z" fill="#F2F2F2"/>
<path fill-rule="evenodd" clip-rule="evenodd" d="M27.7932 27.737L28.2275 28.0592H2.8719C10.1004 22.5959 20.4527 22.4838 27.7932 27.737ZM12.1176 2.25534C8.60143 2.78767 5.19733 4.1325 2.26953 6.30383V2.25534H12.1176ZM28.8579 18.2672V21.7974C21.0971 16.0538 10.0163 16.0538 2.26953 21.7974V18.2672C9.8622 12.0614 21.2792 12.0614 28.8579 18.2672ZM28.8579 13.042V16.7543C21.0971 11.0107 10.0163 11.0107 2.26953 16.7543V13.042C9.8622 6.83616 21.2792 6.83616 28.8579 13.042ZM28.8579 7.81676V11.529C21.0971 5.78551 10.0163 5.78551 2.26953 11.529V7.81676C9.8622 1.61094 21.2792 1.61094 28.8579 7.81676ZM28.8579 23.3103V27.0226L28.6898 26.8965C20.943 21.279 9.97427 21.3071 2.26953 27.0226V23.3103C9.8622 17.1045 21.2792 17.1045 28.8579 23.3103ZM28.8579 2.25534V6.30383C25.9301 4.1325 22.526 2.78767 19.0098 2.25534H28.8579Z" fill="#F2F2F2"/>
<path d="M71.5981 9.96008H79.569V11.9073H73.7835V14.5689H79.1068V16.5161H73.7835V19.57H79.6251V21.5172H71.6122V9.96008H71.5981Z" fill="#F2F2F2"/>
<path d="M91.0421 17.1325C91.0421 20.0883 89.0108 21.7413 86.3072 21.7413C83.6035 21.7413 81.5723 20.0883 81.5723 17.1325V9.96008H83.7436V16.9224C83.7436 18.7155 84.7102 19.7241 86.3072 19.7241C87.9042 19.7241 88.8708 18.7155 88.8708 16.9224V9.96008H91.0421V17.1325Z" fill="#F2F2F2"/>
<path d="M97.206 16.8243H95.3569V21.5032H93.1855V9.96008H98.1166C100.652 9.96008 102.221 11.2349 102.221 13.2241C102.221 15.0032 101.17 16.0398 99.5875 16.6282L102.375 21.5172H99.8817L97.206 16.8243ZM95.3569 14.9191H98.1166C99.4474 14.9191 100.05 14.3308 100.05 13.4062C100.05 12.4816 99.4614 11.8933 98.1166 11.8933H95.3569V14.9191Z" fill="#F2F2F2"/>
<path d="M107.726 9.96008H109.8L114.465 21.5032H112.139L110.99 18.4773H106.536L105.387 21.5032H103.062L107.726 9.96008ZM107.278 16.5441H110.248L109.197 13.7704L109.071 13.4062L108.777 12.5097L108.483 13.4062L108.357 13.7704L107.278 16.5441Z" fill="#F2F2F2"/>
<path d="M120.446 14.653C122.968 15.1853 124.229 16.2359 124.229 18.1971C124.229 20.0883 122.618 21.7413 119.928 21.7413C117.056 21.7413 115.529 20.1583 115.081 18.043L117 17.0764C117.308 18.7855 118.149 19.8361 119.914 19.8361C121.231 19.8361 122.057 19.2058 122.057 18.2812C122.057 17.2025 121.063 16.7402 119.2 16.362C117.098 15.9698 115.571 14.8491 115.571 12.9019C115.571 10.9827 117.224 9.73593 119.634 9.73593C121.805 9.73593 123.29 10.7025 124.019 12.7058L122.309 13.7004C121.861 12.3836 120.951 11.6551 119.592 11.6551C118.569 11.6551 117.659 12.0333 117.659 12.8599C117.659 13.7564 118.513 14.2467 120.446 14.653Z" fill="#F2F2F2"/>
<path d="M126.092 9.96008H128.263V21.5032H126.092V9.96008Z" fill="#F2F2F2"/>
<path d="M133.936 9.96008H136.024L140.689 21.5032H138.363L137.215 18.4773H132.76L131.611 21.5032H129.286L133.936 9.96008ZM133.488 16.5441H136.458L135.407 13.7704L135.281 13.4062L134.987 12.5097L134.693 13.4062L134.567 13.7704L133.488 16.5441Z" fill="#F2F2F2"/>
<path d="M141.711 9.96008H143.925L148.744 17.3006C148.828 17.4127 148.898 17.5528 148.954 17.6648C149.066 17.8609 149.178 18.0991 149.234 18.2112V9.96008H151.349V21.5032H149.136L144.317 14.1066C144.233 13.9946 144.163 13.8545 144.107 13.7424C143.995 13.5463 143.883 13.3362 143.827 13.1961V21.4892H141.711V9.96008Z" fill="#F2F2F2"/>
<path d="M70.6597 25.3696H79.8913V27.3868H76.3612V36.9267H74.1898V27.3868H70.6597V25.3696Z" fill="#F2F2F2"/>
<path d="M81.3623 25.3696H89.3332V27.3168H83.5477V29.9784H88.8709V31.9256H83.5477V34.9795H89.3752V36.9267H81.3623V25.3696Z" fill="#F2F2F2"/>
<path d="M102.179 34.0549C100.764 36.1842 99.4753 37.1508 96.9678 37.1508C93.5917 37.1508 91.0562 34.7553 91.0562 31.1411C91.0562 27.5269 93.6618 25.1314 97.0378 25.1314C99.4753 25.1314 101.31 26.3922 102.109 28.1573L100.344 29.4321C99.6294 27.9612 98.6068 27.1487 96.9818 27.1487C94.9505 27.1487 93.2695 28.7036 93.2695 31.1411C93.2695 33.5226 94.9225 35.1336 96.9818 35.1336C98.4807 35.1336 99.6574 34.3631 100.484 32.8221L102.179 34.0549Z" fill="#F2F2F2"/>
<path d="M104.183 25.3696H106.354V30.0204H111.397V25.3696H113.568V36.9127H111.397V32.0236H106.354V36.9127H104.183V25.3696Z" fill="#F2F2F2"/>
<path d="M115.992 25.3696H118.205L123.024 32.7101C123.108 32.8221 123.178 32.9622 123.234 33.0743C123.346 33.2704 123.458 33.5086 123.514 33.6206V25.3696H125.63V36.9127H123.416L118.597 29.5161C118.513 29.404 118.443 29.2639 118.387 29.1519C118.275 28.9558 118.163 28.7456 118.107 28.6055V36.8986H115.992V25.3696Z" fill="#F2F2F2"/>
<path d="M133.53 37.1508C130.154 37.1508 127.591 34.5872 127.591 31.1411C127.591 27.695 130.154 25.1314 133.53 25.1314C136.907 25.1314 139.47 27.695 139.47 31.1411C139.47 34.5872 136.907 37.1508 133.53 37.1508ZM137.257 31.1411C137.257 28.6476 135.618 27.1487 133.53 27.1487C131.443 27.1487 129.804 28.6476 129.804 31.1411C129.804 33.6346 131.443 35.1336 133.53 35.1336C135.618 35.1336 137.257 33.6346 137.257 31.1411Z" fill="#F2F2F2"/>
<path d="M141.431 25.3696H143.602V34.9094H149.388V36.9267H141.417V25.3696H141.431Z" fill="#F2F2F2"/>
<path d="M156.771 37.1508C153.395 37.1508 150.831 34.5872 150.831 31.1411C150.831 27.695 153.395 25.1314 156.771 25.1314C160.147 25.1314 162.71 27.695 162.71 31.1411C162.71 34.5872 160.147 37.1508 156.771 37.1508ZM160.497 31.1411C160.497 28.6476 158.858 27.1487 156.771 27.1487C154.683 27.1487 153.044 28.6476 153.044 31.1411C153.044 33.6346 154.683 35.1336 156.771 35.1336C158.858 35.1336 160.497 33.6346 160.497 31.1411Z" fill="#F2F2F2"/>
<path d="M173.469 35.3437C172.796 36.3944 171.676 37.1648 169.953 37.1648C166.731 37.1648 164.223 34.6713 164.223 31.1551C164.223 27.639 166.913 25.1454 170.205 25.1454C172.516 25.1454 174.379 26.2521 175.248 27.9612L173.609 29.1519C172.894 27.765 171.676 27.0506 170.163 27.0506C168.118 27.0506 166.422 28.6196 166.422 31.1411C166.422 33.5226 167.963 35.1336 170.009 35.1336C172.012 35.1336 172.965 33.9288 173.175 32.528H169.448V30.7489H175.36V36.9127H173.931L173.469 35.3437Z" fill="#F2F2F2"/>
<path d="M177.545 25.3696H179.717V36.9127H177.545V25.3696Z" fill="#F2F2F2"/>
<path d="M192.801 34.0549C191.386 36.1842 190.097 37.1508 187.59 37.1508C184.214 37.1508 181.678 34.7553 181.678 31.1411C181.678 27.5269 184.284 25.1314 187.66 25.1314C190.097 25.1314 191.933 26.3922 192.731 28.1573L190.966 29.4321C190.251 27.9612 189.229 27.1487 187.604 27.1487C185.573 27.1487 183.892 28.7036 183.892 31.1411C183.892 33.5226 185.545 35.1336 187.604 35.1336C189.103 35.1336 190.28 34.3631 191.106 32.8221L192.801 34.0549Z" fill="#F2F2F2"/>
<path d="M198.348 25.3696H200.422L205.087 36.9127H202.761L201.612 33.8868H197.158L196.009 36.9127H193.684L198.348 25.3696ZM197.9 31.9536H200.87L199.819 29.1799L199.693 28.8157L199.399 27.9191L199.105 28.8157L198.979 29.1799L197.9 31.9536Z" fill="#F2F2F2"/>
<path d="M206.375 25.3696H208.547V34.9094H214.332V36.9267H206.361V25.3696H206.375Z" fill="#F2F2F2"/>
<path d="M80.9 47.9515C80.9 50.9073 78.8688 52.5603 76.1651 52.5603C73.4614 52.5603 71.4302 50.9073 71.4302 47.9515V40.7791H73.6015V47.7413C73.6015 49.5344 74.5681 50.5431 76.1651 50.5431C77.7621 50.5431 78.7287 49.5344 78.7287 47.7413V40.7791H80.9V47.9515Z" fill="#F2F2F2"/>
<path d="M83.1411 40.7791H85.3545L90.1734 48.1196C90.2575 48.2316 90.3275 48.3717 90.3836 48.4838C90.4956 48.6799 90.6077 48.9181 90.6637 49.0301V40.7791H92.779V52.3222H90.5657L85.7467 44.9256C85.6627 44.8135 85.5926 44.6734 85.5366 44.5614C85.4245 44.3653 85.3124 44.1551 85.2564 44.015V52.3081H83.1411V40.7791Z" fill="#F2F2F2"/>
<path d="M95.189 40.7791H97.3603V52.3222H95.189V40.7791Z" fill="#F2F2F2"/>
<path d="M98.6069 40.7791H100.96L103.566 48.1476L103.72 48.6659C103.804 48.9741 103.888 49.3103 104 49.6185C104.084 49.3103 104.196 48.9741 104.28 48.6659L104.435 48.1476L107.04 40.7791H109.394L105.107 52.3222H102.894L98.6069 40.7791Z" fill="#F2F2F2"/>
<path d="M110.626 40.7791H118.597V42.7263H112.811V45.3879H118.135V47.3351H112.811V50.389H118.653V52.3362H110.64V40.7791H110.626Z" fill="#F2F2F2"/>
<path d="M124.803 47.6433H122.954V52.3222H120.782V40.7791H125.713C128.249 40.7791 129.818 42.0538 129.818 44.0431C129.818 45.8222 128.767 46.8588 127.184 47.4472L129.972 52.3362H127.478L124.803 47.6433ZM122.954 45.7381H125.713C127.044 45.7381 127.646 45.1497 127.646 44.2252C127.646 43.3006 127.058 42.7122 125.713 42.7122H122.954V45.7381Z" fill="#F2F2F2"/>
<path d="M136.682 45.4719C139.204 46.0043 140.465 47.0549 140.465 49.0161C140.465 50.9073 138.854 52.5603 136.164 52.5603C133.292 52.5603 131.765 50.9773 131.317 48.862L133.236 47.8954C133.544 49.6045 134.385 50.6551 136.15 50.6551C137.467 50.6551 138.293 50.0247 138.293 49.1002C138.293 48.0215 137.299 47.5592 135.435 47.181C133.334 46.7887 131.821 45.668 131.821 43.7209C131.821 41.8017 133.474 40.5549 135.884 40.5549C138.055 40.5549 139.54 41.5215 140.268 43.5247L138.559 44.5193C138.111 43.2025 137.201 42.4741 135.842 42.4741C134.819 42.4741 133.908 42.8523 133.908 43.6788C133.894 44.5754 134.749 45.0657 136.682 45.4719Z" fill="#F2F2F2"/>
<path d="M142.538 40.7791H144.709V52.3222H142.538V40.7791Z" fill="#F2F2F2"/>
<path d="M146.18 40.7791H155.412V42.7963H151.882V52.3362H149.71V42.7963H146.18V40.7791Z" fill="#F2F2F2"/>
<path d="M161.73 52.3362H159.558V47.8114L155.748 40.7791H158.144L160.287 44.8836C160.343 44.9676 160.371 45.0657 160.413 45.1637L160.637 45.7241C160.707 45.528 160.805 45.3459 160.861 45.1637C160.917 45.0657 160.945 44.9676 160.987 44.8836L163.131 40.7791H165.526L161.716 47.8114V52.3362H161.73Z" fill="#F2F2F2"/>
</svg>
