<svg width="135" height="151" viewBox="0 0 135 151" fill="none" xmlns="http://www.w3.org/2000/svg">
<path d="M45.2137 104.755C46.0924 104.755 46.906 105.113 47.4917 105.732C48.045 106.318 48.3704 107.099 48.3379 107.912C48.3379 108.726 48.0124 109.507 47.4267 110.093C46.8409 110.711 46.0273 111.036 45.1812 111.036C44.3351 111.036 43.554 110.711 42.9683 110.125C41.8943 109.051 41.7316 107.391 42.5777 106.122L42.9032 105.634L43.3913 105.309C43.9445 104.951 44.5629 104.755 45.2137 104.755ZM27.9984 104.755C28.6493 104.755 29.2351 104.951 29.7558 105.309L30.2439 105.634L30.5693 106.122C31.4154 107.359 31.2527 109.051 30.1788 110.125C29.593 110.711 28.812 111.036 27.9659 111.036C27.1198 111.036 26.3387 110.711 25.7529 110.125C25.1672 109.539 24.8417 108.726 24.8417 107.912C24.8417 107.066 25.1672 106.285 25.7529 105.699C26.3713 105.081 27.1523 104.755 27.9984 104.755ZM47.9148 86.7266L36.6223 98.019L25.3299 86.7266L24.0607 87.9957L25.3299 89.2649L23.182 91.4128L24.4512 92.6819L26.5991 90.5341L27.9008 91.8358L25.7529 93.9837L27.0221 95.2529L29.17 93.105L35.3206 99.2557L30.732 103.844C29.9185 103.291 28.9747 102.998 27.9984 102.998C26.7618 102.998 25.5251 103.486 24.5814 104.43C22.6939 106.318 22.6939 109.377 24.5814 111.264C25.5251 112.208 26.7618 112.696 27.9984 112.696C29.2351 112.696 30.4717 112.24 31.4154 111.264C33.0751 109.604 33.2704 107.001 32.0012 105.113L36.5898 100.525L41.1784 105.113C39.9092 107.001 40.0719 109.604 41.7642 111.264C42.7079 112.208 43.9445 112.696 45.1812 112.696C46.4178 112.696 47.687 112.208 48.6307 111.264C50.4532 109.409 50.4857 106.415 48.6958 104.528C47.7521 103.519 46.4504 103.031 45.1812 103.031C44.2374 103.031 43.2611 103.324 42.4476 103.877L37.859 99.2882L44.0096 93.1376L46.1575 95.2854L47.4592 94.0162L45.3114 91.8684L46.6131 90.5666L48.7609 92.7145L50.0301 91.4453L47.8823 89.2975L49.1514 88.0283L47.9148 86.7266Z" fill="white"/>
<path fill-rule="evenodd" clip-rule="evenodd" d="M97.5441 91.8044C95.6566 90.7305 93.6389 89.8844 91.5562 89.3312C89.9941 88.9081 88.432 88.6478 86.8374 88.5176V103.813C90.5473 104.041 94.1271 104.984 97.5441 106.644V91.8044Z" fill="white"/>
<path fill-rule="evenodd" clip-rule="evenodd" d="M110.073 88.5176C108.478 88.6478 106.883 88.9081 105.354 89.3312C103.271 89.8844 101.286 90.7305 99.366 91.8044V106.644C102.783 104.984 106.363 104.041 110.073 103.813V88.5176Z" fill="white"/>
<path fill-rule="evenodd" clip-rule="evenodd" d="M111.863 105.57C107.404 105.57 103.141 106.676 99.366 108.662C99.0731 108.824 98.7477 108.987 98.4548 109.15C98.1619 108.987 97.8365 108.824 97.5436 108.662C93.736 106.676 89.5054 105.57 85.047 105.57V95.0911H83.2246V110.972H113.685V95.0586H111.863V105.57Z" fill="white"/>
<path fill-rule="evenodd" clip-rule="evenodd" d="M67.5391 65.1829V145.695H67.8319C101.807 145.695 129.338 117.74 129.338 83.2118V65.1504H67.5391V65.1829ZM115.508 112.793H113.685H83.2248H81.4024V93.2676H83.2248H85.0472V86.6288C89.8636 86.6288 94.4522 87.9306 98.455 90.2411C102.49 87.9306 107.046 86.6614 111.863 86.6614V93.2676H113.685H115.508V112.793Z" fill="white"/>
<path fill-rule="evenodd" clip-rule="evenodd" d="M67.5388 0H0.5V67.0388V75.5V83.9612C0.5 120.995 30.5047 151 67.5388 151C104.573 151 134.578 120.995 134.578 83.9612V75.5V67.0388V0H67.5388ZM129.338 67.592V75.4675V83.3429C129.338 117.773 101.677 145.695 67.5713 145.695C33.4662 145.695 5.80453 117.773 5.80453 83.3429V75.4675V67.592V5.23944H67.5713H129.338V67.592Z" fill="white"/>
<path fill-rule="evenodd" clip-rule="evenodd" d="M110.269 25.2225C110.138 24.5066 109.976 23.8232 109.748 23.1397C109.065 22.9119 108.381 22.7492 107.665 22.6191C106.591 22.4238 105.517 22.3262 104.443 22.3262C102.1 22.3262 99.8548 22.7818 97.707 23.6279C95.494 24.5391 93.4764 25.8734 91.7841 27.5656C90.0593 29.2904 88.7576 31.2755 87.8464 33.4885C86.9677 35.6363 86.5447 37.9143 86.5447 40.2249C86.5447 41.3313 86.6423 42.4053 86.8376 43.4466C86.9677 44.1626 87.1305 44.846 87.3583 45.5294C88.0417 45.7572 88.7251 45.9199 89.441 46.0501C90.5149 46.2454 91.5889 46.343 92.6628 46.343C95.0059 46.343 97.2514 45.8874 99.3992 45.0413C101.612 44.1301 103.63 42.8283 105.322 41.1035C107.047 39.3788 108.349 37.3936 109.26 35.1807C110.138 33.0329 110.561 30.7548 110.561 28.4443C110.561 27.3704 110.464 26.2639 110.269 25.2225ZM108.283 24.6042C108.479 25.4178 108.609 26.2639 108.707 27.11H106.201V26.6869H103.565V29.3229H106.201V28.8999H108.739C108.674 30.885 108.251 32.8376 107.47 34.6926H98.13V25.3852C98.846 25.0923 99.5945 24.832 100.343 24.6367V30.2667H99.9199V32.9027H102.556V30.2667H102.133V24.2788C104.248 24.0184 106.298 24.116 108.283 24.6042ZM94.2574 38.6628V27.7609C94.9408 27.2076 95.6242 26.7195 96.3727 26.2964V34.7251V36.5475H106.591C106.168 37.296 105.68 37.9794 105.127 38.6628H94.2574ZM92.435 38.6628H88.3996C88.4647 37.9469 88.5949 37.2635 88.7576 36.5475H92.435V38.6628ZM92.435 29.4857V34.7251H89.2783C89.9617 32.8376 91.0031 31.0477 92.435 29.4857ZM97.8046 43.7395V40.4852H95.9822V44.2602C93.6065 44.7484 91.1333 44.7158 88.7576 44.1626C88.4647 42.9585 88.302 41.7219 88.302 40.5178H103.402C101.742 41.9822 99.8223 43.0561 97.8046 43.7395Z" fill="white"/>
<path fill-rule="evenodd" clip-rule="evenodd" d="M65.0658 64.4361L66.0746 65.1846H7.17157C23.9638 52.4928 48.0132 52.2325 65.0658 64.4361ZM28.65 5.24023C20.4817 6.47687 12.5737 9.60101 5.77222 14.6452V5.24023H28.65ZM67.539 42.437V50.6379C49.5102 37.2952 23.7686 37.2952 5.77222 50.6379V42.437C23.4106 28.0204 49.9332 28.0204 67.539 42.437ZM67.539 30.2984V38.9223C49.5102 25.5797 23.7686 25.5797 5.77222 38.9223V30.2984C23.4106 15.8818 49.9332 15.8818 67.539 30.2984ZM67.539 18.1598V26.7838C49.5102 13.4411 23.7686 13.4411 5.77222 26.7838V18.1598C23.4106 3.74325 49.9332 3.74325 67.539 18.1598ZM67.539 54.1525V62.7764L67.1485 62.4836C49.1522 49.4338 23.6709 49.4989 5.77222 62.7764V54.1525C23.4106 39.7359 49.9332 39.7359 67.539 54.1525ZM67.539 5.24023V14.6452C60.7375 9.60101 52.8295 6.47687 44.6612 5.24023H67.539Z" fill="white"/>
</svg>
