<svg width="74" height="83" viewBox="0 0 74 83" fill="none" xmlns="http://www.w3.org/2000/svg">
<path d="M24.6521 57.5813C25.1326 57.5813 25.5776 57.7781 25.8979 58.1179C26.2004 58.4399 26.3784 58.8692 26.3606 59.3164C26.3606 59.7636 26.1826 60.1929 25.8623 60.5149C25.542 60.8548 25.0971 61.0337 24.6343 61.0337C24.1716 61.0337 23.7445 60.8548 23.4242 60.5328C22.8369 59.9425 22.7479 59.0302 23.2106 58.3326L23.3886 58.0643L23.6555 57.8854C23.9581 57.6886 24.2962 57.5813 24.6521 57.5813ZM15.2377 57.5813C15.5936 57.5813 15.914 57.6886 16.1987 57.8854L16.4657 58.0643L16.6436 58.3326C17.1063 59.0123 17.0174 59.9425 16.4301 60.5328C16.1097 60.8548 15.6826 61.0337 15.2199 61.0337C14.7572 61.0337 14.3301 60.8548 14.0097 60.5328C13.6894 60.2108 13.5114 59.7636 13.5114 59.3164C13.5114 58.8513 13.6894 58.422 14.0097 58.1C14.3479 57.7602 14.775 57.5813 15.2377 57.5813ZM26.1293 47.6714L19.9538 53.8785L13.7784 47.6714L13.0843 48.369L13.7784 49.0666L12.6038 50.2472L13.2978 50.9449L14.4724 49.7643L15.1843 50.4798L14.0097 51.6604L14.7038 52.358L15.8784 51.1774L19.2419 54.5582L16.7326 57.0804C16.2877 56.7763 15.7716 56.6154 15.2377 56.6154C14.5614 56.6154 13.8851 56.8837 13.369 57.4024C12.3368 58.4399 12.3368 60.1214 13.369 61.1589C13.8851 61.6776 14.5614 61.946 15.2377 61.946C15.914 61.946 16.5902 61.6955 17.1063 61.1589C18.014 60.2466 18.1208 58.8156 17.4267 57.7781L19.936 55.2559L22.4453 57.7781C21.7513 58.8156 21.8403 60.2466 22.7657 61.1589C23.2818 61.6776 23.9581 61.946 24.6343 61.946C25.3106 61.946 26.0047 61.6776 26.5208 61.1589C27.5174 60.1393 27.5352 58.4936 26.5564 57.4561C26.0403 56.9016 25.3284 56.6332 24.6343 56.6332C24.1182 56.6332 23.5843 56.7942 23.1394 57.0983L20.6301 54.5761L23.9937 51.1953L25.1682 52.3759L25.8801 51.6783L24.7055 50.4977L25.4174 49.7822L26.592 50.9628L27.286 50.2651L26.1115 49.0845L26.8055 48.3869L26.1293 47.6714Z" fill="white"/>
<path fill-rule="evenodd" clip-rule="evenodd" d="M53.2697 50.4622C52.2375 49.8719 51.1341 49.4068 49.9951 49.1027C49.1409 48.8702 48.2866 48.7271 47.4146 48.6555V57.0629C49.4434 57.1881 51.4011 57.7068 53.2697 58.6191V50.4622Z" fill="white"/>
<path fill-rule="evenodd" clip-rule="evenodd" d="M60.1211 48.6555C59.249 48.7271 58.377 48.8702 57.5405 49.1027C56.4016 49.4068 55.316 49.8719 54.2659 50.4622V58.6191C56.1346 57.7068 58.0922 57.1881 60.1211 57.0629V48.6555Z" fill="white"/>
<path fill-rule="evenodd" clip-rule="evenodd" d="M61.1 58.0283C58.6618 58.0283 56.3305 58.6365 54.266 59.7276C54.1059 59.8171 53.9279 59.9065 53.7677 59.996C53.6076 59.9065 53.4296 59.8171 53.2694 59.7276C51.1872 58.6365 48.8737 58.0283 46.4355 58.0283V52.2684H45.4389V60.9977H62.0966V52.2505H61.1V58.0283Z" fill="white"/>
<path fill-rule="evenodd" clip-rule="evenodd" d="M36.8611 80.0839H37.0212C55.601 80.0839 70.6569 64.7182 70.6569 45.7391V35.8113H36.8611V80.0839ZM63.0933 61.9992H44.4424V51.2664H46.4357V47.6173C49.0696 47.6173 51.5789 48.3328 53.7679 49.6029C55.9747 48.3328 58.4662 47.6352 61.1001 47.6352V51.2664H63.0933V61.9992Z" fill="white"/>
<path fill-rule="evenodd" clip-rule="evenodd" d="M0.199707 0V46.1509C0.199707 66.5073 16.6082 83 36.8608 83C57.1134 83 73.522 66.5073 73.522 46.1509V0H0.199707ZM70.6567 45.811C70.6567 64.7364 55.5295 80.0843 36.8786 80.0843C18.2277 80.0843 3.10056 64.7364 3.10056 45.811V2.87996H70.6567V45.811Z" fill="white"/>
<path fill-rule="evenodd" clip-rule="evenodd" d="M60.2283 13.8638C60.1571 13.4702 60.0681 13.0946 59.9436 12.7189C59.5698 12.5937 59.1961 12.5043 58.8046 12.4327C58.2173 12.3254 57.63 12.2717 57.0427 12.2717C55.7613 12.2717 54.5334 12.5222 53.3588 12.9872C52.1486 13.4881 51.0452 14.2215 50.1198 15.1517C49.1766 16.0997 48.4647 17.1909 47.9664 18.4073C47.4859 19.5879 47.2545 20.84 47.2545 22.1101C47.2545 22.7183 47.3079 23.3086 47.4147 23.881C47.4859 24.2745 47.5749 24.6502 47.6995 25.0258C48.0732 25.151 48.4469 25.2405 48.8384 25.312C49.4257 25.4194 50.013 25.473 50.6003 25.473C51.8817 25.473 53.1096 25.2226 54.2842 24.7575C55.4944 24.2566 56.5978 23.5411 57.5232 22.5931C58.4664 21.645 59.1783 20.5538 59.6766 19.3375C60.1571 18.1569 60.3885 16.9047 60.3885 15.6347C60.3885 15.0444 60.3351 14.4362 60.2283 13.8638ZM59.1427 13.5239C59.2495 13.9711 59.3207 14.4362 59.3741 14.9013H58.0037V14.6687H56.5622V16.1176H58.0037V15.8851H59.3918C59.3563 16.9763 59.1249 18.0495 58.6978 19.0691H53.5901V13.9532C53.9817 13.7922 54.391 13.6491 54.8003 13.5418V16.6364H54.569V18.0853H56.0105V16.6364H55.7791V13.345C56.9359 13.2019 58.0571 13.2556 59.1427 13.5239ZM51.4723 21.2515V15.259C51.8461 14.9549 52.2198 14.6866 52.6291 14.4541V20.0888H58.2173C57.9859 20.5002 57.719 20.8758 57.4164 21.2515H51.4723ZM50.4757 21.2515H48.2689C48.3045 20.8579 48.3757 20.4823 48.4647 20.0888H50.4757V21.2515ZM50.4757 16.2071V19.087H48.7495C49.1232 18.0495 49.6927 17.0657 50.4757 16.2071ZM53.4122 24.042V22.2532H52.4156V24.3282C51.1164 24.5965 49.7639 24.5786 48.4647 24.2745C48.3045 23.6127 48.2156 22.9329 48.2156 22.2711H56.4732C55.5656 23.076 54.5156 23.6663 53.4122 24.042Z" fill="white"/>
<path fill-rule="evenodd" clip-rule="evenodd" d="M35.5084 35.4187L36.0601 35.8301H3.84813C13.0312 28.8538 26.1829 28.7107 35.5084 35.4187ZM15.5939 2.88049C11.127 3.56023 6.80237 5.27748 3.08287 8.05011V2.88049H15.5939ZM36.8609 23.3264V27.8342C27.0016 20.5001 12.9244 20.5001 3.08287 27.8342V23.3264C12.7287 15.4021 27.2329 15.4021 36.8609 23.3264ZM36.8609 16.6542V21.3945C27.0016 14.0605 12.9244 14.0605 3.08287 21.3945V16.6542C12.7287 8.72985 27.2329 8.72985 36.8609 16.6542ZM36.8609 9.982V14.7223C27.0016 7.38825 12.9244 7.38825 3.08287 14.7223V9.982C12.7287 2.05765 27.2329 2.05765 36.8609 9.982ZM36.8609 29.7661V34.5064L36.6474 34.3454C26.8058 27.1723 12.871 27.2081 3.08287 34.5064V29.7661C12.7287 21.8417 27.2329 21.8417 36.8609 29.7661ZM36.8609 2.88049V8.05011C33.1414 5.27748 28.8168 3.56023 24.3499 2.88049H36.8609Z" fill="white"/>
</svg>
