<svg width="49" height="60" viewBox="0 0 49 60" fill="none" xmlns="http://www.w3.org/2000/svg">
<path d="M1.34448 48.306C1.34448 55.0375 6.41581 58.213 11.0902 58.213H38.0342C30.0943 56.1127 29.7334 48.306 29.7334 48.306C20.2704 48.306 10.8075 48.306 1.34448 48.306Z" fill="#5575FF"/>
<path d="M35.2615 20.8942C34.3839 20.8942 33.515 21.0642 32.7042 21.3945C31.8935 21.7248 31.1568 22.209 30.5363 22.8193C29.9158 23.4296 29.4236 24.1542 29.0878 24.9517C28.7519 25.7491 28.5791 26.6038 28.5791 27.467C28.5819 29.0419 29.1595 30.5635 30.2068 31.7547V44.0935L35.4778 40.0992L40.7487 44.0935V31.2156C41.5263 30.1151 41.9433 28.8071 41.9438 27.467C41.9438 26.6038 41.771 25.7491 41.4352 24.9517C41.0994 24.1542 40.6071 23.4296 39.9866 22.8193C39.3661 22.209 38.6294 21.7248 37.8187 21.3945C37.008 21.0642 36.139 20.8942 35.2615 20.8942Z" fill="#5575FF"/>
<path d="M10.4953 0.936401C7.34362 0.936401 4.77471 3.45586 4.77471 6.55586V48.0438C4.77471 48.8568 5.22252 49.1645 5.71853 49.1645H29.1818C29.4249 52.7681 31.7659 56.1559 33.5568 57.1864H11.065C6.17714 57.1864 2.27089 53.3424 2.27089 48.5347C2.25648 47.123 0.362793 47.1176 0.362793 48.5347C0.362793 54.3486 5.15422 59.0613 11.065 59.0613H42.9164C46.0681 59.0613 48.637 56.5345 48.637 53.4345V6.55586C48.637 3.45583 46.0681 0.936401 42.9164 0.936401H10.4953ZM10.4953 2.81132H42.9164C45.045 2.81132 46.7308 4.46216 46.7308 6.55586V53.4345C46.7308 55.5282 45.045 57.1864 42.9164 57.1864H38.8731C34.1227 57.1864 30.8184 51.9835 30.8776 48.2582C30.8957 47.7298 30.4658 47.2913 29.9282 47.2895H6.68097V6.55586C6.68097 4.46216 8.36669 2.81132 10.4953 2.81132ZM11.8245 11.5107C10.5819 11.6004 10.6778 13.4228 11.9232 13.3857H39.2436C40.5422 13.414 40.5422 11.4832 39.2436 11.5107H11.8245ZM35.1984 19.9262C30.9985 19.9262 27.5715 23.2898 27.5715 27.4208C27.5715 29.1575 28.1825 30.7556 29.1966 32.0295V44.0229C29.1998 44.7988 30.1051 45.2353 30.7306 44.7627L35.4162 41.2196L40.0943 44.7627C40.7198 45.2353 41.6251 44.7988 41.6282 44.0229V36.175C41.657 34.897 39.6931 34.897 39.722 36.175V42.1204L35.9933 39.2896C35.6507 39.0306 35.1741 39.0306 34.8316 39.2896L31.1029 42.1204V33.7361C32.288 34.483 33.6919 34.9225 35.1984 34.9225C39.3982 34.9225 42.8178 31.5518 42.8178 27.4208C42.8178 23.2898 39.3982 19.9262 35.1984 19.9262ZM11.9232 20.6385C10.6235 20.6101 10.6235 22.5422 11.9232 22.5135H13.3938C14.6935 22.5419 14.6935 20.6098 13.3938 20.6385H11.9232ZM16.9401 20.6385C15.6404 20.6101 15.6404 22.5422 16.9401 22.5135H22.9213C24.221 22.5419 24.221 20.6098 22.9213 20.6385H16.9401ZM35.1984 21.8012C38.368 21.8012 40.919 24.3031 40.919 27.4208C40.919 30.5385 38.368 33.0475 35.1984 33.0475C32.0816 33.0475 29.5208 30.6266 29.4777 27.4208C29.4778 24.3031 32.0287 21.8012 35.1984 21.8012ZM11.8282 29.0596C11.827 29.0602 11.8257 29.0608 11.8246 29.0614C10.5831 29.1518 10.6789 30.9725 11.9233 30.9364H17.9045C19.2042 30.9648 19.2042 29.0327 17.9045 29.0614C15.8826 29.0596 13.8429 29.0648 11.8283 29.0596H11.8282ZM21.352 29.0614C20.111 29.1475 20.1995 30.9671 21.4431 30.9364H22.9212C24.2209 30.9648 24.2209 29.0327 22.9212 29.0614C22.4029 29.0614 21.8627 29.0614 21.3519 29.0614H21.352ZM23.0256 37.5135C19.3043 37.5206 15.5459 37.5171 11.8245 37.5171C10.6325 37.6464 10.724 39.3792 11.9232 39.3866H22.9213C24.1909 39.455 24.2952 37.5818 23.0254 37.5134L23.0256 37.5135Z" fill="#00003A"/>
</svg>
