<svg width="60" height="60" viewBox="0 0 60 60" fill="none" xmlns="http://www.w3.org/2000/svg">
<path d="M5.17862 27.0894C2.27453 47.1602 26.2135 63.7695 43.92 50.6477C45.2881 49.8437 46.9792 51.0274 46.7267 52.594C41.8893 56.1925 36.0184 58.1104 29.9894 58.1221C14.4564 58.1221 1.86443 45.5301 1.86443 29.9971C1.86454 28.4009 2.00049 26.8076 2.27092 25.2344C3.72076 24.3843 5.3886 25.5194 5.17862 27.0894Z" fill="#5575FF"/>
<path d="M30.4619 0.936231C32.7952 0.974853 35.16 1.29673 37.5115 1.92684C38.5398 2.20251 38.1942 4.04771 37.0262 3.73958C22.9294 -0.0376533 8.38821 7.965 4.03984 21.8963C-0.308537 35.8277 7.09349 50.6883 20.8361 55.6006C34.5787 60.5128 49.7277 53.7142 55.1958 40.183C60.6638 26.6519 54.4945 11.2448 41.1974 5.23009C40.0547 4.71443 40.8292 3.00042 41.9719 3.51618C56.1676 9.9374 62.7728 26.4387 56.9352 40.8843C51.0977 55.3299 34.8775 62.6099 20.2062 57.3656C5.53486 52.1213 -2.39501 36.2106 2.24725 21.3378C6.16415 8.78888 17.862 0.726928 30.4619 0.936231Z" fill="#00003A"/>
<path d="M56.1295 12.3621C57.1165 12.3621 57.9111 13.1568 57.9111 14.1438V16.4801C57.9111 17.4671 57.1165 18.2618 56.1295 18.2618H54.6299V20.7063C54.6299 27.588 49.0897 33.1282 42.208 33.1282C35.3263 33.1282 29.7862 27.588 29.7862 20.7063C29.7862 27.588 24.2461 33.1282 17.3643 33.1282C10.4826 33.1282 4.94249 27.588 4.94249 20.7063V18.2618H3.84936C2.86237 18.2618 2.06775 17.4671 2.06775 16.4801V14.1438C2.06775 13.1568 2.86237 12.3621 3.84936 12.3621H56.1295Z" fill="#5575FF"/>
<path d="M35.1191 36.9881C35.1191 39.086 33.6072 41.023 31.3405 41.023H25.7972C24.5469 41.023 24.5469 39.1474 25.7972 39.1474H31.2852C32.6232 39.1474 33.2304 37.8988 33.2437 36.9882C33.2437 35.5886 35.1191 35.661 35.1191 36.9881Z" fill="#00003A"/>
<path d="M56.1274 11.4237C57.6176 11.4237 58.8472 12.6533 58.8472 14.1435V16.4826C58.8472 17.9728 57.6176 19.2024 56.1274 19.2024H55.5668V20.7041C55.5668 28.089 49.5951 34.0676 42.2103 34.0676C34.8254 34.0676 28.8468 28.089 28.8468 20.7041C28.8468 20.4554 28.9456 20.2169 29.1214 20.0411C29.2973 19.8652 29.5358 19.7664 29.7845 19.7664C30.0332 19.7664 30.2717 19.8652 30.4476 20.0411C30.6234 20.2169 30.7222 20.4554 30.7222 20.7041C30.7222 27.0826 35.8317 32.1922 42.2103 32.1922C48.5888 32.1922 53.6914 27.0826 53.6914 20.7041V18.2612C53.6918 18.138 53.7165 18.0162 53.7641 17.9026C53.8116 17.789 53.8811 17.6858 53.9685 17.5991C54.0559 17.5123 54.1595 17.4436 54.2734 17.3969C54.3874 17.3502 54.5094 17.3264 54.6326 17.3269H56.1274C56.6112 17.3269 56.9717 16.9664 56.9717 16.4826V14.1435C56.9717 13.6597 56.6112 13.2992 56.1274 13.2992H3.8499C3.36609 13.2992 3.0056 13.6597 3.0056 14.1435V16.4826C3.0056 16.9664 3.36609 17.3269 3.8499 17.3269H4.94334C5.19085 17.3278 5.42797 17.4264 5.603 17.6015C5.77802 17.7765 5.87673 18.0137 5.87761 18.2612V20.7041C5.87761 27.0826 10.9871 32.1922 17.3656 32.1922C21.3774 32.1922 24.8756 30.1639 26.9298 27.0779C27.0674 26.8705 27.2819 26.7263 27.5259 26.677C27.7698 26.6276 28.0234 26.6773 28.2308 26.8149C28.4383 26.9526 28.5825 27.167 28.6318 27.411C28.6811 27.655 28.6315 27.9086 28.4938 28.116C26.1034 31.707 22.0103 34.0676 17.3656 34.0676C9.98078 34.0676 4.00215 28.089 4.00215 20.7041V19.2024H3.8499C2.35972 19.2024 1.13014 17.9728 1.13014 16.4826V14.1435C1.13014 12.6533 2.35972 11.4237 3.8499 11.4237H56.1274Z" fill="#00003A"/>
</svg>
