<svg width="60" height="60" viewBox="0 0 60 60" fill="none" xmlns="http://www.w3.org/2000/svg">
<path d="M6.57281 35.7728C3.97185 35.7728 1.87793 37.8668 1.87793 40.4677V58.2166H15.1905V35.7728H6.57281ZM44.904 35.7728V58.2166H58.2165V40.4677C58.2165 37.8668 56.1226 35.7728 53.5216 35.7728H44.904Z" fill="#5575FF"/>
<path d="M30.0474 1.87793V12.1241H41.4196C42.9802 12.1241 44.2365 10.8678 44.2365 9.30721V4.69486C44.2365 3.13428 42.9802 1.87793 41.4196 1.87793H30.0474Z" fill="#5575FF"/>
<path d="M28.9692 43.4259C26.3724 43.4259 24.2817 45.5165 24.2817 48.1134V58.1238H35.7185V48.1134C35.7185 45.5165 33.6279 43.4259 31.031 43.4259H28.9692Z" fill="#5575FF"/>
<path d="M29.1046 1.87795C29.097 6.84431 29.1046 11.7932 29.1046 16.7457L17.6443 26.3115C15.3305 28.24 14.2515 30.5207 14.2515 33.1759V34.8338H6.57282C3.4679 34.8338 0.938965 37.3628 0.938965 40.4677V58.2165C0.939017 58.7351 1.35938 59.1555 1.87794 59.1555C20.6585 59.1519 39.4393 59.1592 58.2165 59.1592C58.7351 59.1571 59.1538 58.7351 59.1518 58.2165V40.4713C59.1518 37.3665 56.6302 34.8357 53.5253 34.8357H45.8429V33.1759C45.8429 30.0473 44.5137 27.9885 42.4502 26.3115L30.9825 16.7402V13.0631H41.4195C43.484 13.0631 45.1754 11.3718 45.1754 9.30724V4.69488C45.1754 2.63035 43.484 0.938977 41.4195 0.938977H33.6271C32.3573 0.921019 32.3573 2.83489 33.6271 2.81693H41.4195C42.4761 2.81693 43.2974 3.63824 43.2974 4.69488V9.30724C43.2974 10.3638 42.4761 11.1852 41.4195 11.1852H30.9825V1.87795C30.9825 0.49408 29.1046 0.470473 29.1046 1.87795ZM30.0472 18.4054L41.2214 27.731C42.9529 29.3001 43.965 30.5821 43.965 33.1759C43.9221 40.2705 43.965 47.3808 43.965 54.5193C43.947 55.7891 45.8609 55.7891 45.8429 54.5193V36.7154H53.5253C55.6223 36.7154 57.2739 38.3744 57.2739 40.4713V57.2812C50.4171 57.2823 43.5691 57.2776 36.7154 57.2776V48.1941C36.7154 45.0891 34.1847 42.5584 31.0797 42.5584H29.0147C25.9098 42.5584 23.379 45.0891 23.379 48.1941V57.2776H2.81692V40.4677C2.81692 38.3707 4.47581 36.7118 6.57282 36.7118H14.2515V54.6954C14.2336 55.9652 16.1474 55.9652 16.1295 54.6954C16.133 47.524 16.1295 40.3257 16.1295 33.1759C16.1295 30.5821 17.1416 29.3001 18.873 27.731C18.8745 27.7297 18.8753 27.7285 18.8767 27.7273L30.0472 18.4054ZM24.5381 29.1119C23.3155 29.1983 23.4027 31.0207 24.6279 30.9899H27.6154C28.8958 31.0186 28.8958 29.0832 27.6154 29.1119C26.5938 29.1119 25.5525 29.1119 24.5381 29.1119ZM32.3837 29.1119C31.1611 29.1983 31.2483 31.0207 32.4735 30.9899H35.461C36.7414 31.0186 36.7414 29.0832 35.461 29.1119C34.4381 29.1119 33.4006 29.1119 32.3837 29.1119ZM24.6279 36.035C23.3748 36.035 23.3748 37.9148 24.6279 37.9148H27.6154C28.8686 37.9148 28.8686 36.035 27.6154 36.035H24.6279ZM32.4735 36.035C31.2203 36.035 31.2203 37.9148 32.4735 37.9148H35.461C36.7142 37.9148 36.7142 36.035 35.461 36.035H32.4735ZM7.46228 41.8431C6.35752 41.8431 6.29687 43.723 7.55581 43.723H10.5433C11.8237 43.7517 11.8237 41.8163 10.5433 41.845C9.52069 41.8452 8.47728 41.8457 7.46228 41.8431H7.46228ZM49.7144 41.8431C49.7138 41.8437 49.7132 41.8444 49.7125 41.845C48.4895 41.9356 48.5838 43.7591 49.8097 43.723H52.7972C54.0776 43.7517 54.0776 41.8163 52.7972 41.845C51.7741 41.8452 50.7297 41.8457 49.7143 41.8431H49.7144ZM29.0147 44.4363H31.0797C33.1768 44.4363 34.8375 46.0971 34.8375 48.1941V57.2776H25.2588V48.1941C25.2588 46.0971 26.9177 44.4363 29.0147 44.4363ZM7.45862 48.7754C6.23446 48.865 6.32895 50.6906 7.55581 50.6534H10.5433C11.7685 50.6269 11.7685 48.8019 10.5433 48.7754C9.5197 48.7754 8.47431 48.7754 7.45862 48.7754ZM49.7126 48.7754C48.4884 48.865 48.5829 50.6906 49.8097 50.6534H52.7972C54.0225 50.6269 54.0225 48.8019 52.7972 48.7754C51.7736 48.7754 50.7282 48.7754 49.7126 48.7754Z" fill="#00003A"/>
</svg>
