<svg width="60" height="60" viewBox="0 0 60 60" fill="none" xmlns="http://www.w3.org/2000/svg">
<path d="M26.7729 1.87378C21.0871 1.87378 16.2344 6.55794 16.4073 12.2412V16.5909H22.968V12.2412C22.968 10.0774 24.6092 8.43443 26.7729 8.43443H33.2256C35.3893 8.43443 37.0323 10.0774 37.0323 12.2412V16.5909H43.593V12.2412C43.593 6.55531 38.9114 1.87378 33.2256 1.87378H26.7729Z" fill="#5575FF"/>
<path d="M6.57061 16.1202C3.96965 16.1202 1.87573 18.2141 1.87573 20.8151V30.038C1.87573 37.6705 8.01976 43.8164 15.6523 43.8164H24.998V41.9018C24.998 41.062 25.4166 40.3254 26.0544 39.8808V16.1202H6.57061ZM34.0357 16.1202V39.8808C34.6735 40.3254 35.092 41.062 35.092 41.9018V43.8164H44.4378C52.0703 43.8164 58.2143 37.6705 58.2143 30.038V20.8151C58.2143 18.2141 56.1204 16.1202 53.5194 16.1202H34.0357Z" fill="#5575FF"/>
<path d="M33.2764 0.940796C31.1228 0.940336 28.9691 0.940318 26.8155 0.942627C20.605 0.942627 15.3065 6.0476 15.4964 12.2892V15.1795H6.5688C3.46388 15.1795 0.933105 17.7084 0.933105 20.8133V53.5235C0.933105 56.6284 3.46388 59.1592 6.5688 59.1592H53.5231C56.628 59.1592 59.1496 56.6284 59.1496 53.5235V20.8134C59.1496 17.7084 56.628 15.1795 53.5231 15.1795H44.601V12.2599C44.601 6.04966 39.4867 0.940796 33.2764 0.940796ZM26.8155 2.81875H33.2764C38.4558 2.81875 42.7231 7.08051 42.7231 12.2599V15.1795H38.03V12.2617C38.03 9.61923 35.9189 7.51363 33.2764 7.51363H26.8155C24.173 7.51363 22.0674 9.61976 22.0674 12.2617C22.0674 13.514 23.9454 13.514 23.9454 12.2617C23.9454 10.5694 25.1237 9.39158 26.8155 9.39158H33.2764C34.9682 9.39158 36.1521 10.5699 36.1521 12.2617V15.1795H17.3744V12.2617C17.3745 12.251 17.3745 12.243 17.3744 12.2324C17.2179 7.08963 21.6364 2.81875 26.8155 2.81875ZM6.5688 17.0574H25.1172V39.448C24.4675 40.0691 24.0572 40.9373 24.0572 41.9V47.0643C24.0572 48.9338 25.5897 50.4663 27.4592 50.4663H32.6236C34.493 50.4663 36.0347 48.9338 36.0347 47.0643V41.9C36.0347 40.9388 35.6227 40.0707 34.9728 39.4498V17.0574H53.5231C55.6201 17.0574 57.2717 18.7163 57.2717 20.8134V30.0399C57.2717 37.1685 51.5644 42.8775 44.436 42.8775H39.1744C37.8951 42.8498 37.8951 44.783 39.1744 44.7554H44.436C49.9576 44.7554 54.754 41.721 57.2717 37.2308V53.5235C57.2717 55.6205 55.6201 57.2812 53.5231 57.2812H6.5688C4.47178 57.2812 2.81106 55.6205 2.81106 53.5235V37.2271C5.32822 41.7192 10.1256 44.7554 15.6486 44.7554H20.923C22.1483 44.729 22.1483 42.9039 20.923 42.8775H15.6486C8.52017 42.8775 2.81106 37.1685 2.81106 30.0399V20.8134C2.81106 18.7163 4.47178 17.0574 6.5688 17.0574ZM26.9952 17.0574H33.0949V38.5439C31.165 38.5439 28.9124 38.5439 26.9952 38.5439V17.0574ZM27.4592 40.3741H32.6236C33.4851 40.3741 34.1567 41.0384 34.1567 41.9V47.0643C34.1567 47.9259 33.4851 48.5957 32.6236 48.5957H27.4592C26.5976 48.5957 25.9352 47.9259 25.9352 47.0643V41.9C25.9352 41.0384 26.5976 40.3741 27.4592 40.3741Z" fill="#00003A"/>
</svg>
