<svg width="37" height="60" viewBox="0 0 37 60" fill="none" xmlns="http://www.w3.org/2000/svg">
<path d="M0.960938 1.87793L12.1351 21.4919C14.9596 21.4919 18.0404 21.4919 20.8775 21.4919L13.1401 1.87793H0.960938Z" fill="#5575FF"/>
<path d="M23.1777 48.6535C21.954 49.5437 20.1429 48.0673 18.6297 48.0683C17.1165 48.0693 15.3073 49.5481 14.0825 48.6595C12.8577 47.7708 13.7022 45.5921 13.2336 44.1532C12.7651 42.7144 10.7996 41.4507 11.2663 40.0112C11.7329 38.5718 14.066 38.7017 15.2896 37.8114C16.5132 36.9212 17.1077 34.6614 18.6209 34.6604C20.1341 34.6594 20.7316 36.9184 21.9563 37.8071C23.1811 38.6957 25.514 38.5628 25.9826 40.0016C26.4511 41.4405 24.4873 42.7067 24.0207 44.1462C23.554 45.5856 24.4013 47.7633 23.1777 48.6535Z" fill="#5575FF"/>
<path d="M22.8862 1.87378L14.494 23.3191C13.9768 24.6314 14.4276 26.6003 16.6382 26.6003H19.2235C20.2623 26.6003 21.2221 26.0807 21.8108 25.1062L35.0457 1.87378H22.8862Z" fill="#5575FF"/>
<path d="M0.865708 0.942627C0.189583 1.01112 -0.192143 1.75185 0.14497 2.34192L10.8772 21.182C10.0213 21.8724 9.45954 22.9151 9.45954 24.0924V27.9675C4.47829 31.0316 1.29592 36.3512 1.28751 42.2319C1.28812 51.5638 8.87549 59.1522 18.2074 59.1518C27.5394 59.1522 35.1267 51.5638 35.1273 42.2319C35.1242 37.3603 33.028 32.7929 29.477 29.6236C28.5435 28.7871 27.2891 30.1882 28.2226 31.0247C31.3787 33.8417 33.2467 37.8987 33.2494 42.2319C33.2488 50.5489 26.5245 57.2743 18.2074 57.2739C9.8904 57.2743 3.16601 50.5489 3.16547 42.2319C3.17326 36.7948 6.11702 31.789 10.8607 29.1321C11.156 28.9656 11.3374 28.6531 11.3375 28.3142V24.0924C11.3375 23.0358 12.1607 22.2145 13.2173 22.2145H13.9747L13.6611 23.0159C12.7447 25.5393 14.3339 27.5842 16.6816 27.5842H19.2748C20.8867 27.5842 22.1225 26.5849 22.6786 25.6146L24.3768 22.6344C24.8013 22.974 25.0755 23.4907 25.0755 24.0924V28.2995C25.0755 29.5517 26.9553 29.5517 26.9553 28.2995V24.0924C26.9553 22.807 26.3076 21.6653 25.3158 20.9876L35.9379 2.34742C36.2918 1.72126 35.8393 0.945983 35.12 0.946295H23.1224C22.4435 0.946295 22.1888 1.19483 21.9872 1.75506L14.7046 20.3494C14.0199 20.2925 13.2414 20.338 12.5901 20.4007L2.58411 2.82058H12.502C13.542 5.47799 14.5816 8.14077 15.6216 10.7982C16.0496 12.0284 17.8931 11.3049 17.3693 10.1123C16.2508 7.25401 15.1317 4.39693 14.0132 1.53866C13.8723 1.17937 13.5262 0.942982 13.1403 0.942627H0.865708ZM23.579 2.82058H33.4988L21.0629 24.6609C20.6305 25.3768 20.002 25.7081 19.2748 25.7081H16.6816C15.3781 25.7081 15.0753 24.7007 15.407 23.6981L23.579 2.82058ZM15.6803 35.5839C14.2684 37.6017 14.5236 37.3172 12.2893 38.0505C9.78136 38.7836 9.1025 40.7886 10.7176 42.8811C12.2819 44.9322 12.0193 44.6902 12.0161 46.8663C11.9805 49.8161 13.91 50.6689 16.1241 49.8519C18.7148 48.9238 18.2383 49.2529 20.3183 49.85C23.1327 50.7871 24.4972 49.2334 24.4226 46.8626C24.4226 43.9215 24.4937 44.6706 25.7192 42.8756C27.4572 40.6059 26.429 38.685 24.1476 38.0468C21.7564 37.3108 21.9439 37.2553 20.7529 35.5857C19.1758 33.3021 17.1294 33.4916 15.6803 35.5838V35.5839ZM19.2363 36.6898C20.8942 39.2358 21.3937 39.1543 23.568 39.8368C24.9283 40.2612 25.0195 40.6905 24.1989 41.7734C22.465 43.9241 22.4654 44.4879 22.5429 46.8644C22.5657 48.2923 22.2001 48.4839 20.8941 48.0638C18.4697 47.2276 18.1367 47.0745 15.5445 48.0657C14.1767 48.4758 13.8903 48.3177 13.8903 46.8681C14.0884 43.9442 13.4881 43.3803 12.2398 41.7753C11.3842 40.6326 11.5638 40.2529 12.8688 39.8368C15.3848 39.1609 15.8076 38.7774 17.1988 36.6898C18.1646 35.2826 18.5758 35.8384 19.2363 36.6898V36.6898Z" fill="#00003A"/>
</svg>
