<svg width="57" height="58" viewBox="0 0 57 58" fill="none" xmlns="http://www.w3.org/2000/svg">
<path d="M25.1361 1.8125C19.614 1.8125 14.9012 6.34052 15.069 11.8343V16.0391H21.4407V11.8343C21.4407 9.7427 23.0347 8.15447 25.1361 8.15447H31.4028C33.5042 8.15447 35.0999 9.7427 35.0999 11.8343V16.0391H41.4716V11.8343C41.4716 6.33798 36.9249 1.8125 31.4028 1.8125H25.1361Z" fill="#5575FF"/>
<path d="M5.5157 15.582C2.98965 15.582 0.956055 17.6061 0.956055 20.1204V29.0359C0.956055 36.414 6.9231 42.355 14.3358 42.355H23.4123V40.5042C23.4123 39.6924 23.8188 38.9803 24.4382 38.5505V15.582H5.5157ZM32.1896 15.582V38.5505C32.809 38.9803 33.2155 39.6924 33.2155 40.5042V42.355H42.292C49.7047 42.355 55.6717 36.414 55.6717 29.0359V20.1204C55.6717 17.6061 53.6381 15.582 51.1121 15.582H32.1896Z" fill="#5575FF"/>
<path d="M31.4522 0.910393C29.3606 0.909948 27.2689 0.90993 25.1773 0.912163C19.1457 0.912163 13.9999 5.84697 14.1843 11.8805V14.6745H5.51388C2.4984 14.6745 0.0405273 17.1191 0.0405273 20.1205V51.7403C0.0405273 54.7417 2.4984 57.1881 5.51388 57.1881H51.1156C54.1311 57.1881 56.5801 54.7417 56.5801 51.7403V20.1205C56.5801 17.1191 54.1311 14.6745 51.1156 14.6745H42.4505V11.8522C42.4505 5.84897 37.4835 0.910393 31.4522 0.910393ZM25.1773 2.72575H31.4522C36.4824 2.72575 40.6267 6.84545 40.6267 11.8522V14.6745H36.0688V11.8539C36.0688 9.29955 34.0185 7.26413 31.4522 7.26413H25.1773C22.611 7.26413 20.566 9.30006 20.566 11.8539C20.566 13.0644 22.3899 13.0644 22.3899 11.8539C22.3899 10.2181 23.5343 9.07949 25.1773 9.07949H31.4522C33.0952 9.07949 34.245 10.2186 34.245 11.8539V14.6745H16.0082V11.8539C16.0083 11.8436 16.0083 11.8359 16.0082 11.8256C15.8562 6.85426 20.1474 2.72575 25.1773 2.72575ZM5.51388 16.4898H23.528V38.134C22.8969 38.7344 22.4985 39.5737 22.4985 40.5043V45.4965C22.4985 47.3037 23.9869 48.785 25.8025 48.785H30.8181C32.6337 48.785 34.131 47.3037 34.131 45.4965V40.5043C34.131 39.5751 33.7309 38.736 33.0997 38.1358V16.4898H51.1156C53.1522 16.4898 54.7562 18.0934 54.7562 20.1205V29.0395C54.7562 35.9305 49.2133 41.4492 42.2902 41.4492H37.1802C35.9378 41.4225 35.9378 43.2912 37.1802 43.2645H42.2902C47.6528 43.2645 52.3111 40.3312 54.7562 35.9907V51.7403C54.7562 53.7674 53.1522 55.3728 51.1156 55.3728H5.51388C3.47727 55.3728 1.86438 53.7674 1.86438 51.7403V35.9872C4.30903 40.3295 8.9682 43.2645 14.3322 43.2645H19.4546C20.6446 43.2389 20.6446 41.4747 19.4546 41.4492H14.3322C7.40904 41.4492 1.86438 35.9305 1.86438 29.0395V20.1205C1.86438 18.0934 3.47727 16.4898 5.51388 16.4898ZM25.3519 16.4898H31.2758V37.26C29.4015 37.26 27.2138 37.26 25.3519 37.26V16.4898ZM25.8025 39.0293H30.8181C31.6548 39.0293 32.3071 39.6714 32.3071 40.5043V45.4965C32.3071 46.3293 31.6548 46.9768 30.8181 46.9768H25.8025C24.9658 46.9768 24.3224 46.3293 24.3224 45.4965V40.5043C24.3224 39.6714 24.9658 39.0293 25.8025 39.0293Z" fill="#00003A"/>
</svg>
