<svg width="59" height="58" viewBox="0 0 59 58" fill="none" xmlns="http://www.w3.org/2000/svg">
<path d="M57.0832 20.5335C57.0832 22.0344 56.7861 23.5206 56.2091 24.9073C55.632 26.294 54.7862 27.554 53.7199 28.6153C52.6536 29.6767 51.3877 30.5185 49.9945 31.0929C48.6013 31.6673 47.1081 31.963 45.6002 31.963C44.0922 31.963 42.599 31.6673 41.2058 31.0929C39.8126 30.5185 38.5468 29.6767 37.4805 28.6153C36.4142 27.554 35.5683 26.294 34.9913 24.9073C34.4142 23.5206 34.1172 22.0344 34.1172 20.5335C34.1172 17.5022 35.327 14.5951 37.4805 12.4516C39.634 10.3082 42.5547 9.104 45.6002 9.104C48.6457 9.104 51.5664 10.3082 53.7199 12.4516C55.8733 14.5951 57.0832 17.5022 57.0832 20.5335Z" fill="#5575FF"/>
<path d="M38.8386 20.4154C37.9138 21.6009 36.7633 22.5934 35.4531 23.3364C34.1428 24.0793 32.6983 24.5581 31.2021 24.7454C29.706 24.9327 28.1874 24.8249 26.7331 24.4281C25.2788 24.0312 23.9172 23.3531 22.7262 22.4325C21.5352 21.512 20.538 20.3669 19.7915 19.0627C19.0451 17.7586 18.5641 16.3208 18.3759 14.8316C18.1877 13.3424 18.2961 11.8309 18.6948 10.3834C19.0935 8.93588 19.7747 7.58069 20.6996 6.39521C22.5675 4.00105 25.3145 2.4435 28.3361 2.06522C31.3578 1.68694 34.4067 2.51893 36.812 4.37812C39.2174 6.23732 40.7823 8.97145 41.1623 11.979C41.5424 14.9866 40.7065 18.0213 38.8386 20.4154Z" fill="#5575FF"/>
<path d="M4.76464 28.0247H11.5374C12.8175 28.0247 13.848 29.0503 13.848 30.3244V48.4064C13.848 49.6805 12.8175 50.7061 11.5374 50.7061H4.76464C3.4846 50.7061 2.4541 49.6805 2.4541 48.4064V30.3244C2.4541 29.0503 3.4846 28.0247 4.76464 28.0247Z" fill="#5575FF"/>
<path d="M11.5509 27.1594L4.77195 27.1612C3.00047 27.1612 1.54102 28.6139 1.54102 30.3771V48.481C1.54102 50.2443 3.00045 51.6969 4.77195 51.6969H11.5509C13.3223 51.6969 14.7836 50.2443 14.7836 48.481V33.07C16.76 32.2342 18.8751 31.0862 20.793 30.549C21.7276 30.2392 22.8615 30.3417 23.5057 30.5348L32.5163 33.5185C37.0158 35.1017 35.2379 41.0966 31.168 40.9589C29.8144 41.0334 30.0782 42.9103 31.3229 42.7672C33.1561 42.8169 36.5757 41.1987 36.8907 38.3972L51.4958 36.4241C54.0227 36.0009 55.2673 36.7607 55.9521 38.1366C56.5928 39.5055 56.3822 41.3097 54.5005 42.7158L35.8879 54.5812C34.6177 55.3678 32.41 55.6132 30.8937 54.5546L18.4776 45.742C17.4818 45.0065 16.3958 46.5242 17.4196 47.2205L29.9194 56.0934C31.7197 57.2384 34.4103 57.5649 36.8604 56.1165L55.5282 44.2156C57.8409 42.7187 58.4918 39.4072 57.605 37.369C56.6169 35.2578 54.196 34.0497 51.1823 34.6371L36.8978 36.5677C36.65 34.4335 35.272 32.5187 33.0934 31.7971C30.0391 30.7872 26.9263 29.7528 23.8886 28.7514C22.6037 28.3512 21.4172 28.4275 20.1233 28.8347C18.1158 29.5191 16.6899 30.2102 14.7836 31.0738V30.3753C14.7836 28.6121 13.3223 27.1594 11.5509 27.1594V27.1594ZM4.77195 28.9766H11.5509C12.3435 28.9766 12.9579 29.5881 12.9579 30.3771V48.481C12.9579 49.2699 12.3435 49.8815 11.5509 49.8815H4.77195C3.97933 49.8815 3.36487 49.2699 3.36487 48.481V30.3771C3.36487 29.5881 3.97932 28.9766 4.77195 28.9766Z" fill="#00003A"/>
<path d="M29.7683 1.06616C22.9344 1.06616 17.3753 6.6011 17.3753 13.4032C17.3478 14.6386 19.2238 14.6386 19.1963 13.4032C19.1963 7.58067 23.9185 2.87869 29.7683 2.87869C35.6181 2.87869 40.3404 7.58067 40.3404 13.4032C40.3404 19.2257 35.6182 23.926 29.7683 23.926C26.2788 23.926 23.1931 22.251 21.2662 19.6637C20.9238 19.2038 20.6237 18.7179 20.3593 18.2052C19.8368 17.0457 18.1024 17.9268 18.7393 19.0283C19.0494 19.6296 19.4069 20.203 19.808 20.7417C22.0654 23.7729 25.6917 25.7385 29.7683 25.7385C36.6023 25.7385 42.1632 20.2053 42.1632 13.4032C42.1632 12.4771 42.0508 11.5775 41.8555 10.7092C43.0192 10.2671 44.2749 10.0101 45.5971 10.0101C51.4469 10.0101 56.1691 14.7121 56.1691 20.5346C56.1691 26.3572 51.4469 31.0573 45.5971 31.0573C42.1075 31.0573 39.0288 29.3826 37.1021 26.7952C37.0226 26.6883 36.9407 26.5769 36.8656 26.4677C36.2073 25.3432 34.5506 26.4745 35.3682 27.4907C35.4568 27.6195 35.5437 27.7483 35.6368 27.8731C37.8941 30.9044 41.5204 32.8699 45.5971 32.8699C52.431 32.8699 57.9901 27.3368 57.9901 20.5346C57.9901 13.7326 52.431 8.19753 45.5971 8.19753C44.0923 8.19753 42.7731 8.44214 41.4394 8.93571C39.4017 3.591 34.4725 1.06616 29.7683 1.06616Z" fill="#00003A"/>
<path d="M45.4515 15.1295V15.4958C41.8905 16.5657 42.7788 21.8184 46.3265 21.8184C48.3036 21.8184 48.0456 24.6928 46.4331 24.6928C45.6667 24.6928 45.1354 24.3332 44.9411 23.6113C44.6404 22.4205 42.8436 22.8992 43.1806 24.0804C43.4851 25.212 44.3776 26.0422 45.4515 26.3442V26.5019C45.424 27.7373 47.3001 27.7373 47.2725 26.5019V26.323C50.8576 24.9208 49.6219 20.0058 46.3993 20.0058C44.3856 20.0058 44.6489 17.1049 46.282 17.1049C47.1767 17.1049 47.6061 17.5496 47.7847 18.2129C48.0803 19.4186 49.9009 18.9281 49.5452 17.7385C49.2406 16.6066 48.3467 15.7765 47.2725 15.4746V15.1295C47.2725 13.7476 45.4515 13.8183 45.4515 15.1295Z" fill="#00003A"/>
<path d="M28.8548 7.74109V8.10747C25.2938 9.17736 26.1821 14.43 29.7298 14.43C31.7069 14.43 31.4489 17.3045 29.8365 17.3045C29.0701 17.3045 28.5387 16.9449 28.3444 16.2231C28.0437 15.0322 26.2469 15.5109 26.5839 16.6921C26.8884 17.8237 27.7809 18.6539 28.8548 18.956V19.1135C28.8273 20.3489 30.7034 20.3489 30.6758 19.1135V18.9348C34.2609 17.5325 33.0252 12.6176 29.8027 12.6176C27.7889 12.6176 28.0522 9.71648 29.6853 9.71648C30.58 9.71648 31.0094 10.1612 31.188 10.8245C31.4836 12.0302 33.3042 11.5397 32.9485 10.3501C32.644 9.21827 31.75 8.38811 30.6758 8.08625V7.74109C30.6758 6.43031 28.8548 6.5072 28.8548 7.74109Z" fill="#00003A"/>
</svg>
