<svg width="56" height="58" viewBox="0 0 56 58" fill="none" xmlns="http://www.w3.org/2000/svg">
<path d="M51.0177 18.948C51.0177 20.449 50.7207 21.9352 50.1436 23.3219C49.5666 24.7086 48.7207 25.9686 47.6544 27.0299C46.5881 28.0912 45.3223 28.9331 43.9291 29.5075C42.5359 30.0819 41.0427 30.3775 39.5347 30.3775C36.4892 30.3775 33.5685 29.1733 31.415 27.0299C29.2616 24.8864 28.0518 21.9793 28.0518 18.948C28.0518 15.9168 29.2616 13.0096 31.415 10.8662C33.5685 8.72276 36.4893 7.51856 39.5347 7.51855C42.5802 7.51855 45.5009 8.72276 47.6544 10.8662C49.8079 13.0096 51.0177 15.9168 51.0177 18.948Z" fill="#5575FF"/>
<path d="M29.4259 13.2376C29.4259 14.7385 29.1289 16.2247 28.5518 17.6114C27.9748 18.9981 27.1289 20.2581 26.0626 21.3194C24.9963 22.3808 23.7305 23.2226 22.3373 23.797C20.9441 24.3714 19.4509 24.667 17.9429 24.667C14.8974 24.667 11.9767 23.4629 9.82323 21.3194C7.66976 19.176 6.45996 16.2689 6.45996 13.2376C6.45997 10.2063 7.66978 7.29918 9.82325 5.15574C11.9767 3.01231 14.8975 1.80811 17.9429 1.80811C20.9884 1.8081 23.9091 3.01231 26.0626 5.15574C28.2161 7.29918 29.4259 10.2063 29.4259 13.2376Z" fill="#5575FF"/>
<path d="M18.4087 44.7134C17.4544 45.6633 15.7681 45.8068 13.7209 45.1123C11.6736 44.4179 9.43304 42.9425 7.49209 41.0106C5.55113 39.0787 4.06878 36.8485 3.37111 34.8108C2.67344 32.7731 2.81763 31.0947 3.77193 30.1449C4.72623 29.195 6.41246 29.0515 8.45972 29.7459C10.507 30.4404 12.7475 31.9158 14.6885 33.8477C16.6295 35.7797 18.1118 38.0097 18.8095 40.0475C19.5071 42.0852 19.363 43.7636 18.4087 44.7134Z" fill="#5575FF"/>
<path d="M37.1626 49.1307C38.1169 50.0806 39.8032 50.2241 41.8504 49.5297C43.8977 48.8352 46.1382 47.3598 48.0792 45.4279C50.0202 43.4959 51.5025 41.2659 52.2002 39.2281C52.8978 37.1904 52.7537 35.512 51.7994 34.5622C50.8451 33.6123 49.1588 33.4688 47.1116 34.1633C45.0643 34.8577 42.8237 36.3331 40.8828 38.265C38.9418 40.1969 37.4595 42.4271 36.7618 44.4648C36.0641 46.5025 36.2083 48.1809 37.1626 49.1307Z" fill="#5575FF"/>
<path d="M39.53 12.3126C39.0747 12.3298 38.6195 12.6691 38.6195 13.2826V13.6489C35.0584 14.7189 35.9468 19.9715 39.4944 19.9715C41.4715 19.9715 41.2136 22.846 39.6011 22.846C38.8347 22.846 38.3034 22.4864 38.1091 21.7646C37.8082 20.5737 36.0116 21.0524 36.3486 22.2336C36.6532 23.3652 37.5456 24.1954 38.6195 24.4973V24.655C38.5919 25.8904 40.468 25.8904 40.4404 24.655V24.4761C44.0255 23.0739 42.7899 18.1589 39.5673 18.1589C37.5535 18.1589 37.8168 15.2578 39.4499 15.2578C40.3446 15.2578 40.774 15.7027 40.9526 16.366C41.2484 17.5717 43.0688 17.0812 42.7131 15.8916C42.4084 14.7598 41.5146 13.9296 40.4404 13.6277V13.2826C40.4404 12.6029 39.9852 12.2961 39.53 12.3126Z" fill="#00003A"/>
<path d="M17.9381 6.60195C17.4829 6.61908 17.0277 6.95842 17.0277 7.57188V7.93835C13.4666 9.00828 14.355 14.2609 17.9026 14.2609C19.8797 14.2609 19.6217 17.1353 18.0093 17.1353C17.2429 17.1353 16.7116 16.7757 16.5173 16.0539C16.2164 14.863 14.4198 15.3417 14.7568 16.5229C15.0614 17.6545 15.9538 18.4848 17.0277 18.7868V18.9443C17.0001 20.1798 18.8762 20.1798 18.8486 18.9443V18.7655C22.4337 17.3633 21.1981 12.4483 17.9755 12.4483C15.9617 12.4483 16.225 9.54726 17.8581 9.54726C18.7528 9.54726 19.1822 9.99198 19.3608 10.6553C19.6566 11.861 21.477 11.3705 21.1213 10.1809C20.8166 9.04909 19.9228 8.21889 18.8486 7.91703V7.57188C18.8486 6.89218 18.3934 6.58538 17.9381 6.60195Z" fill="#00003A"/>
<path d="M17.9742 0.904053C11.1295 0.904053 5.55984 6.44597 5.55983 13.2587C5.55982 20.0716 11.1295 25.6152 17.9742 25.6152C19.3612 25.6152 20.6906 25.3771 21.9371 24.9575C22.7916 28.1743 23.6221 32.5736 23.6221 37.8972V55.3718H18.1558V46.2241C21.656 44.479 19.7844 39.3783 18.1238 36.7945C18.0474 33.4392 17.658 30.5356 17.1655 28.2283C16.7927 26.8432 15.068 27.4474 15.3809 28.6095C15.7218 30.2064 16.0071 32.1179 16.1717 34.2665C13.5902 31.3225 6.43435 26.6314 3.13574 29.698C-0.184246 33.3969 4.00785 38.9833 6.86361 41.8683C9.24406 44.2755 12.7429 46.764 16.3302 46.6637V56.2759C16.3283 56.78 16.7393 57.1891 17.2457 57.1871H24.5304C25.0369 57.1891 25.4479 56.78 25.4459 56.2759V37.8972C25.4459 32.2681 24.5504 27.5901 23.6434 24.2377C25.0883 23.4954 26.3677 22.4822 27.414 21.2612C28.3966 26.4801 32.6803 30.5437 38.0206 31.2244C37.7396 33.1893 37.5432 35.4066 37.5432 37.8972V41.2265C35.53 44.1793 34.206 48.978 37.5432 50.6632V55.3718H32.077V37.8972C32.077 36.0826 32.17 34.3735 32.3317 32.7773C32.3317 31.3468 30.6592 31.4909 30.515 32.5894C30.3476 34.2423 30.2514 36.0182 30.2514 37.8972V56.2759C30.2494 56.7773 30.6577 57.1853 31.1615 57.1871H38.4516C38.9554 57.1853 39.3619 56.7773 39.36 56.2759V51.0887C43.043 50.9576 46.5826 48.478 48.8087 46.295C51.5554 43.438 55.5754 37.1476 52.5366 34.1229C48.933 30.8858 42.405 35.5617 39.36 38.8528V37.8972C39.36 35.4325 39.5624 33.2504 39.8462 31.3236C46.5775 31.1926 52.0094 25.7122 52.0094 18.9814C52.1116 17.6769 50.0886 17.6769 50.1909 18.9814C50.1909 24.8131 45.4612 29.5207 39.6022 29.5207C33.7432 29.5207 29.0135 24.8131 29.0135 18.9814C29.7667 17.4682 30.269 15.421 30.3565 13.842C32.1653 10.6191 35.6211 8.44203 39.6022 8.44203C43.8015 8.44203 47.4121 10.8623 49.1276 14.3774C49.6464 15.4976 51.3301 14.6869 50.7698 13.5867C48.7574 9.46338 44.5079 6.6249 39.6022 6.6249C35.8229 6.6249 32.4454 8.32484 30.1677 10.986C29.0916 5.25625 24.0381 0.904053 17.9742 0.904053ZM17.9742 2.71941C23.8332 2.71941 28.5629 7.42701 28.5629 13.2587C28.5629 19.0905 23.8332 23.7981 17.9742 23.7981C12.1151 23.7981 7.38368 19.0905 7.38369 13.2587C7.3837 7.42705 12.1152 2.71941 17.9742 2.71941ZM14.07 34.6955C16.0084 36.6249 17.368 38.7548 17.9831 40.5511C19.1787 44.1594 17.2521 45.5224 14.0415 44.4743C12.2367 43.8621 10.0915 42.5141 8.15313 40.5848C6.47369 38.651 2.04779 33.517 4.42527 30.9815C6.41823 28.9978 12.0251 32.6908 14.07 34.6955ZM51.2453 35.4064C53.2447 37.3965 49.7244 42.7808 47.5192 45.0097C45.8309 46.6544 40.4242 51.0847 37.8745 48.7149C35.8836 46.3336 39.3997 41.3468 41.6024 39.1204C43.4768 37.089 48.9779 33.1496 51.2453 35.4064Z" fill="#00003A"/>
</svg>
