<svg width="57" height="58" viewBox="0 0 57 58" fill="none" xmlns="http://www.w3.org/2000/svg">
<path d="M28.7715 1.80762C27.4509 1.81789 26.1718 1.89223 24.8663 2.09089C18.9654 10.5376 23.5518 21.1808 32.842 23.1541C32.5271 27.8256 35.6107 31.9405 40.4941 31.9405C47.5788 31.9405 50.7775 23.4916 45.8611 18.6989C47.7474 16.4657 48.862 13.6513 49.0087 10.7374C43.8397 5.04472 36.4805 1.81943 28.7715 1.80762Z" fill="#5575FF"/>
<path d="M1.83378 24.5328C1.57672 26.0067 1.46743 27.4992 1.45703 28.9951C1.45758 38.9481 6.92223 48.1053 15.7031 52.8673C30.8276 39.7624 16.2809 20.1668 1.83378 24.5328Z" fill="#5575FF"/>
<path d="M38.3317 45.6474C38.3317 46.9092 37.828 48.1194 36.9316 49.0116C36.0352 49.9039 34.8193 50.4052 33.5516 50.4052C32.2838 50.4052 31.068 49.9039 30.1715 49.0116C29.2751 48.1194 28.7715 46.9092 28.7715 45.6474C28.7715 44.3855 29.2751 43.1754 30.1715 42.2831C31.068 41.3909 32.2838 40.8896 33.5516 40.8896C34.8193 40.8896 36.0352 41.3909 36.9316 42.2831C37.828 43.1754 38.3317 44.3855 38.3317 45.6474Z" fill="#5575FF"/>
<path d="M28.7718 0.905029C13.1942 0.905029 0.542955 13.4902 0.542969 28.9952C0.542976 44.5003 13.1942 57.0926 28.7718 57.0926C44.3495 57.0926 56.9936 44.5003 56.9936 28.9952C56.9936 13.4902 44.3495 0.905029 28.7718 0.905029ZM28.7718 2.71756C43.3654 2.71756 55.1726 14.4698 55.1726 28.9952C55.1726 43.5207 43.3653 55.28 28.7718 55.28C14.1784 55.28 2.36397 43.5207 2.36395 28.9952C2.36395 27.7341 2.45852 26.4952 2.63069 25.2818C11.9616 23.2573 21.1464 30.1792 21.1464 40.0968C21.1433 43.5847 19.9358 46.9224 17.7872 49.5858C17.0209 50.5294 18.4489 51.6697 19.2081 50.7205C21.6133 47.7388 22.9638 44 22.9674 40.0968C22.9674 29.0979 12.9519 21.5669 2.97746 23.3666C5.1581 13.409 13.0002 5.5747 22.987 3.35644C18.6006 11.7891 22.9791 21.1577 31.8839 23.7347C31.4891 29.1271 36.0913 32.8486 40.4944 32.8486C47.6353 32.8486 52.0069 24.5986 46.9213 18.6654C47.7688 17.5517 48.5364 16.3764 49.025 15.0758C49.4518 13.9424 47.7446 13.307 47.3178 14.4403C46.8171 15.7733 46.0902 17.0222 45.1643 18.1184C44.8565 18.4834 44.8853 19.0234 45.2301 19.3539C49.9682 24.2737 46.0338 31.0361 40.4944 31.0361C35.915 31.0361 33.1078 26.8825 33.7422 23.2923C33.8156 22.8165 33.5024 22.3662 33.0291 22.2674C24.2078 20.2448 20.1793 10.5274 25.3859 2.93874C26.4955 2.79762 27.6234 2.71745 28.7718 2.71745L28.7718 2.71756ZM33.5502 39.9871C30.4181 39.9871 27.8578 42.5284 27.8578 45.6458C27.8578 48.7633 30.4181 51.3116 33.5502 51.3116C36.6822 51.3116 39.2443 48.7633 39.2443 45.6458C39.2443 42.5284 36.6822 39.9871 33.5502 39.9871ZM33.5502 41.7995C35.6981 41.7995 37.4233 43.508 37.4233 45.6458C37.4233 47.7837 35.6981 49.4992 33.5502 49.4992C31.4023 49.4992 29.6788 47.7837 29.6788 45.6458C29.6788 43.508 31.4023 41.7995 33.5502 41.7995Z" fill="#00003A"/>
</svg>
