<svg width="58" height="40" viewBox="0 0 58 40" fill="none" xmlns="http://www.w3.org/2000/svg">
<path d="M3.76464 6.54761H10.5375C11.8175 6.54761 12.848 7.57327 12.848 8.84734V26.9293C12.848 28.2034 11.8175 29.2292 10.5375 29.2292H3.76464C2.4846 29.2292 1.4541 28.2034 1.4541 26.9293V8.84734C1.4541 7.57327 2.4846 6.54761 3.76464 6.54761Z" fill="#5575FF"/>
<path d="M53.7728 6.54761H47C45.72 6.54761 44.6895 7.57327 44.6895 8.84734V26.9293C44.6895 28.2034 45.72 29.2292 47 29.2292H53.7728C55.0528 29.2292 56.0833 28.2034 56.0833 26.9293V8.84734C56.0833 7.57327 55.0528 6.54761 53.7728 6.54761Z" fill="#5575FF"/>
<path d="M24.3117 1.4455L13.5306 7.64323C13.0399 6.4864 11.884 5.66655 10.5509 5.66655H3.77195C2.00045 5.66655 0.541016 7.11211 0.541016 8.87533V26.9863C0.541016 28.7495 2.00045 30.1969 3.77195 30.1969H10.5509C12.3223 30.1969 13.7836 28.7495 13.7836 26.9863V9.59155L25.2201 3.01975C27.8411 1.70707 29.4157 2.8211 30.3639 4.38658C30.927 5.57659 32.6916 4.56326 31.9384 3.48245C30.1944 0.475784 27.1531 -0.115245 24.3117 1.4455ZM35.9548 4.46459C35.0318 4.44051 33.9948 4.72674 32.7506 5.4219C29.7642 7.12842 26.7079 8.90114 24.0428 10.4301C21.3756 11.9628 20.4566 15.367 21.9963 18.0212C23.5359 20.6756 26.9636 21.5905 29.6301 20.0582L30.5652 19.5157C33.7936 22.7269 36.961 25.8489 40.0906 29.0162C43.7725 32.681 37.5916 37.9862 34.6582 34.1839C34.3016 33.8272 33.7216 33.8272 33.3651 34.1839C29.2646 38.473 25.7605 38.4144 22.8031 35.5437L16.0919 28.8566C15.2298 27.9986 13.9367 29.2856 14.7988 30.1437L21.5171 36.829C25.9077 40.9006 30.5471 39.6583 34.1327 35.7777C39.0148 39.7892 45.1219 33.877 42.2119 28.8602L43.993 27.8869C44.3888 29.2139 45.6147 30.1969 47.0707 30.1969H53.8568C55.6283 30.1969 57.0806 28.7495 57.0806 26.9863V8.87533C57.0806 7.11211 55.6283 5.66655 53.8568 5.66655H47.0707C45.2992 5.66655 43.8469 7.11211 43.8469 8.87533V9.04552C42.0627 7.79829 40.1787 6.5118 38.4751 5.37226C37.6864 4.82351 36.8778 4.48867 35.9548 4.46459ZM35.8248 6.38099C36.4949 6.39582 37.1066 6.6127 37.6362 6.98552C39.631 8.32153 41.8646 9.85481 43.8469 11.2615V25.9014L41.0666 27.4224C37.8694 24.1916 34.6565 21.016 31.3667 17.7411C31.0737 17.4499 30.6201 17.3914 30.2624 17.5993L28.7146 18.4839C26.8952 19.5295 24.6282 18.9278 23.5779 17.1171C22.5275 15.3063 23.1323 13.0442 24.9511 11.999C27.5429 10.5102 30.6316 8.70852 33.6625 6.99261C34.4265 6.5536 35.1547 6.36616 35.8248 6.38099ZM3.77195 7.4819H10.5509C11.3435 7.4819 11.9579 8.08643 11.9579 8.87533V26.9863C11.9579 27.7753 11.3435 28.3815 10.5509 28.3815H3.77195C2.97933 28.3815 2.36487 27.7753 2.36487 26.9863V8.87533C2.36487 8.08643 2.97933 7.4819 3.77195 7.4819ZM47.0707 7.4819H53.8568C54.6494 7.4819 55.2567 8.08643 55.2567 8.87533V26.9863C55.2567 27.7753 54.6494 28.3815 53.8568 28.3815H47.0707C46.2781 28.3815 45.6708 27.7753 45.6708 26.9863V8.87533C45.6708 8.08643 46.2781 7.4819 47.0707 7.4819Z" fill="#00003A"/>
</svg>
