<svg width="59" height="58" viewBox="0 0 59 58" fill="none" xmlns="http://www.w3.org/2000/svg">
<path d="M10.0192 1.81152C8.31683 1.81152 6.94629 3.17566 6.94629 4.87014V11.1572H13.0921V4.87014C13.0921 3.17566 11.7216 1.81152 10.0192 1.81152Z" fill="#5575FF"/>
<path d="M21.9704 1.81152C20.268 1.81152 18.8975 3.17566 18.8975 4.87014V11.1572H25.0433V4.87014C25.0433 3.17566 23.6728 1.81152 21.9704 1.81152Z" fill="#5575FF"/>
<path d="M5.30358 9.85449C3.64077 9.85449 2.45117 10.3416 2.45117 12.7432V23.043C2.45117 26.3426 5.12013 28.999 8.43518 28.999H23.5544C26.8694 28.999 29.5384 26.3426 29.5384 23.043V12.7432C29.5384 10.3416 28.3488 9.85449 26.686 9.85449H5.30358Z" fill="#5575FF"/>
<path d="M10.0206 0.908691C7.82956 0.908691 6.03544 2.68738 6.03544 4.86824V6.54091C6.00791 7.77634 7.88397 7.77634 7.85641 6.54091V4.86824C7.85641 3.66014 8.80688 2.72122 10.0206 2.72122C11.2344 2.72122 12.1848 3.66014 12.1848 4.86824V8.94988H5.30277C2.88 8.94988 1.56063 10.5941 1.53809 12.743V23.0445C1.53809 26.8306 4.63062 29.9087 8.43436 29.9087H12.2755V44.2016C12.2755 51.2808 18.1129 57.0891 25.2252 57.0891H45.0498C52.162 57.0891 57.9994 51.2808 57.9994 44.2016V26.5173C57.9994 20.1082 53.197 14.8052 47.013 13.8476C49.4529 9.28497 44.0602 5.96647 40.7836 8.84723L34.4635 14.6015C32.7047 16.1974 32.6893 18.9809 34.4291 20.5967V20.5984L40.7225 26.4342C43.9087 29.3986 48.7205 26.4 47.6028 22.5667C48.9187 23.3851 49.799 24.7787 49.799 26.5174V44.2016C49.799 46.9141 47.7734 48.9346 45.0491 48.9346H25.2245C22.5004 48.9346 20.4676 46.9127 20.4676 44.2016V32.3637C20.4848 31.1381 18.6292 31.1381 18.6466 32.3637V44.2016C18.6466 47.8485 21.5609 50.7471 25.2245 50.7471H45.0491C48.7128 50.7471 51.62 47.8472 51.62 44.2016V26.5173C51.62 23.0196 48.9466 20.2089 45.4902 19.9912C44.6385 19.9395 44.1896 20.9775 44.8126 21.5577C47.7347 23.7371 44.3405 27.3835 41.9815 25.1243L35.6703 19.2708C34.689 18.3585 34.6973 16.8404 35.691 15.9397C37.7971 14.025 39.9025 12.106 42.0076 10.1889C44.5563 7.65202 47.7254 11.4616 44.6999 13.8794C44.0934 14.4308 44.4727 15.4366 45.2938 15.4547C51.2979 15.5862 56.1789 20.5109 56.1789 26.5173V44.2016C56.1789 50.2899 51.1672 55.2766 45.0502 55.2766H25.2256C19.1086 55.2766 14.097 50.2899 14.097 44.2016V29.9087H23.5576C27.3613 29.9087 30.4467 26.8306 30.4467 23.0445V12.743C30.4467 10.2741 28.9929 8.96251 26.6892 8.94988H25.9583V4.86824C25.9583 2.68738 24.1624 0.908691 21.9713 0.908691C19.7803 0.908691 17.9861 2.68738 17.9861 4.86824V8.94988H14.008V4.86824C14.008 2.68738 12.2121 0.908691 10.0211 0.908691H10.0206ZM21.9709 2.72122C23.1846 2.72122 24.135 3.66014 24.135 4.86824V8.94988H19.8067V4.86824C19.8067 3.66014 20.7571 2.72122 21.9709 2.72122ZM5.30277 10.7624H26.6887C28.2255 10.7638 28.6324 11.4141 28.6324 12.743V23.0445C28.6324 25.8577 26.3835 28.0962 23.5571 28.0962C18.0063 28.0791 13.5182 28.0964 8.43436 28.0962C5.608 28.0962 3.36084 25.8577 3.36084 23.0445V12.743C3.35052 10.9894 4.25264 10.7624 5.30277 10.7624Z" fill="#00003A"/>
</svg>
