<svg width="47" height="58" viewBox="0 0 47 58" fill="none" xmlns="http://www.w3.org/2000/svg">
<path d="M8.22953 28.9987C10.5286 32.9622 15.6203 34.3201 19.6024 32.0318C23.5844 29.7435 24.9487 24.6754 22.6497 20.712C20.3507 16.7485 10.8747 12.0924 8.746 13.3157C6.30705 14.7173 5.93052 25.0352 8.22953 28.9987Z" fill="#5575FF"/>
<path d="M39.3074 28.9987C37.0084 32.9622 31.9166 34.3201 27.9346 32.0318C23.9526 29.7435 22.5883 24.6754 24.8873 20.712C27.1863 16.7485 36.6623 12.0924 38.791 13.3157C41.2299 14.7173 41.6065 25.0352 39.3074 28.9987Z" fill="#5575FF"/>
<path d="M32.0943 15.1495C32.0943 19.7261 28.3669 23.4362 23.7688 23.4362C19.1708 23.4362 15.4434 19.7261 15.4434 15.1495C15.4434 10.5729 21.3109 1.82471 23.7688 1.82471C26.5851 1.82471 32.0943 10.5729 32.0943 15.1495Z" fill="#5575FF"/>
<path d="M23.7688 0.921003C20.6172 0.921003 14.6352 10.5283 14.5341 15.1502C14.5341 19.9 18.1769 23.8224 22.8263 24.2941C23.0399 27.0349 21.7061 29.7762 19.147 31.2468C15.5911 33.2902 11.0725 32.0851 9.01954 28.5457C7.28309 25.5522 7.14029 15.3946 9.16358 14.0015C9.78974 13.6418 10.8219 13.838 12.4179 14.5377C13.5079 14.9972 14.0203 13.4552 13.0901 13.0209C11.7057 12.4395 9.43361 11.9222 8.29221 12.5341C5.49256 14.143 5.07097 25.1558 7.44218 29.452C9.98725 33.8397 15.6493 35.35 20.0575 32.8168C21.1907 32.1656 22.1258 31.3066 22.8548 30.3193V39.0171C12.6754 39.4078 3.79482 46.1605 0.809085 55.9244C0.630169 56.5059 1.06594 57.0942 1.6769 57.0961H45.8554C46.4686 57.0977 46.9082 56.508 46.7286 55.9244C44.0357 47.1182 36.5547 40.744 27.6402 39.2933C26.4095 39.0504 26.101 40.9191 27.345 41.081C35.1551 42.352 41.648 47.7891 44.4363 55.2837H3.128C6.23145 46.9594 13.9248 41.206 22.8548 40.8296V47.253C21.7422 47.3692 20.6441 47.7905 19.6218 48.3257C18.6002 49.0015 19.634 50.5226 20.6443 49.8302C20.6443 49.8302 23.4961 47.838 27.0231 49.8655C28.0771 50.4673 28.984 48.8938 27.9301 48.292C26.7951 47.6397 25.6906 47.3346 24.6758 47.2317C24.6833 41.5765 24.6758 35.9632 24.6758 30.3085C25.4058 31.3002 26.343 32.1632 27.4802 32.8167C31.8883 35.3499 37.5504 33.8396 40.0955 29.4519C42.4021 25.4754 42.4192 14.9605 39.2455 12.534C38.2095 11.8441 34.6106 12.8837 32.8542 13.6827C31.7944 8.57241 26.9747 0.920898 23.7688 0.920898V0.921003ZM23.751 2.62555C25.7526 2.62555 31.0539 10.2542 31.1826 15.1502C31.1826 19.237 27.8748 22.5294 23.7688 22.5294C19.6629 22.5294 16.3551 19.237 16.3551 15.1502C16.3551 11.8765 21.4943 2.62555 23.751 2.62555ZM38.3741 14.0015C39.955 15.1431 40.7937 24.6226 38.5181 28.5457C36.4651 32.0851 31.9465 33.2902 28.3907 31.2468C25.8316 29.7762 24.4978 27.0348 24.7113 24.2941C29.2123 23.8374 32.7577 20.144 32.9805 15.5998C34.7562 14.5597 37.5343 13.5189 38.3741 14.0015H38.3741Z" fill="#00003A"/>
</svg>
