<svg width="52" height="58" viewBox="0 0 52 58" fill="none" xmlns="http://www.w3.org/2000/svg">
<path d="M23.8521 41.6609L21.7041 44.0489L23.2305 46.6691L21.998 56.2759H29.5998L28.3993 46.6691L29.9257 44.0489L27.7777 41.6609C27.1493 41.9288 26.5006 42.0772 25.8149 42.0669C25.1292 42.0772 24.4805 41.9286 23.8521 41.6609Z" fill="#5575FF"/>
<path d="M31.8823 12.3409C31.8823 12.3409 27.0537 19.7103 19.0865 21.7129C14.3551 22.9021 11.7742 20.0272 10.4582 17.4957C9.43031 14.5575 9.96856 11.6025 10.7014 9.70786C13.6926 0.115628 34.4815 -1.42868 37.5157 8.89651C43.0917 8.89651 42.4978 22.4337 37.5157 22.4337L31.8823 12.3409Z" fill="#5575FF"/>
<path d="M14.8823 3.34361C9.55315 6.6833 7.92285 12.7684 9.61907 17.8221C10.2504 19.5011 11.7187 20.9314 13.135 21.8606V23.3834C13.135 28.2974 15.9541 32.5409 20.0671 34.6266V37.0021C16.4761 38.4017 12.7684 39.5073 9.36972 40.4839C2.86446 42.542 0.0973821 49.6345 0.0527344 56.2761C0.0543394 56.775 0.459851 57.1786 0.9611 57.1802H50.6612C51.1651 57.1823 51.5751 56.7776 51.5767 56.2761C51.5767 49.3648 48.7762 42.6314 42.2615 40.4839C38.2443 39.3901 35.2005 38.5772 31.5089 36.9791C30.5524 36.4591 29.7976 36.889 29.7077 37.772C29.4602 39.7038 27.8298 41.1664 25.8147 41.1664C23.6247 41.1664 21.8909 39.4389 21.8909 37.2592V35.3835C23.1271 35.7833 24.4436 36.0058 25.8147 36.0058C32.8239 36.0058 38.4944 30.3598 38.4944 23.3834V23.2416C43.3858 21.7231 44.1886 8.91316 38.343 8.51489C35.7715 -0.546592 20.7836 -0.256822 14.8823 3.34361ZM36.6741 9.01128C36.724 9.47317 37.1158 9.82246 37.5825 9.82145C41.3856 9.41408 41.8676 19.6791 37.953 21.2738C36.7253 19.0737 35.496 16.8745 34.2696 14.6736C33.6993 13.5562 32.0283 14.4761 32.6755 15.5512C33.9995 17.9422 35.3375 20.3255 36.6706 22.7115V23.3852C36.6706 29.3873 31.8448 34.1922 25.8147 34.1922C19.7846 34.1922 14.9588 29.3873 14.9588 23.3852V22.6477C16.2239 22.9965 17.6939 23.0416 19.3457 22.6264C27.7556 20.5126 32.7023 12.8583 32.7023 12.8583C33.3665 11.8443 31.8383 10.8515 31.1741 11.8655C31.1741 11.8655 26.4447 18.9738 18.8951 20.8714C15.3021 21.4957 12.4794 19.9866 11.3414 17.1733C9.68538 12.7347 11.7976 7.37514 15.8191 4.90368C20.2426 1.81547 34.4987 0.930137 36.6741 9.01128ZM20.304 38.8795C20.6663 40.0977 21.4272 41.1446 22.4342 41.8773L19.4935 45.1464C18.1806 43.5871 18.3732 41.6068 18.3839 39.7074L20.304 38.8795ZM31.3255 38.8813L33.2473 39.711C33.2982 41.7588 33.3018 43.5752 32.1359 45.1535L29.1917 41.8792C30.1999 41.1467 30.9625 40.1001 31.3255 38.8813ZM16.5565 40.3191C16.531 42.8454 16.9266 46.2549 18.9752 47.4103C19.3445 47.6048 19.7997 47.5258 20.0795 47.2171L21.5454 45.5843L22.2881 46.8572L21.1909 55.3702H10.5203V49.5075C10.5203 48.1138 8.69646 48.087 8.69646 49.5075V55.3702H2.05826C2.36841 50.1165 4.31758 43.8686 10.0359 42.1717C12.2097 41.5574 14.3833 40.9372 16.5565 40.3191ZM35.0729 40.3191L41.5882 42.1717C46.7735 43.8334 49.3286 50.023 49.5711 55.3702H41.7147V49.5075C41.7147 48.0758 39.8908 48.2774 39.8908 49.5075V55.3702H30.4082L29.3395 46.8625L30.0822 45.5879L31.5445 47.2171C31.8254 47.5293 32.2833 47.6085 32.6542 47.4103C35.0118 45.5842 35.0841 42.896 35.0729 40.3191ZM24.1155 42.7266C25.2909 43.1015 26.4957 43.0614 27.5139 42.7266L28.8034 44.1625L27.8755 45.7634H23.7557L22.8224 44.1643L24.1155 42.7266ZM24.0318 47.5787H27.5923L28.5683 55.3702H23.0308L24.0318 47.5787Z" fill="#00003A"/>
</svg>
