<svg width="64" height="64" viewBox="0 0 64 64" fill="none" xmlns="http://www.w3.org/2000/svg">
<path d="M28.5463 9.13672C27.2127 9.20059 27.3086 11.2012 28.6423 11.1372H31.8239C33.1575 11.1372 33.1575 9.13672 31.8239 9.13672C30.7358 9.13672 29.6266 9.13672 28.5463 9.13672Z" fill="#00003A"/>
<path d="M28.6428 16.5117C28.3775 16.5117 28.1231 16.6171 27.9355 16.8047C27.748 16.9923 27.6426 17.2467 27.6426 17.512C27.6426 17.7772 27.748 18.0317 27.9355 18.2192C28.1231 18.4068 28.3775 18.5122 28.6428 18.5122H31.8244C32.0897 18.5122 32.3441 18.4068 32.5317 18.2192C32.7192 18.0317 32.8246 17.7772 32.8246 17.512C32.8246 17.2467 32.7192 16.9923 32.5317 16.8047C32.3441 16.6171 32.0897 16.5117 31.8244 16.5117H28.6428Z" fill="#00003A"/>
<path d="M36.9028 9.13672C35.5691 9.20059 35.6651 11.2012 36.9987 11.1372H40.1803C41.514 11.1372 41.514 9.13672 40.1803 9.13672C39.0923 9.13672 37.9831 9.13672 36.9028 9.13672Z" fill="#00003A"/>
<path d="M36.9983 16.5117C36.733 16.5117 36.4786 16.6171 36.291 16.8047C36.1034 16.9923 35.998 17.2467 35.998 17.512C35.998 17.7772 36.1034 18.0317 36.291 18.2192C36.4786 18.4068 36.733 18.5122 36.9983 18.5122H40.1799C40.4452 18.5122 40.6996 18.4068 40.8871 18.2192C41.0747 18.0317 41.1801 17.7772 41.1801 17.512C41.1801 17.2467 41.0747 16.9923 40.8871 16.8047C40.6996 16.6171 40.4452 16.5117 40.1799 16.5117H36.9983Z" fill="#00003A"/>
<path d="M7.67034 9.13672C6.3367 9.20059 6.43266 11.2012 7.76631 11.1372H10.9479C12.2815 11.1372 12.2815 9.13672 10.9479 9.13672C9.85983 9.13672 8.75066 9.13672 7.67034 9.13672Z" fill="#00003A"/>
<path d="M7.76684 16.5117C7.50156 16.5117 7.24714 16.6171 7.05956 16.8047C6.87198 16.9923 6.7666 17.2467 6.7666 17.512C6.7666 17.7772 6.87198 18.0317 7.05956 18.2192C7.24714 18.4068 7.50156 18.5122 7.76684 18.5122H10.9484C11.2137 18.5122 11.4681 18.4068 11.6557 18.2192C11.8433 18.0317 11.9487 17.7772 11.9487 17.512C11.9487 17.2467 11.8433 16.9923 11.6557 16.8047C11.4681 16.6171 11.2137 16.5117 10.9484 16.5117H7.76684Z" fill="#00003A"/>
<path d="M16.0268 9.13672C14.6931 9.20059 14.7891 11.2012 16.1228 11.1372H19.3043C20.638 11.1372 20.638 9.13672 19.3043 9.13672C18.2163 9.13672 17.1071 9.13672 16.0268 9.13672Z" fill="#00003A"/>
<path d="M16.1223 16.5117C15.857 16.5117 15.6026 16.6171 15.415 16.8047C15.2275 16.9923 15.1221 17.2467 15.1221 17.512C15.1221 17.7772 15.2275 18.0317 15.415 18.2192C15.6026 18.4068 15.857 18.5122 16.1223 18.5122H19.3039C19.5692 18.5122 19.8236 18.4068 20.0112 18.2192C20.1988 18.0317 20.3041 17.7772 20.3041 17.512C20.3041 17.2467 20.1988 16.9923 20.0112 16.8047C19.8236 16.6171 19.5692 16.5117 19.3039 16.5117H16.1223Z" fill="#00003A"/>
<path d="M56.875 23.749C59.645 23.749 61.875 25.979 61.875 28.749V48.7489C61.875 51.519 59.645 53.749 56.875 53.749H54V61.999L39.7109 53.749H34C31.23 53.749 29 51.519 29 48.7489V28.749C29 25.979 31.23 23.749 34 23.749H56.875Z" fill="#5575FF"/>
<path d="M39.2939 33.5117C37.9615 33.5816 38.0648 35.5822 39.3972 35.5122H42.5788C43.9125 35.5122 43.9125 33.5117 42.5788 33.5117C41.4887 33.5117 40.3755 33.5117 39.2939 33.5117Z" fill="#00003A"/>
<path d="M39.3977 40.8867C39.1324 40.8867 38.878 40.9921 38.6904 41.1797C38.5028 41.3673 38.3975 41.6217 38.3975 41.887C38.3975 42.1522 38.5028 42.4067 38.6904 42.5942C38.878 42.7818 39.1324 42.8872 39.3977 42.8872H42.5793C42.8446 42.8872 43.099 42.7818 43.2866 42.5942C43.4741 42.4067 43.5795 42.1522 43.5795 41.887C43.5795 41.6217 43.4741 41.3673 43.2866 41.1797C43.099 40.9921 42.8446 40.8867 42.5793 40.8867H39.3977Z" fill="#00003A"/>
<path d="M47.6503 33.5117C46.3179 33.5816 46.4212 35.5822 47.7536 35.5122H50.9352C52.2689 35.5122 52.2689 33.5117 50.9352 33.5117C49.8452 33.5117 48.732 33.5117 47.6503 33.5117Z" fill="#00003A"/>
<path d="M47.7541 40.8867C47.4889 40.8867 47.2344 40.9921 47.0469 41.1797C46.8593 41.3673 46.7539 41.6217 46.7539 41.887C46.7539 42.1522 46.8593 42.4067 47.0469 42.5942C47.2344 42.7818 47.4889 42.8872 47.7541 42.8872H50.9357C51.201 42.8872 51.4554 42.7818 51.643 42.5942C51.8306 42.4067 51.936 42.1522 51.936 41.887C51.936 41.6217 51.8306 41.3673 51.643 41.1797C51.4554 40.9921 51.201 40.8867 50.9357 40.8867H47.7541Z" fill="#00003A"/>
<path d="M7.0114 1.00195C3.69949 1.00195 1.00195 3.69949 1.00195 7.0114V27.0429C1.00195 30.3548 3.69949 33.0523 7.0114 33.0523H7.63739V40.3138C7.63756 40.4895 7.68395 40.6621 7.77193 40.8142C7.8599 40.9664 7.98634 41.0927 8.13857 41.1805C8.29079 41.2683 8.46344 41.3145 8.63917 41.3145C8.81491 41.3144 8.98754 41.2682 9.13975 41.1804L23.2185 33.0523H24.5487C24.6815 33.0542 24.8132 33.0297 24.9364 32.9802C25.0596 32.9307 25.1717 32.8572 25.2662 32.7641C25.3607 32.6709 25.4357 32.5598 25.487 32.4374C25.5382 32.3149 25.5646 32.1835 25.5646 32.0508C25.5646 31.918 25.5382 31.7866 25.487 31.6642C25.4357 31.5417 25.3607 31.4307 25.2662 31.3375C25.1717 31.2443 25.0596 31.1708 24.9364 31.1213C24.8132 31.0718 24.6815 31.0473 24.5487 31.0492H22.9505C22.7746 31.0494 22.6019 31.096 22.4497 31.1842L9.64054 38.5806V32.0508C9.64051 31.7851 9.53498 31.5304 9.34715 31.3426C9.15933 31.1548 8.90459 31.0492 8.63896 31.0492H7.0114C4.77459 31.0492 3.0051 29.2797 3.0051 27.0429V7.0114C3.0051 4.7746 4.77459 3.0051 7.0114 3.0051H40.9397C43.1766 3.0051 44.946 4.7746 44.946 7.0114V19.9693C44.9442 20.102 44.9687 20.2338 45.0182 20.3569C45.0677 20.4801 45.1411 20.5922 45.2343 20.6867C45.3275 20.7812 45.4386 20.8563 45.561 20.9075C45.6835 20.9587 45.8149 20.9851 45.9476 20.9851C46.0804 20.9851 46.2118 20.9587 46.3342 20.9075C46.4567 20.8563 46.5677 20.7812 46.6609 20.6867C46.7541 20.5922 46.8276 20.4801 46.8771 20.3569C46.9266 20.2338 46.9511 20.102 46.9492 19.9693V7.0114C46.9492 3.69949 44.2517 1.00195 40.9397 1.00195H7.0114ZM34.0559 22.7862C30.744 22.7862 28.0445 25.4857 28.0445 28.7976V48.8271C28.0445 52.1391 30.744 54.8366 34.0559 54.8366H39.5039L53.5807 62.9627C53.7329 63.0519 53.906 63.0993 54.0824 63.1002C54.2589 63.101 54.4324 63.0553 54.5855 62.9675C54.7385 62.8798 54.8657 62.7531 54.9541 62.6005C55.0425 62.4478 55.089 62.2744 55.0889 62.098V57.943C55.0919 57.8097 55.0682 57.677 55.0192 57.5529C54.9702 57.4288 54.8968 57.3158 54.8036 57.2204C54.7103 57.125 54.5988 57.0492 54.4759 56.9975C54.3529 56.9457 54.2208 56.9191 54.0874 56.9191C53.9539 56.9191 53.8219 56.9457 53.6989 56.9975C53.5759 57.0492 53.4645 57.125 53.3712 57.2204C53.2779 57.3158 53.2046 57.4288 53.1556 57.5529C53.1066 57.677 53.0828 57.8097 53.0858 57.943V60.3668L40.2727 52.9665C40.122 52.88 39.9515 52.8341 39.7778 52.8334H34.0559C31.8191 52.8334 30.0476 51.064 30.0476 48.8271V28.7976C30.0476 26.5608 31.8191 24.7894 34.0559 24.7894H56.9669C59.2037 24.7894 60.9752 26.5608 60.9752 28.7976V48.8271C60.9752 51.064 59.2037 52.8334 56.9669 52.8334H54.0835C53.9501 52.8306 53.8175 52.8543 53.6935 52.9034C53.5695 52.9524 53.4565 53.0257 53.3611 53.119C53.2658 53.2123 53.1901 53.3237 53.1384 53.4467C53.0867 53.5696 53.06 53.7016 53.06 53.835C53.06 53.9684 53.0867 54.1004 53.1384 54.2234C53.1901 54.3463 53.2658 54.4577 53.3611 54.551C53.4565 54.6443 53.5695 54.7176 53.6935 54.7667C53.8175 54.8157 53.9501 54.8395 54.0835 54.8366H56.9669C60.2788 54.8366 62.9705 52.1391 62.9705 48.8271V28.7976C62.9705 25.4857 60.2788 22.7862 56.9669 22.7862H34.0559Z" fill="#00003A"/>
</svg>
