<svg width="59" height="58" viewBox="0 0 59 58" fill="none" xmlns="http://www.w3.org/2000/svg">
<path d="M24.3553 1.81445C20.8919 1.81445 20.3627 5.6063 19.5107 8.84895H6.23072C3.86255 8.84895 1.95605 10.7466 1.95605 13.1037C1.95605 15.4608 3.86255 17.3584 6.23072 17.3584H20.9926V17.9825C20.9926 19.8367 22.4923 21.3295 24.3553 21.3295H34.2725C36.1355 21.3295 37.6352 19.8367 37.6352 17.9825V17.3584H52.3971C54.7652 17.3584 56.6717 15.4608 56.6717 13.1037C56.6717 10.7466 54.7652 8.84895 52.3971 8.84895H38.8891C38.0524 5.7407 37.3878 1.9081 34.2725 1.81445H24.3553Z" fill="#5575FF"/>
<path d="M25.2412 25.6348V34.7667C25.2412 35.662 25.9665 36.3816 26.8659 36.3816H31.3576C32.2571 36.3816 32.9824 35.662 32.9824 34.7667V25.6348H25.2412Z" fill="#5575FF"/>
<path d="M19.0646 45.1465C17.8487 45.1465 17.9377 47.0174 19.152 46.9594H22.4521C23.6664 46.9594 23.6664 45.1465 22.4521 45.1465C21.323 45.1465 20.1938 45.1465 19.0646 45.1465Z" fill="#00003A"/>
<path d="M19.0714 49.1484C18.9518 49.1483 18.8333 49.1717 18.7227 49.2172C18.6121 49.2627 18.5116 49.3295 18.4269 49.4137C18.3423 49.4979 18.2751 49.5978 18.2293 49.7079C18.1835 49.8179 18.1599 49.9358 18.1599 50.0549C18.1599 50.174 18.1835 50.292 18.2293 50.4021C18.2751 50.5121 18.3423 50.612 18.4269 50.6962C18.5116 50.7804 18.6121 50.8471 18.7227 50.8926C18.8333 50.9381 18.9518 50.9615 19.0714 50.9614H25.6716C25.7913 50.9615 25.9098 50.9381 26.0204 50.8926C26.131 50.8471 26.2315 50.7804 26.3161 50.6962C26.4008 50.612 26.4679 50.5121 26.5138 50.4021C26.5596 50.292 26.5832 50.174 26.5832 50.0549C26.5832 49.9358 26.5596 49.8179 26.5138 49.7079C26.4679 49.5978 26.4008 49.4979 26.3161 49.4137C26.2315 49.3295 26.131 49.2627 26.0204 49.2172C25.9098 49.1717 25.7913 49.1483 25.6716 49.1484H19.0714Z" fill="#00003A"/>
<path d="M9.38691 0.89666C8.88537 0.906952 8.4851 1.31572 8.49101 1.81497V2.78647H3.73901C2.54908 2.81049 2.54908 4.57627 3.73901 4.60183H8.49101V7.9418H6.23078C3.37318 7.9418 1.04419 10.2599 1.04419 13.1042C1.04419 15.9485 3.37318 18.2666 6.23078 18.2666H7.27985V40.4427C7.28187 40.9439 7.69172 41.3487 8.19534 41.3468H13.4799V52.831C13.4799 55.2272 15.4469 57.1868 17.8543 57.1868H40.4673C42.8747 57.1868 44.8363 55.2271 44.8363 52.831V41.3468H50.039C50.5405 41.3458 50.9471 40.9419 50.9491 40.4427V18.2666H52.3971C55.2547 18.2666 57.5837 15.9485 57.5837 13.1042C57.5837 10.2599 55.2547 7.9418 52.3971 7.9418H49.9855V4.60183H54.7322C55.9746 4.62927 55.9746 2.75978 54.7322 2.78647H49.9855V1.81497C49.9917 1.30251 49.5706 0.886677 49.0558 0.89666C48.5549 0.906952 48.1557 1.31641 48.1617 1.81497V2.78647H43.4079C42.2179 2.81049 42.2179 4.57627 43.4079 4.60183H48.1617V7.9418H38.8892C37.656 7.92464 37.656 9.77451 38.8892 9.75715H52.3971C54.2759 9.75715 55.7599 11.2342 55.7599 13.1042C55.7599 14.9742 54.2759 16.4513 52.3971 16.4513H37.6353C37.1317 16.4513 36.7234 16.8577 36.7234 17.3589V17.983C36.7234 19.3501 35.6461 20.4224 34.2726 20.4224H24.3554C22.9818 20.4224 21.9045 19.3501 21.9045 17.983V17.3589C21.9045 16.8577 21.4962 16.4513 20.9926 16.4513H12.0821C11.0236 16.4513 10.9231 18.2666 12.0821 18.2666H20.1377C20.2929 20.4699 22.1039 22.2377 24.3554 22.2377H34.2726C36.5241 22.2377 38.335 20.4699 38.4902 18.2666H49.1235V39.5314H44.8363V29.118C44.8363 26.7218 42.8746 24.7693 40.4673 24.7693H17.8543C15.447 24.7693 13.4799 26.7218 13.4799 29.118V39.5314H9.10371V21.5162V18.2666C9.10371 17.1618 9.03951 16.4513 7.39668 16.4513H6.23078C4.35205 16.4513 2.86805 14.9742 2.86805 13.1042C2.86805 11.2342 4.35205 9.75715 6.23078 9.75715H19.5107C19.925 9.75694 20.2872 9.47892 20.3924 9.07994C20.8287 7.41933 21.1832 5.70257 21.771 4.51851C22.3587 3.33444 22.958 2.72265 24.3554 2.72265H34.2459C34.9999 2.74667 35.4586 3.00429 35.9076 3.50269C36.3566 4.00119 36.7416 4.77378 37.0582 5.68501C37.4265 6.88695 39.2382 6.26222 38.7806 5.09112C38.4236 4.06369 37.9768 3.08035 37.2666 2.29186C36.5564 1.50334 35.5319 0.907297 34.2993 0.907297H24.3554C22.2893 0.907297 20.8916 2.19115 20.1359 3.71365C19.4845 5.02595 19.1851 6.53426 18.8375 7.9418H10.3149V4.60183H15.0615C16.304 4.62927 16.304 2.75978 15.0615 2.78647H10.3149V1.81497C10.321 1.30323 9.901 0.887707 9.38691 0.89666ZM25.839 5.38541C24.6219 5.38541 24.6219 7.20254 25.839 7.20254H32.5645C33.7816 7.20254 33.7816 5.38541 32.5645 5.38541H25.839ZM17.8543 26.5864H32.1263V34.8211C32.1263 35.2297 31.8189 35.5302 31.4068 35.5302H26.9095C26.4974 35.5302 26.1952 35.2297 26.1952 34.8211V29.0453C26.2228 27.8079 24.3438 27.8079 24.3714 29.0453V34.8211C24.3714 36.2057 25.5199 37.3473 26.9095 37.3473H31.4068C32.7963 37.3473 33.9502 36.2057 33.9502 34.8211V26.5864H40.4673C41.8958 26.5864 43.0125 27.6961 43.0125 29.118V52.831C43.0125 54.2528 41.8958 55.3715 40.4673 55.3715H17.8543C16.4258 55.3715 15.3038 54.2528 15.3038 52.831V29.118C15.3038 27.6961 16.4258 26.5864 17.8543 26.5864Z" fill="#00003A"/>
</svg>
