<svg width="63" height="64" viewBox="0 0 63 64" fill="none" xmlns="http://www.w3.org/2000/svg">
<path d="M21.603 23.4031C21.603 24.7313 21.3414 26.0465 20.8332 27.2736C20.3249 28.5007 19.5799 29.6157 18.6407 30.5548C17.7016 31.494 16.5866 32.239 15.3595 32.7473C14.1324 33.2555 12.8172 33.5172 11.489 33.5172C10.1608 33.5172 8.84563 33.2555 7.61853 32.7473C6.39144 32.239 5.27648 31.494 4.3373 30.5548C3.39813 29.6157 2.65314 28.5007 2.14487 27.2736C1.63659 26.0465 1.37499 24.7313 1.375 23.4031C1.375 20.7207 2.44059 18.1481 4.33733 16.2514C6.23408 14.3546 8.80661 13.2891 11.489 13.2891C14.1714 13.2891 16.744 14.3546 18.6407 16.2514C20.5374 18.1481 21.603 20.7207 21.603 23.4031Z" fill="#5575FF"/>
<path d="M11.4867 12.2881C17.613 12.2881 22.6038 17.279 22.6038 23.4053C22.6039 29.5316 17.613 34.515 11.4867 34.515C7.83222 34.515 4.57884 32.743 2.5546 30.0121C2.19479 29.5268 1.87312 29.011 1.59498 28.4692C1.52683 28.3517 1.48334 28.2216 1.46715 28.0867C1.45097 27.9518 1.46243 27.8151 1.50084 27.6848C1.53926 27.5545 1.60382 27.4333 1.69058 27.3288C1.77734 27.2243 1.8845 27.1385 2.0055 27.0768C2.1265 27.015 2.25881 26.9786 2.39437 26.9696C2.52992 26.9607 2.66587 26.9794 2.79393 27.0248C2.92199 27.0701 3.03947 27.1411 3.1392 27.2333C3.23893 27.3255 3.31882 27.4372 3.374 27.5613C3.60191 28.0054 3.86863 28.4252 4.16385 28.8235C5.82503 31.0646 8.47701 32.5145 11.4867 32.5145C16.5321 32.5145 20.6034 28.4507 20.6033 23.4053C20.6033 18.3599 16.5321 14.2887 11.4867 14.2887C6.44132 14.2887 2.37749 18.3599 2.37746 23.4053C2.37746 23.6706 2.27207 23.925 2.08449 24.1126C1.89691 24.3002 1.64249 24.4056 1.37721 24.4056C1.11192 24.4056 0.857504 24.3002 0.66992 24.1126C0.482336 23.925 0.376953 23.6706 0.376953 23.4053C0.376991 17.2791 5.36041 12.2881 11.4867 12.2881Z" fill="#00003A"/>
<path d="M4.57715 50.7383C2.91514 50.7383 1.57715 52.0762 1.57715 53.7382V61.9981H12.0029V53.7382C12.0029 52.0762 10.6649 50.7383 9.00294 50.7383H4.57715Z" fill="#5575FF"/>
<path d="M54.1445 1.99219C52.4825 1.99219 51.1445 3.33015 51.1445 4.99212V61.9981H61.5703V4.99212C61.5703 3.33015 60.2323 1.99219 58.5703 1.99219H54.1445Z" fill="#5575FF"/>
<path d="M25.6055 19.9493L46.0009 5.8046C46.7975 5.25366 46.4243 4.00529 45.4561 3.98208L38.5475 3.78819C37.1479 3.67934 37.0913 5.82022 38.4948 5.78511L42.3555 5.89515L24.4703 18.3039C23.4811 19.044 24.5627 20.626 25.6054 19.9497L25.6055 19.9493Z" fill="#00003A"/>
<path d="M58.568 0.994141C60.7667 0.994141 62.5681 2.7955 62.5681 4.9942V61.9988C62.5681 62.5557 62.2164 63.0018 61.5712 63.0018H1.57118C1.10079 63.0018 0.575195 62.7755 0.575195 61.9988V53.7362C0.575195 51.5375 2.37845 49.7363 4.57715 49.7363H8.99704C11.1957 49.7363 12.999 51.5375 12.999 53.7362V61.0019H17.1025V40.4863C17.1025 38.2876 18.9058 36.4864 21.1045 36.4864H25.5342C27.7329 36.4864 29.5342 38.2876 29.5342 40.4863V57.7305C29.5342 59.0642 27.5341 59.0642 27.5341 57.7305V40.4863C27.5341 39.361 26.6595 38.4863 25.5342 38.4863H21.1045C19.9792 38.4863 19.1045 39.361 19.1045 40.4863V61.002H33.6396V23.1094C33.6396 20.9107 35.4409 19.1173 37.6396 19.1173H42.0615C44.2602 19.1173 46.0615 20.9107 46.0615 23.1094V61.002H50.1455V4.9942C50.1455 2.7955 51.9468 0.994141 54.1455 0.994141H58.568ZM58.568 2.99417H54.1462C53.0209 2.99417 52.1462 3.86889 52.1462 4.9942V61.002H60.5681V4.9942C60.5681 3.86889 59.6934 2.99417 58.568 2.99417ZM42.0622 21.1172H37.6403C36.515 21.1172 35.6403 21.984 35.6403 23.1094V61.002H44.0622V23.1094C44.0622 21.984 43.1875 21.1172 42.0622 21.1172ZM8.99772 51.7363H4.57783C3.45251 51.7363 2.57585 52.611 2.57585 53.7364V61.002H10.9997V53.7364C10.9997 52.611 10.123 51.7363 8.99772 51.7363Z" fill="#00003A"/>
<path d="M11.534 16.1003C11.0332 16.1186 10.5325 16.4943 10.5325 17.1723V17.5772C6.61519 18.7597 7.59241 24.5648 11.4949 24.5648C13.6698 24.5648 13.386 27.7417 11.6123 27.7417C10.7692 27.7417 10.1847 27.3442 9.97103 26.5464C9.64 25.2303 7.66369 25.7594 8.03439 27.0648C8.36949 28.3155 9.35115 29.233 10.5325 29.5668V29.7409C10.5022 31.1063 12.5659 31.1063 12.5356 29.7409V29.5433C16.4793 27.9936 15.1201 22.5616 11.5751 22.5616C9.3599 22.5616 9.64952 19.3554 11.446 19.3554C12.4302 19.3554 12.9026 19.847 13.099 20.58C13.4244 21.9126 15.4269 21.3705 15.0356 20.0558C14.7005 18.8049 13.7172 17.8874 12.5356 17.5538V17.1723C12.5356 16.4211 12.0348 16.082 11.534 16.1003Z" fill="#00003A"/>
</svg>
