<svg width="63" height="64" viewBox="0 0 63 64" fill="none" xmlns="http://www.w3.org/2000/svg">
<path d="M43.5219 1.99805C40.9543 1.99805 39.4097 3.79656 38.7038 5.75395L34.896 16.3452C40.0726 16.9156 44.3769 18.5004 47.5138 20.8153V27.8512C47.5138 28.5725 47.3268 29.7948 47.2231 30.359L54.7329 48.7043C57.6925 44.9237 61.0984 38.9351 61.0984 32.0453C61.0984 18.6492 54.3378 1.99805 54.3378 1.99805H43.5219ZM7.76454 2.00392C7.76454 2.00392 1.00391 18.6551 1.00391 32.0512C1.00391 38.941 4.33159 45.0548 7.29114 48.8354L14.7934 30.0402C14.6154 28.9794 14.6584 28.9031 14.6584 27.8845C14.6584 25.3916 14.6701 23.5043 14.6701 21.0115C16.8212 18.7435 22.0352 16.9156 27.2118 16.3452L23.3985 5.75982C22.6926 3.80243 21.148 2.00392 18.5804 2.00392H7.76454Z" fill="#5575FF"/>
<path d="M30.125 40.124H31.5C33.5775 40.124 35.25 41.7965 35.25 43.874V45.999C35.25 48.0765 33.5775 49.749 31.5 49.749H30.125C28.0475 49.749 26.375 48.0765 26.375 45.999V43.874C26.375 41.7965 28.0475 40.124 30.125 40.124Z" fill="#5575FF"/>
<path d="M54.1633 0.998047H43.5235C40.4881 0.998047 38.5621 3.19942 37.7645 5.41124L34.3841 14.7854C27.9302 14.12 19.9092 15.4749 14.7282 18.8445L9.17458 3.00902H18.578C20.678 3.00902 21.8392 4.39688 22.4533 6.09982L24.922 12.9446C25.3755 14.2015 27.2612 13.5227 26.8078 12.2658L24.3371 5.41906C23.5395 3.20721 21.6134 1.00587 18.578 1.00587H7.95782C7.31108 1.00587 6.94007 1.30741 6.83692 1.62599C6.83692 1.62599 0.00195312 18.3177 0.00195312 32.0508C0.00195312 38.9608 2.93542 44.5358 5.87056 48.4164L4.11976 52.7728C1.84294 58.9049 5.96066 63.0996 10.8706 63.0996H51.2309C57.3651 63.0996 59.9919 57.4574 57.9818 52.7728L56.229 48.4105C59.1638 44.5297 62.0957 38.9522 62.0957 32.043C62.0957 18.3099 55.2646 1.61816 55.2646 1.61816C55.0495 1.0729 54.5978 0.998047 54.1633 0.998047ZM43.5235 3.0012H52.9289L47.3714 18.8425C44.4389 16.9761 40.6818 15.6315 36.4303 15.0142L39.6424 6.09199C40.2565 4.38906 41.4235 3.0012 43.5235 3.0012ZM54.3648 4.93784C56.1845 9.9885 60.0925 21.9746 60.0925 32.043C60.0925 37.8323 57.8448 42.6569 55.3527 46.2313C53.8491 42.4935 52.351 38.7534 50.8456 35.0164C50.3613 33.7452 48.4566 34.5111 48.9872 35.7636C51.349 41.713 53.7513 47.6174 56.1234 53.5201C57.7176 57.5535 55.4263 61.0965 51.2309 61.0965H10.8706C6.58558 61.0965 4.4503 57.4983 5.97815 53.5201C8.68118 46.7985 11.3768 40.0872 14.0807 33.3595C15.8191 38.7488 20.0414 43.0024 25.4169 44.7817V46.0767C25.4169 48.695 27.5522 50.8303 30.1705 50.8303H31.5535C34.1718 50.8303 36.3071 48.695 36.3071 46.0767V44.8991C43.6079 42.6626 48.8913 35.8946 48.8913 27.8586V20.5405L54.3648 4.93784ZM7.73677 4.93979L13.2102 20.5483V27.8586C13.2102 28.533 13.2611 29.1933 13.3335 29.8481L6.74889 46.2332C4.25615 42.6598 2.0051 37.8401 2.0051 32.0508C2.0051 21.9758 5.918 9.9842 7.73677 4.93979ZM46.8882 20.9963V27.8586C46.8882 34.8546 42.4128 40.7269 36.1662 42.8431C35.665 40.7542 33.7908 39.185 31.5535 39.185H30.1705C27.9735 39.185 26.1358 40.7012 25.5949 42.7336C19.5278 40.5207 15.2153 34.7263 15.2153 27.8586V20.9963C23.3646 15.4414 37.6482 14.8082 46.8882 20.9963ZM30.1705 41.1882H31.5535C33.0967 41.1882 34.3039 42.4032 34.3039 43.9464V46.0767C34.3039 47.62 33.0967 48.8272 31.5535 48.8272H30.1705C28.6273 48.8272 27.422 47.62 27.422 46.0767V43.9464C27.422 42.4032 28.6273 41.1882 30.1705 41.1882Z" fill="#00003A"/>
</svg>
