<svg width="63" height="58" viewBox="0 0 63 58" fill="none" xmlns="http://www.w3.org/2000/svg">
<path d="M13.1504 32.2812L15.9707 53.3399C16.1984 54.9863 17.3087 56.3399 18.9707 56.3399H23.3457C25.0077 56.3399 26.5734 54.9863 26.3457 53.3399L24.3926 39.2246H26.5527C28.2147 39.2246 29.5527 37.8867 29.5527 36.2247V34.1523L23.5254 32.2812C20.0671 32.2812 16.6087 32.2812 13.1504 32.2812Z" fill="#5575FF"/>
<path d="M55.6577 16.7334C58.8932 16.7334 61.4989 19.3391 61.4989 22.5745C61.4989 25.8101 58.8932 28.4147 55.6577 28.4147H54.79V16.7334H55.6577Z" fill="#5575FF"/>
<path d="M29.9146 24.9266C31.3904 27.4828 34.659 28.3587 37.2152 26.8828C39.7715 25.407 40.6473 22.1384 39.1714 19.5821C37.6956 17.0259 31.6126 14.023 30.2461 14.8119C28.6804 15.7159 28.4387 22.3704 29.9146 24.9266H29.9146Z" fill="#5575FF"/>
<path d="M49.8654 24.9266C48.3896 27.4828 45.121 28.3587 42.5647 26.8828C40.0085 25.407 39.1327 22.1384 40.6085 19.5821C42.0844 17.0259 48.1674 14.023 49.5339 14.8119C51.0995 15.7159 51.3413 22.3704 49.8653 24.9266H49.8654Z" fill="#5575FF"/>
<path d="M50.668 0.657227C48.7147 0.657227 47.0821 2.08136 46.7402 3.94044L23.2285 11.2393C22.8103 11.3693 22.5253 11.7583 22.5254 12.1963V31.9482H11.7344C6.5459 31.9482 2.5 27.5781 2.5 22.4346C2.5 17.3004 6.60018 13.2002 11.7344 13.2002H18.8887C20.2511 13.2304 20.2511 11.1708 18.8887 11.2002H11.7344C5.52639 11.2002 0.5 16.2266 0.5 22.4346C0.5 28.6333 5.42212 33.9502 11.7344 33.9502H12.3652L14.9805 53.4736C15.397 55.9806 17.1378 57.3408 18.9707 57.3408H23.3457C25.7368 57.3408 27.5873 55.3374 27.3359 53.2022L25.541 40.2237H26.5527C28.9395 40.2237 30.5527 38.1099 30.5527 36.1807L46.7402 41.208C47.0821 43.0671 48.7147 44.4912 50.668 44.4912H52.1426C54.3413 44.4912 56.1367 42.6879 56.1367 40.4892V29.3955C59.685 29.1472 62.5 26.1836 62.5 22.5732C62.5 20.2724 61.367 18.2327 59.6211 16.9951C58.2969 16.2306 57.3458 17.9811 58.4629 18.626C59.6978 19.5014 60.5 20.9273 60.5 22.5732C60.5 25.1072 58.6017 27.128 56.1367 27.3681V4.65925C56.1367 2.46055 54.3413 0.657227 52.1426 0.657227H50.668ZM50.668 2.65922H52.1426C53.2679 2.65922 54.1445 3.53393 54.1445 4.65925V40.4892C54.1445 41.6145 53.2679 42.4912 52.1426 42.4912H50.668C49.5427 42.4912 48.666 41.6145 48.666 40.4892V27.4853C49.455 26.9809 50.162 26.293 50.7324 25.4249C52.2646 22.905 52.5173 12.5899 48.6218 13.7999L48.666 4.65925C48.666 3.44542 49.6681 2.68843 50.668 2.65922ZM46.666 6.05766V14.1826C44.6597 14.8368 41.3435 16.8282 39.8887 18.8624C39.6007 18.1341 37.0146 16.0314 35.127 15.0538C30.6592 12.2639 27.9375 13.6089 27.9375 19.2178C27.8615 21.4369 28.1133 23.8008 29.0508 25.4249C30.4896 27.917 33.3753 29.0793 36.0488 28.4228C36.3829 28.3408 36.7164 28.2293 37.0391 28.0906C38.3029 27.5802 37.4905 25.688 36.25 26.2528C36.0285 26.348 35.8054 26.4176 35.5781 26.4735C33.7538 26.9215 31.7728 26.1495 30.7793 24.4285C30.2411 23.4963 29.8701 21.2572 29.9375 19.284C29.9375 15.0121 30.6105 14.9832 34.2109 16.8329C35.9847 17.7516 37.7833 19.1712 38.3086 20.0809C38.7814 20.8998 38.6934 22.546 38.6934 23.8544V36.6141L24.5254 32.2176V12.9325L46.666 6.05766ZM49.8398 19.2842C49.9075 21.2573 49.5363 23.4965 48.998 24.4288C47.7924 26.5169 45.1507 27.2223 43.0625 26.0167C40.9743 24.811 40.269 22.1692 41.4746 20.0811C41.9998 19.1713 43.7985 17.7517 45.5723 16.833C50.1501 14.1959 49.727 16.5525 49.8398 19.2842ZM40.6934 26.6748C42.4519 28.2776 44.6571 28.7971 46.666 28.3292V39.0888L40.6934 37.2354V26.6748ZM14.3828 33.9502H23.3613L28.5527 35.5616V36.2256C28.5527 37.3509 27.678 38.2256 26.5527 38.2256H24.3926C23.7861 38.2259 23.3195 38.7596 23.4023 39.3604L25.3555 53.4775C25.5512 54.8152 24.3514 55.3389 23.3457 55.3389H18.9707C17.6838 55.3389 17.118 54.3019 16.9609 53.2022L14.3828 33.9502Z" fill="#00003A"/>
</svg>
