<svg width="40" height="63" viewBox="0 0 40 63" fill="none" xmlns="http://www.w3.org/2000/svg">
<path d="M1.83203 1.00391L13.7512 21.9255C16.7639 21.9255 20.0501 21.9255 23.0764 21.9255L14.8232 1.00391H1.83203Z" fill="#5575FF"/>
<path d="M25.5297 50.8975C24.2245 51.847 22.2927 50.2722 20.6786 50.2733C19.0645 50.2743 17.1347 51.8517 15.8282 50.9038C14.5218 49.956 15.4225 47.632 14.9227 46.0972C14.423 44.5624 12.3265 43.2145 12.8243 41.679C13.322 40.1437 15.8106 40.2822 17.1158 39.3326C18.421 38.383 19.0551 35.9725 20.6692 35.9715C22.2833 35.9704 22.9206 38.3801 24.227 39.328C25.5335 40.2758 28.0219 40.134 28.5216 41.6688C29.0214 43.2036 26.9267 44.5542 26.4289 46.0896C25.9312 47.625 26.8349 49.9479 25.5297 50.8975Z" fill="#5575FF"/>
<path d="M25.2194 0.999023L16.2677 23.874C15.716 25.2739 16.1968 27.3739 18.5548 27.3739H21.3125C22.4205 27.3739 23.4444 26.8197 24.0723 25.7803L38.1896 0.999023H25.2194Z" fill="#5575FF"/>
<path d="M1.72993 0.00585938C1.00873 0.0789192 0.601557 0.869029 0.961145 1.49844L12.4088 21.5945C11.4959 22.3309 10.8967 23.4431 10.8967 24.699V28.8324C5.58335 32.1007 2.18882 37.775 2.17986 44.0478C2.18051 54.0018 10.2737 62.0961 20.2278 62.0957C30.1818 62.0961 38.275 54.0018 38.2757 44.0478C38.2724 38.8514 36.0363 33.9795 32.2486 30.5989C31.253 29.7066 29.9149 31.2011 30.9106 32.0934C34.2772 35.0982 36.2696 39.4257 36.2725 44.0478C36.2719 52.9192 29.0993 60.0929 20.2278 60.0925C11.3563 60.0929 4.18359 52.9192 4.18301 44.0478C4.19132 38.2482 7.33133 32.9087 12.3912 30.0746C12.7063 29.8971 12.8997 29.5637 12.8998 29.2022V24.699C12.8998 23.5719 13.7779 22.6958 14.9049 22.6958H15.7129L15.3783 23.5507C14.4009 26.2423 16.096 28.4236 18.6002 28.4236H21.3663C23.0856 28.4236 24.4039 27.3576 24.997 26.3226L26.8084 23.1438C27.2613 23.5059 27.5537 24.0572 27.5537 24.699V29.1865C27.5537 30.5222 29.5588 30.5222 29.5588 29.1865V24.699C29.5588 23.3279 28.868 22.11 27.81 21.3871L39.1403 1.50431C39.5178 0.8364 39.0351 0.00943935 38.2678 0.00977178H25.4704C24.7462 0.00977178 24.4745 0.274881 24.2595 0.872456L16.4914 20.7064C15.7611 20.6458 14.9306 20.6943 14.2359 20.7612L3.56289 2.00901H14.142C15.2513 4.84358 16.3603 7.68388 17.4695 10.5185C17.9261 11.8307 19.8925 11.059 19.3338 9.78686C18.1407 6.738 16.947 3.69045 15.7539 0.641625C15.6036 0.258383 15.2345 0.00623797 14.8228 0.00585938H1.72993ZM25.9575 2.00901H36.5386L23.2736 25.3054C22.8124 26.0689 22.142 26.4224 21.3663 26.4224H18.6002C17.2098 26.4224 16.8869 25.3478 17.2406 24.2784L25.9575 2.00901ZM17.5321 36.9565C16.0261 39.1089 16.2983 38.8054 13.9151 39.5876C11.24 40.3695 10.5158 42.5083 12.2386 44.7403C13.9072 46.9281 13.6271 46.67 13.6236 48.9911C13.5857 52.1376 15.6439 53.0472 18.0055 52.1758C20.7689 51.1858 20.2607 51.5368 22.4794 52.1738C25.4814 53.1733 26.9368 51.516 26.8573 48.9871C26.8573 45.85 26.9331 46.649 28.2404 44.7343C30.0942 42.3134 28.9975 40.2644 26.5639 39.5837C24.0133 38.7986 24.2133 38.7394 22.943 36.9584C21.2607 34.5226 19.0778 34.7247 17.5321 36.9564V36.9565ZM21.3252 38.1361C23.0936 40.8519 23.6264 40.765 25.9457 41.493C27.3967 41.9456 27.494 42.4036 26.6187 43.5587C24.7692 45.8528 24.7696 46.4541 24.8522 48.9891C24.8766 50.5121 24.4866 50.7166 23.0936 50.2685C20.5075 49.3765 20.1524 49.2132 17.3874 50.2705C15.9283 50.7079 15.6229 50.5392 15.6229 48.9931C15.8341 45.8742 15.1939 45.2727 13.8623 43.5607C12.9496 42.3418 13.1412 41.9368 14.5333 41.493C17.217 40.772 17.6679 40.363 19.1519 38.1362C20.1821 36.6351 20.6207 37.228 21.3252 38.1362V38.1361Z" fill="#00003A"/>
</svg>
