<svg width="62" height="62" viewBox="0 0 62 62" fill="none" xmlns="http://www.w3.org/2000/svg">
<path d="M29.4315 9.75C27.8344 9.75 26.7537 10.4691 25.9466 11.867L18.4106 26.0602C17.2755 28.195 18.831 29.5172 20.0019 29.5172H21.8195C25.5226 29.5172 24.7392 26.9788 27.3059 26.9788H34.6561C37.2228 26.9788 36.4395 29.5172 40.1425 29.5172H42.3039C43.3498 29.5172 45.057 28.1828 43.8952 25.9977L36.0155 11.867C35.2084 10.4691 34.1276 9.75 32.5306 9.75H29.4315ZM33.0046 18.1401C34.3569 20.7138 35.2256 21.9919 31.2665 21.9919C27.6343 21.9919 27.3319 21.339 28.8011 18.5597C30.5992 15.4453 31.4448 15.4383 33.0046 18.1401Z" fill="#5575FF"/>
<path d="M4 39.2451C2.33803 39.2451 1 40.5832 1 42.2452V44.3018V47.2451C1 48.8011 2.33803 50.2452 4 50.2452H7.64063L5.93557 58.0635C5.5837 59.6879 6.63879 60.9952 8.3008 60.9952H11.3164C12.9784 60.9952 14.5995 59.6879 14.9512 58.0635L16.6563 50.2452H26.4258V57.7998C26.4258 59.4619 27.7638 60.7999 29.4258 60.7999H32.5352C34.1972 60.7999 35.5352 59.4619 35.5352 57.7998V50.2452H44.3203L46.0117 58.0635C46.3636 59.6879 47.9845 60.9952 49.6465 60.9952H52.6621C54.3241 60.9952 55.3791 59.6879 55.0274 58.0635L53.336 50.2452H58C59.662 50.2452 61 48.9071 61 47.2451V42.2452C61 40.5832 59.662 39.2451 58 39.2451H4Z" fill="#5575FF"/>
<path d="M9.97852 -0.000976562C6.67181 -0.000976562 3.97852 2.68645 3.97852 5.99312V34.9736C4.00876 36.2777 5.94958 36.2777 5.97853 34.9736V5.99312C5.97853 3.75983 7.74523 1.99905 9.97852 1.99905H51.9824C54.2157 1.99905 55.9844 3.75983 55.9844 5.99312V38.2432H3.99999C1.80128 38.2432 0 40.0464 0 42.2451V44.3037V47.2431C0 49.3724 1.75877 51.2432 3.99999 51.2432H6.38869L4.95897 57.8505C4.48796 60.1806 6.0709 61.9991 8.29686 61.9991H11.3164C13.5028 61.9991 15.467 60.4154 15.9297 58.2784L17.4492 51.2432H43.5098L45.0351 58.2784C45.4978 60.4154 47.464 61.9991 49.6504 61.9991H52.6621C55.1606 61.9991 56.4223 59.9315 56.0059 57.8505L54.5723 51.2432H57.9981C60.1968 51.2432 62 49.4418 62 47.2431V42.2451C62 39.5881 59.9641 38.2432 57.9829 38.2432V5.99312C57.9829 2.68641 55.2877 -0.000976562 51.981 -0.000976562H9.97852ZM29.4316 8.75291C27.6368 8.75291 26.0572 9.67162 25.0684 11.3818L17.5234 25.5908C16.3051 27.8978 17.5575 30.4687 20.0039 30.5146H21.8203C23.9003 30.5146 25.0822 29.6223 25.7246 28.9288C26.4376 28.1013 26.7216 27.9756 27.3047 27.9756H34.6563C35.5475 27.9756 35.817 28.4862 36.2363 28.9288C36.8788 29.6223 38.0626 30.5146 40.1426 30.5146H42.3047C44.6795 30.5146 46.0324 27.81 44.7695 25.5166L36.8867 11.3741C35.9486 9.68842 34.3152 8.75291 32.5313 8.75291H29.4316ZM29.4316 10.7529H32.5313C33.828 10.7529 34.4643 11.1784 35.1523 12.3701L43.0137 26.4697C43.6306 27.5727 43.2151 28.5147 42.3047 28.5147H40.1426C38.5195 28.5147 38.2384 28.145 37.7051 27.5693C36.6918 26.365 35.9107 25.9814 34.6563 25.9814H27.3047C25.7035 25.9814 25.1121 26.6455 24.2559 27.5693C23.7225 28.145 23.4433 28.5147 21.8203 28.5147H20.0039C18.823 28.5147 18.8266 27.3396 19.2949 26.5284L26.8105 12.3701C27.4348 11.2461 28.1333 10.7529 29.4316 10.7529ZM28.9883 16.4814C27.9842 17.7621 27.0948 19.4109 26.9277 20.5928C26.8162 21.7614 27.3969 22.3871 28.4189 22.7103C30.2648 23.1082 32.2825 23.0894 33.9629 22.6008C35.0265 22.3158 35.3349 21.2757 35.068 20.2794C34.7922 18.9328 33.6963 17.3241 32.9219 16.2394C31.6566 14.6081 30.1837 14.8223 28.9883 16.4817V16.4814ZM31.5434 17.7217C32.0886 18.4511 32.5042 19.3464 32.8555 20.0849C33.0792 20.7076 32.9171 20.8304 32.6347 20.8955C31.6469 21.0584 30.56 20.9662 29.6601 20.8955C28.8801 20.792 28.9901 20.4886 29.0624 20.29C29.4207 19.3539 30.0461 18.3989 30.5605 17.7138C30.9576 17.2302 31.2251 17.2838 31.5433 17.7214L31.5434 17.7217ZM3.99999 40.2451C21.9934 40.2451 40.015 40.2451 57.9981 40.2451C59.1233 40.2451 60 41.1198 60 42.2451V47.2431C60 48.3684 59.1233 49.2431 57.9981 49.2431C40.0874 49.2129 21.9838 49.2431 3.99999 49.2431C2.91723 49.2431 2.00001 48.2258 2.00001 47.2431V44.3037V42.2451C2.00001 41.1198 2.87471 40.2451 3.99999 40.2451ZM8.43556 51.2432H15.4023L13.9726 57.8505C13.7319 58.9622 12.454 59.999 11.3164 59.999H8.29686C7.10967 59.999 6.68591 59.108 6.90822 58.2784L8.43556 51.2432ZM45.5586 51.2432H52.5293L54.0488 58.2784C54.1815 59.4912 53.5903 59.999 52.6621 59.999H49.6504C48.5128 59.999 47.2329 58.9622 46.9922 57.8505L45.5586 51.2432ZM25.4258 53.3701V57.7998C25.4258 59.9985 27.2271 61.7997 29.4258 61.7997H32.5352C34.7339 61.7997 36.5351 59.9985 36.5351 57.7998V53.3701C36.554 52.0178 34.516 52.0178 34.5352 53.3701V57.7998C34.5352 58.9251 33.6604 59.7998 32.5352 59.7998H29.4258C28.3005 59.7998 27.4258 58.9251 27.4258 57.7998V53.3701C27.4258 52.0192 25.4258 52.0229 25.4258 53.3701Z" fill="#00003A"/>
</svg>
