<svg width="64" height="64" viewBox="0 0 64 64" fill="none" xmlns="http://www.w3.org/2000/svg">
<path d="M15.501 2.00195C12.7267 2.00195 10.4932 4.23549 10.4932 7.00983V41.0771C10.4932 43.8514 12.7949 46.8895 15.501 47.5012C19.985 48.5148 26.3961 49.882 32.0505 50.8659C37.7049 49.882 44.116 48.5148 48.6 47.5012C51.3061 46.8895 53.6078 43.8514 53.6078 41.0771V7.00983C53.6078 4.23549 51.3743 2.00195 48.6 2.00195H37.0153C34.241 2.00195 32.0505 4.23549 32.0505 7.00983C32.0505 4.23549 29.86 2.00195 27.0857 2.00195H15.501Z" fill="#5575FF"/>
<path d="M15.4974 1.04106C12.2084 1.04106 9.53099 3.72041 9.53099 7.00942V11.2211L7.0114 11.2231C3.69949 11.2231 1.00195 13.9206 1.00195 17.2325V46.1295C1.00195 53.323 3.30716 55.7603 8.75242 57.3953L31.8121 63.0507C31.9689 63.0891 32.1326 63.0891 32.2894 63.0507L55.3491 57.3933C62.098 55.4493 63.0991 51.5173 63.0996 46.1276V17.2306C63.0996 13.9187 60.402 11.2211 57.0901 11.2211C55.7357 11.202 55.7357 13.2434 57.0901 13.2243C59.327 13.2243 61.0964 14.9937 61.0964 17.2306V46.1276C61.0964 50.7493 60.1564 54.0302 54.8327 55.4567L32.0508 61.0436L9.26886 55.4567C3.84611 54.0037 3.00939 50.4746 3.0051 46.1276V17.2306C3.0051 14.9937 4.77459 13.2243 7.0114 13.2243H9.53099V41.0786C9.53099 44.3833 12.0319 47.6975 15.29 48.4339C19.7764 49.448 26.1816 50.8182 31.8552 51.8064C31.9706 51.8326 32.1811 51.818 32.2758 51.8005C37.9422 50.8127 44.3328 49.4463 48.8115 48.4339C52.0696 47.6974 54.5647 44.3833 54.5647 41.0786V7.00942C54.5647 3.72041 51.8873 1.04106 48.5983 1.04106H37.0117C33.7227 1.04106 31.0903 3.73025 31.0903 7.00942V42.5125C31.0933 44.9021 31.0909 47.4435 31.0903 49.7133C25.745 48.7536 19.8932 47.5092 15.7106 46.5638C13.5565 46.0769 11.452 43.3225 11.452 41.0786V7.00942C11.452 4.74976 13.2377 2.95618 15.4974 2.95618H27.082C28.4317 3.03115 28.4317 0.966084 27.082 1.04106H15.4974ZM37.0117 2.95618H48.5983C50.858 2.95618 52.6496 4.74976 52.6496 7.00942V41.0786C52.6496 43.3225 50.545 46.0769 48.3909 46.5638C44.2225 47.506 38.344 48.7336 33.0132 49.6918C33.0139 47.4296 33.0162 44.8963 33.0132 42.5125V7.00942C33.0132 4.73992 34.752 2.95618 37.0117 2.95618ZM15.4935 9.66986C14.1277 9.6392 14.1277 11.7037 15.4935 11.673H27.0507C28.4165 11.7037 28.4165 9.6392 27.0507 9.66986H15.4935ZM37.0489 9.66986C35.6831 9.6392 35.6831 11.7037 37.0489 11.673H48.6061C49.9718 11.7037 49.9718 9.6392 48.6061 9.66986H37.0489ZM15.3898 17.0643C14.0852 17.1609 14.1859 19.106 15.4935 19.0674H17.0389C18.4046 19.0981 18.4046 17.0336 17.0389 17.0643C16.4946 17.0643 15.9255 17.0643 15.3898 17.0643ZM20.6618 17.0643C19.3572 17.1609 19.4579 19.106 20.7654 19.0674H27.0507C28.4165 19.0981 28.4165 17.0336 27.0507 17.0643C24.9249 17.0643 22.7796 17.0643 20.6618 17.0643ZM36.953 17.0643C35.649 17.1564 35.742 19.1003 37.0489 19.0674H43.3341C44.6999 19.0981 44.6999 17.0336 43.3341 17.0643H37.0489C37.0169 17.0628 36.9849 17.0628 36.953 17.0643ZM46.957 17.0643C45.6524 17.1609 45.7531 19.106 47.0607 19.0674H48.6061C49.9718 19.0981 49.9718 17.0336 48.6061 17.0643C48.0618 17.0643 47.4927 17.0643 46.957 17.0643ZM15.4935 31.0472C14.1277 31.0166 14.1277 33.081 15.4935 33.0504H27.0507C28.4165 33.081 28.4165 31.0166 27.0507 31.0472H15.4935ZM36.953 31.0531C35.649 31.1452 35.742 33.0891 37.0489 33.0563H48.6061C49.9718 33.0869 49.9718 31.0225 48.6061 31.0531C44.5494 31.0531 40.4299 31.0531 36.953 31.0531ZM37.0489 38.4378C35.7121 38.4378 35.7121 40.4429 37.0489 40.4429H43.3341C44.6709 40.4429 44.6709 38.4378 43.3341 38.4378H37.0489ZM47.0607 38.4378C45.724 38.4378 45.724 40.4429 47.0607 40.4429H48.6061C49.9428 40.4429 49.9428 38.4378 48.6061 38.4378H47.0607ZM15.3898 38.4417C14.0852 38.5383 14.1859 40.4834 15.4935 40.4448H17.0389C18.4046 40.4755 18.4046 38.411 17.0389 38.4417C16.4946 38.4417 15.9255 38.4417 15.3898 38.4417ZM20.6618 38.4417C19.3572 38.5383 19.4579 40.4834 20.7654 40.4448H27.0507C28.4165 40.4755 28.4165 38.411 27.0507 38.4417C24.9249 38.4417 22.7796 38.4417 20.6618 38.4417Z" fill="#00003A"/>
</svg>
