<svg width="63" height="63" viewBox="0 0 63 63" fill="none" xmlns="http://www.w3.org/2000/svg">
<path d="M57.9651 27.895C61.0628 49.3039 35.5279 67.0204 16.6409 53.0239C15.1816 52.1663 13.3777 53.4289 13.6471 55.0999C18.8069 58.9383 25.0693 60.9841 31.5002 60.9965C48.0688 60.9965 61.5002 47.5651 61.5002 30.9965C61.5001 29.2939 61.3551 27.5944 61.0667 25.9164C59.5201 25.0095 57.7411 26.2203 57.9651 27.895Z" fill="#5575FF"/>
<path d="M40.6931 26.5151C45.2332 26.5151 48.9136 22.8347 48.9136 18.2946C48.9136 13.7546 45.2332 10.0742 40.6931 10.0742C36.1531 10.0742 32.4727 13.7546 32.4727 18.2946C32.4727 22.8347 36.1531 26.5151 40.6931 26.5151Z" fill="#5575FF"/>
<path d="M23.4806 1.05519C22.3837 1.34923 22.7524 3.31756 23.9982 2.9889C37.2567 -0.563708 50.8787 5.65673 57.0958 17.3639H49.8673C49.3994 12.7177 45.4622 9.0748 40.6955 9.0748C40.0527 9.0748 39.4247 9.14211 38.8185 9.26835L40.5333 7.19992C41.5654 6.16784 39.837 4.80845 38.9962 5.92262C37.2739 8.00839 35.5143 10.1052 33.8087 12.1882C32.3626 13.817 31.4748 15.9516 31.4748 18.2936C31.4748 23.3739 35.6152 27.5144 40.6955 27.5144C43.8312 27.5144 46.6033 25.9342 48.2697 23.532V48.5749C48.2697 50.3842 48.9523 52.0316 50.0665 53.2878C47.5187 55.4093 44.5662 57.1283 41.2677 58.3074C26.6089 63.5471 10.4499 56.2952 4.61733 41.862C-1.21524 27.4289 5.36535 10.9946 19.549 4.57889C20.7678 4.02885 19.9416 2.20057 18.7228 2.75071C3.58065 9.60001 -3.46488 27.2014 2.76186 42.61C8.98859 58.0186 26.2902 65.7841 41.9396 60.1902C45.5789 58.8894 48.8223 56.9669 51.6056 54.5925C52.702 55.283 53.9949 55.6902 55.3849 55.6902C59.3114 55.6902 62.5001 52.5014 62.5001 48.5749V31.2136C62.5224 28.0836 62.0759 24.9005 61.0958 21.7605C55.8888 5.50547 39.733 -2.77136 23.4806 1.05519ZM40.6955 11.0747C44.6949 11.0747 47.9142 14.2941 47.9142 18.2935C47.9142 22.2929 44.6949 25.5143 40.6955 25.5143C36.696 25.5143 33.4748 22.2929 33.4748 18.2935C33.4748 14.0552 36.5141 11.1417 40.6955 11.0747ZM50.2697 19.3639H58.0626C60.0278 23.4368 60.46 27.5807 60.5001 31.2974C60.4236 39.1319 57.1582 46.5887 51.5548 51.9537C50.7633 51.0547 50.2697 49.8843 50.2697 48.5748V19.3639ZM60.5001 41.94V48.5748C60.5001 51.4279 58.238 53.69 55.3849 53.69C54.5822 53.69 53.8362 53.4954 53.1642 53.1744C56.4128 49.9952 58.9088 46.1492 60.5001 41.94Z" fill="#00003A"/>
<path d="M22.3789 15.7324C22.0424 15.7324 21.7092 15.7987 21.3983 15.9275C21.0874 16.0562 20.8049 16.245 20.5669 16.483C20.329 16.7209 20.1402 17.0034 20.0115 17.3143C19.8827 17.6252 19.8164 17.9585 19.8164 18.295C19.8164 18.9746 20.0864 19.6263 20.567 20.1069C21.0475 20.5874 21.6993 20.8574 22.3789 20.8574C23.0585 20.8574 23.7103 20.5874 24.1909 20.1069C24.6714 19.6263 24.9414 18.9746 24.9414 18.295C24.9414 17.9585 24.8751 17.6252 24.7463 17.3143C24.6176 17.0034 24.4288 16.7209 24.1909 16.483C23.9529 16.245 23.6704 16.0562 23.3595 15.9275C23.0486 15.7987 22.7154 15.7324 22.3789 15.7324Z" fill="#00003A"/>
<path d="M25.1338 33.2128C24.0855 34.0396 25.3257 35.612 26.3739 34.7853C28.7069 33.0256 32.297 33.42 34.147 34.7928C35.2051 35.6048 36.4231 34.0177 35.3651 33.2057C32.101 30.8916 28.3401 30.6997 25.1338 33.2133V33.2128Z" fill="#00003A"/>
</svg>
