<svg width="64" height="64" viewBox="0 0 64 64" fill="none" xmlns="http://www.w3.org/2000/svg">
<path d="M58.4651 28.895C61.5628 50.3039 36.0279 68.0204 17.1409 54.0239C15.6816 53.1663 13.8777 54.4289 14.1471 56.0999C19.3069 59.9383 25.5693 61.9841 32.0002 61.9965C48.5688 61.9965 62.0002 48.5651 62.0002 31.9965C62.0001 30.2939 61.8551 28.5944 61.5667 26.9164C60.0201 26.0095 58.2411 27.2203 58.4651 28.895Z" fill="#5575FF"/>
<path d="M31.4962 0.998386C29.0073 1.03958 26.485 1.38292 23.9767 2.05503C22.8798 2.34908 23.2485 4.3173 24.4943 3.98863C39.5309 -0.040424 55.0416 8.49574 59.6798 23.3558C64.3181 38.2159 56.4226 54.0672 41.7638 59.307C27.105 64.5468 10.946 57.2948 5.1134 42.8617C-0.719172 28.4285 5.86144 11.9942 20.0451 5.5785C21.2639 5.02847 20.4377 3.20018 19.2189 3.75033C4.07675 10.5996 -2.96878 28.201 3.25795 43.6097C9.48468 59.0183 26.7862 66.7836 42.4357 61.1897C58.0851 55.5958 66.5437 38.6244 61.5919 22.7601C57.4139 9.37455 44.9362 0.775129 31.4962 0.998386Z" fill="#00003A"/>
<path d="M22.9113 11.8018C22.2306 11.8018 21.5778 12.0722 21.0964 12.5535C20.6151 13.0348 20.3447 13.6876 20.3447 14.3683C20.3447 15.049 20.6151 15.7018 21.0964 16.1831C21.5778 16.6644 22.2306 16.9348 22.9113 16.9348C23.592 16.9348 24.2448 16.6644 24.7261 16.1831C25.2074 15.7018 25.4778 15.049 25.4778 14.3683C25.4778 13.6876 25.2074 13.0348 24.7261 12.5535C24.2448 12.0722 23.592 11.8018 22.9113 11.8018Z" fill="#00003A"/>
<path d="M35.8779 16.6542C35.8779 10.3318 45.3046 10.3363 45.3046 16.6542C45.3046 17.9878 43.3041 17.9878 43.3041 16.6542C43.1004 13.0034 37.9436 13.4297 37.8784 16.6542C37.8784 17.9878 35.8779 17.9878 35.8779 16.6542Z" fill="#00003A"/>
<path d="M16.9565 34.965C16.6925 34.9698 16.4411 35.0789 16.2571 35.2684C16.0732 35.4578 15.9717 35.7123 15.9747 35.9763C15.9747 40.4628 19.1714 44.4975 24.0948 46.621C29.0181 48.7445 34.9834 48.7445 39.9068 46.621C44.8301 44.4975 48.0268 40.4628 48.0268 35.9763C48.0268 35.7111 47.9215 35.4566 47.7339 35.2691C47.5463 35.0815 47.2919 34.9761 47.0266 34.9761C46.7613 34.9761 46.5069 35.0815 46.3193 35.2691C46.1317 35.4566 46.0263 35.7111 46.0263 35.9763C46.0263 39.5106 43.4917 42.896 39.1169 44.7829C34.7421 46.6698 29.2594 46.6698 24.8846 44.7829C20.5098 42.896 17.9752 39.5106 17.9752 35.9763C17.9767 35.8425 17.9513 35.7097 17.9006 35.5858C17.8498 35.4619 17.7747 35.3495 17.6797 35.2552C17.5847 35.1609 17.4718 35.0866 17.3475 35.0368C17.2233 34.9869 17.0903 34.9625 16.9565 34.965Z" fill="#00003A"/>
<path d="M17.1191 27.4057C17.1191 28.5309 16.6721 29.6101 15.8764 30.4058C15.0808 31.2014 14.0016 31.6483 12.8764 31.6483C11.7512 31.6483 10.6721 31.2014 9.87643 30.4058C9.08078 29.6101 8.63379 28.5309 8.63379 27.4057C8.63379 26.8486 8.74352 26.2969 8.95673 25.7822C9.16994 25.2674 9.48245 24.7996 9.87642 24.4057C10.2704 24.0117 10.7381 23.6993 11.2528 23.486C11.7676 23.2728 12.3193 23.1631 12.8764 23.1631C13.4336 23.1631 13.9853 23.2728 14.5 23.486C15.0148 23.6993 15.4825 24.0117 15.8764 24.4057C16.2704 24.7996 16.5829 25.2674 16.7961 25.7822C17.0093 26.2969 17.1191 26.8486 17.1191 27.4057Z" fill="#5575FF"/>
<path d="M12.874 22.165C9.99037 22.165 7.63281 24.5226 7.63281 27.4062C7.63281 30.2898 9.99037 32.6473 12.874 32.6473C15.7575 32.6473 18.1225 30.2898 18.1225 27.4062C18.1225 24.5226 15.7575 22.165 12.874 22.165ZM12.874 24.1655C14.6767 24.1655 16.122 25.6035 16.122 27.4062C16.122 29.2089 14.6767 30.6468 12.874 30.6468C11.0712 30.6468 9.6333 29.2089 9.6333 27.4062C9.6333 25.6035 11.0712 24.1655 12.874 24.1655Z" fill="#00003A"/>
<path d="M55.3691 27.4057C55.3691 28.5309 54.9221 29.6101 54.1264 30.4058C53.3308 31.2014 52.2517 31.6483 51.1264 31.6483C50.0012 31.6483 48.9221 31.2014 48.1264 30.4058C47.3308 29.6101 46.8838 28.5309 46.8838 27.4057C46.8838 26.8486 46.9935 26.2969 47.2067 25.7822C47.4199 25.2674 47.7325 24.7996 48.1264 24.4057C48.5204 24.0117 48.9881 23.6993 49.5028 23.486C50.0176 23.2728 50.5693 23.1631 51.1264 23.1631C51.6836 23.1631 52.2353 23.2728 52.75 23.486C53.2648 23.6993 53.7325 24.0117 54.1264 24.4057C54.5204 24.7996 54.8329 25.2674 55.0461 25.7822C55.2593 26.2969 55.3691 26.8486 55.3691 27.4057Z" fill="#5575FF"/>
<path d="M51.1269 24.1655C52.9296 24.1655 54.3675 25.6035 54.3675 27.4062C54.3675 29.2089 52.9296 30.6468 51.1269 30.6468C49.3242 30.6468 47.8862 29.2089 47.8862 27.4062C47.8862 26.7527 48.0743 26.1492 48.403 25.6419C49.2464 24.5011 47.4232 23.3204 46.7273 24.5568C46.1962 25.3764 45.8857 26.3609 45.8857 27.4062C45.8857 30.2898 48.2433 32.6473 51.1269 32.6473C54.0105 32.6473 56.368 30.2898 56.368 27.4062C56.368 24.5226 54.0105 22.165 51.1269 22.165C49.7997 22.165 49.8387 24.1616 51.1269 24.1655Z" fill="#00003A"/>
</svg>
