<svg width="65" height="64" viewBox="0 0 65 64" fill="none" xmlns="http://www.w3.org/2000/svg">
<path d="M58.9651 28.8949C62.0628 50.3038 36.5279 68.0205 17.6409 54.0239C16.1816 53.1664 14.3777 54.429 14.6471 56.1C19.8069 59.9384 26.0693 61.9841 32.5002 61.9966C49.0688 61.9966 62.5002 48.5651 62.5002 31.9966C62.5001 30.294 62.3551 28.5945 62.0667 26.9165C60.5201 26.0096 58.7411 27.2199 58.9651 28.8949Z" fill="#5575FF"/>
<path d="M31.9962 0.998385C29.5073 1.03958 26.985 1.38296 24.4767 2.05503C23.3798 2.34908 23.7485 4.31729 24.9943 3.98863C40.0309 -0.0404253 55.5416 8.49574 60.1798 23.3558C64.8181 38.2159 56.9226 54.0671 42.2638 59.3069C27.605 64.5466 11.446 57.2948 5.6134 42.8617C-0.219172 28.4285 6.36144 11.9941 20.5451 5.57839C21.7639 5.02835 20.9377 3.20018 19.7189 3.75033C4.57675 10.5996 -2.46878 28.201 3.75795 43.6096C9.98468 59.0183 27.2862 66.7836 42.9357 61.1897C58.5851 55.5958 67.0437 38.6244 62.0919 22.7601C57.9139 9.37454 45.4362 0.775166 31.9962 0.998385Z" fill="#00003A"/>
<path d="M13.5954 14.4062C11.4204 14.4062 9.84475 16.221 9.81601 18.2874V20.2905C9.18568 20.2905 8.5304 20.2905 7.90871 20.2905C6.60413 20.3871 6.70481 22.3322 8.01239 22.2937H9.81601V22.7964C9.81601 28.3118 14.2887 32.7848 19.8044 32.7848C25.3201 32.7848 29.7869 28.3118 29.7869 22.7964V22.1195C31.0031 19.5946 34.3249 19.9172 35.3092 22.0961V22.7964C35.3092 28.3118 39.7819 32.7848 45.2976 32.7848C50.8133 32.7848 55.2859 28.3118 55.2859 22.7964V22.2937H57.2167C58.5825 22.3243 58.5825 20.2598 57.2167 20.2905H55.2859V18.1309C55.2859 15.7588 53.5644 14.4355 51.5457 14.4062H39.0866C36.9041 14.4062 35.3383 16.2281 35.3092 18.2874V19.0288C33.731 17.8533 31.2132 17.8039 29.7869 19.0405V18.1309C29.7869 15.7852 28.0925 14.4062 26.0525 14.4062H13.5954ZM13.5954 16.4094H26.0525C27.348 16.4683 27.7818 17.0871 27.7818 18.1309V22.7964C27.7818 27.237 24.2446 30.7816 19.8044 30.7816C15.3641 30.7816 11.8192 27.237 11.8192 22.7964V18.2874C11.8917 16.9703 12.5289 16.4094 13.5954 16.4094ZM39.0866 16.4094H51.5457C52.841 16.4676 53.2828 17.0593 53.2828 18.1309V22.7964C53.2828 27.237 49.7379 30.7816 45.2976 30.7816C40.8573 30.7816 37.3124 27.237 37.3124 22.7964V18.2874C37.3124 16.9881 38.0109 16.4094 39.0866 16.4094Z" fill="#00003A"/>
<path d="M45.5107 20.5322C44.8311 20.5322 44.1793 20.8022 43.6988 21.2828C43.2182 21.7633 42.9482 22.415 42.9482 23.0947C42.9482 23.4312 43.0145 23.7644 43.1433 24.0753C43.2721 24.3862 43.4608 24.6687 43.6988 24.9067C43.9367 25.1446 44.2192 25.3334 44.5301 25.4622C44.841 25.591 45.1742 25.6572 45.5107 25.6572C45.8473 25.6572 46.1805 25.591 46.4914 25.4622C46.8023 25.3334 47.0848 25.1446 47.3227 24.9067C47.5607 24.6687 47.7494 24.3862 47.8782 24.0753C48.007 23.7644 48.0732 23.4312 48.0732 23.0947C48.0732 22.4151 47.8033 21.7633 47.3227 21.2828C46.8421 20.8022 46.1904 20.5322 45.5107 20.5322Z" fill="#00003A"/>
<path d="M19.3945 20.5322C18.7149 20.5322 18.0631 20.8022 17.5826 21.2828C17.102 21.7633 16.832 22.415 16.832 23.0947C16.832 23.4312 16.8983 23.7644 17.0271 24.0753C17.1559 24.3862 17.3446 24.6687 17.5826 24.9067C17.8205 25.1446 18.103 25.3334 18.4139 25.4622C18.7248 25.591 19.058 25.6572 19.3945 25.6572C19.731 25.6572 20.0643 25.591 20.3752 25.4622C20.6861 25.3334 20.9685 25.1446 21.2065 24.9067C21.4444 24.6687 21.6332 24.3862 21.762 24.0753C21.8907 23.7644 21.957 23.4312 21.957 23.0947C21.957 22.415 21.687 21.7633 21.2065 21.2828C20.7259 20.8022 20.0741 20.5322 19.3945 20.5322Z" fill="#00003A"/>
<path d="M16.1462 31.9932C13.8736 31.9932 12.0724 34.0732 12.895 36.8093C15.8324 46.3933 23.6018 53.0599 32.5431 53.0712C42.5984 53.0712 49.8968 43.7502 52.199 36.8093C53.0215 34.0732 51.2204 31.9932 48.9478 31.9932H38.7442V37.2729C38.7442 39.4309 37.0074 41.1677 34.8495 41.1677H30.2446C28.0866 41.1677 26.3498 39.4309 26.3498 37.2729V31.9932H16.1462Z" fill="#5575FF"/>
<path d="M16.1218 30.9414C12.7255 30.9414 11.134 34.2662 11.9187 37.0371C14.6188 47.114 23.3969 53.9882 32.4929 53.9882C42.4157 53.9882 50.0364 45.9007 53.0671 37.0663C53.9397 33.8617 52.0079 30.9433 48.8718 30.9433L16.1218 30.9414ZM16.1218 32.9413H37.6863V37.2089C37.6863 38.8268 36.4117 40.1035 34.7937 40.1035H30.2019C28.5839 40.1035 27.3073 38.8268 27.3073 37.2089V35.5332C27.3073 34.1995 25.3074 34.1995 25.3074 35.5332V37.2089C25.3074 39.9 27.5108 42.1035 30.2019 42.1035H34.7937C37.4848 42.1035 39.6882 39.9 39.6882 37.2089V32.9413H48.8718C50.8508 33.1809 51.5951 34.912 51.1628 36.4491C48.0421 44.5902 40.619 51.8439 32.4949 51.9862C24.5497 51.9862 16.6588 45.6777 13.8327 36.4569C13.3149 34.5241 14.6732 32.9413 16.1218 32.9413Z" fill="#00003A"/>
</svg>
