<svg width="65" height="64" viewBox="0 0 65 64" fill="none" xmlns="http://www.w3.org/2000/svg">
<path d="M17.2817 2.00391C14.8195 2.00391 12.8372 3.98617 12.8372 6.44839V8.13855H10.8282C8.05381 8.13855 5.82031 10.3721 5.82031 13.1464V20.533H59.2794V13.1464C59.2794 10.3721 57.0458 8.13855 54.2715 8.13855H51.7812V6.44839C51.7812 3.98617 49.799 2.00391 47.3368 2.00391C44.8745 2.00391 42.8923 3.98617 42.8923 6.44839V8.13855H21.7262V6.44839C21.7262 3.98617 19.744 2.00391 17.2817 2.00391Z" fill="#5575FF"/>
<path d="M43.834 42.21C41.3756 42.21 39.3965 44.1892 39.3965 46.6475V61.9991L59.1875 42.21H43.834Z" fill="#5575FF"/>
<path d="M13.647 27.0527C13.5156 27.0527 13.3855 27.0786 13.2641 27.1289C13.1428 27.1791 13.0325 27.2527 12.9395 27.3456C12.8466 27.4385 12.7729 27.5488 12.7226 27.6702C12.6724 27.7915 12.6465 27.9216 12.6465 28.053C12.6465 28.1844 12.6724 28.3145 12.7226 28.4359C12.7729 28.5573 12.8466 28.6675 12.9395 28.7604C13.0325 28.8533 13.1428 28.927 13.2641 28.9772C13.3855 29.0275 13.5156 29.0533 13.647 29.0532H16.8286C16.96 29.0533 17.0901 29.0275 17.2114 28.9772C17.3328 28.927 17.4431 28.8533 17.536 28.7604C17.629 28.6675 17.7027 28.5573 17.7529 28.4359C17.8032 28.3145 17.8291 28.1844 17.8291 28.053C17.8291 27.9216 17.8032 27.7915 17.7529 27.6702C17.7027 27.5488 17.629 27.4385 17.536 27.3456C17.4431 27.2527 17.3328 27.1791 17.2114 27.1289C17.0901 27.0786 16.96 27.0527 16.8286 27.0527H13.647Z" fill="#00003A"/>
<path d="M13.647 34.4346C13.5156 34.4345 13.3855 34.4604 13.2641 34.5107C13.1428 34.5609 13.0325 34.6345 12.9395 34.7274C12.8466 34.8203 12.7729 34.9306 12.7226 35.052C12.6724 35.1734 12.6465 35.3034 12.6465 35.4348C12.6465 35.5662 12.6724 35.6963 12.7226 35.8176C12.7729 35.939 12.8466 36.0493 12.9395 36.1422C13.0325 36.2351 13.1428 36.3088 13.2641 36.3591C13.3855 36.4093 13.5156 36.4351 13.647 36.4351H16.8286C16.96 36.4351 17.0901 36.4093 17.2114 36.3591C17.3328 36.3088 17.4431 36.2351 17.536 36.1422C17.629 36.0493 17.7027 35.939 17.7529 35.8176C17.8032 35.6963 17.8291 35.5662 17.8291 35.4348C17.8291 35.3034 17.8032 35.1734 17.7529 35.052C17.7027 34.9306 17.629 34.8203 17.536 34.7274C17.4431 34.6345 17.3328 34.5609 17.2114 34.5107C17.0901 34.4604 16.96 34.4345 16.8286 34.4346H13.647Z" fill="#00003A"/>
<path d="M22.0032 27.0527C20.6695 27.0527 20.6695 29.0532 22.0032 29.0532H25.1848C26.5184 29.0532 26.5184 27.0527 25.1848 27.0527H22.0032Z" fill="#00003A"/>
<path d="M22.0032 34.4346C20.6695 34.4346 20.6695 36.4351 22.0032 36.4351H25.1848C26.5184 36.4351 26.5184 34.4346 25.1848 34.4346H22.0032Z" fill="#00003A"/>
<path d="M38.7456 27.0527C38.6143 27.0527 38.4842 27.0786 38.3628 27.1289C38.2414 27.1791 38.1311 27.2527 38.0382 27.3456C37.9453 27.4385 37.8716 27.5488 37.8213 27.6702C37.771 27.7915 37.7451 27.9216 37.7451 28.053C37.7451 28.1844 37.771 28.3145 37.8213 28.4359C37.8716 28.5573 37.9453 28.6675 38.0382 28.7604C38.1311 28.8533 38.2414 28.927 38.3628 28.9772C38.4842 29.0275 38.6143 29.0533 38.7456 29.0532H41.9273C42.0586 29.0533 42.1887 29.0275 42.3101 28.9772C42.4315 28.927 42.5418 28.8533 42.6347 28.7604C42.7276 28.6675 42.8013 28.5573 42.8516 28.4359C42.9019 28.3145 42.9278 28.1844 42.9278 28.053C42.9278 27.9216 42.9019 27.7915 42.8516 27.6702C42.8013 27.5488 42.7276 27.4385 42.6347 27.3456C42.5418 27.2527 42.4315 27.1791 42.3101 27.1289C42.1887 27.0786 42.0586 27.0527 41.9273 27.0527H38.7456Z" fill="#00003A"/>
<path d="M38.7456 34.4346C38.6143 34.4345 38.4842 34.4604 38.3628 34.5107C38.2414 34.5609 38.1311 34.6345 38.0382 34.7274C37.9453 34.8203 37.8716 34.9306 37.8213 35.052C37.771 35.1734 37.7451 35.3034 37.7451 35.4348C37.7451 35.5662 37.771 35.6963 37.8213 35.8176C37.8716 35.939 37.9453 36.0493 38.0382 36.1422C38.1311 36.2351 38.2414 36.3088 38.3628 36.3591C38.4842 36.4093 38.6143 36.4351 38.7456 36.4351H41.9273C42.0586 36.4351 42.1887 36.4093 42.3101 36.3591C42.4315 36.3088 42.5418 36.2351 42.6347 36.1422C42.7276 36.0493 42.8013 35.939 42.8516 35.8176C42.9019 35.6963 42.9278 35.5662 42.9278 35.4348C42.9278 35.3034 42.9019 35.1734 42.8516 35.052C42.8013 34.9306 42.7276 34.8203 42.6347 34.7274C42.5418 34.6345 42.4315 34.5609 42.3101 34.5107C42.1887 34.4604 42.0586 34.4345 41.9273 34.4346H38.7456Z" fill="#00003A"/>
<path d="M47.1021 27.0527C46.9707 27.0527 46.8406 27.0786 46.7192 27.1289C46.5978 27.1791 46.4875 27.2527 46.3946 27.3456C46.3017 27.4385 46.228 27.5488 46.1777 27.6702C46.1274 27.7915 46.1016 27.9216 46.1016 28.053C46.1016 28.1844 46.1274 28.3145 46.1777 28.4359C46.228 28.5573 46.3017 28.6675 46.3946 28.7604C46.4875 28.8533 46.5978 28.927 46.7192 28.9772C46.8406 29.0275 46.9707 29.0533 47.1021 29.0532H50.2837C50.4151 29.0533 50.5452 29.0275 50.6666 28.9772C50.788 28.927 50.8983 28.8533 50.9912 28.7604C51.0841 28.6675 51.1578 28.5573 51.2081 28.4359C51.2583 28.3145 51.2842 28.1844 51.2842 28.053C51.2842 27.9216 51.2583 27.7915 51.2081 27.6702C51.1578 27.5488 51.0841 27.4385 50.9912 27.3456C50.8983 27.2527 50.788 27.1791 50.6666 27.1289C50.5452 27.0786 50.4151 27.0527 50.2837 27.0527H47.1021Z" fill="#00003A"/>
<path d="M47.1021 34.4346C46.9707 34.4345 46.8406 34.4604 46.7192 34.5107C46.5978 34.5609 46.4875 34.6345 46.3946 34.7274C46.3017 34.8203 46.228 34.9306 46.1777 35.052C46.1274 35.1734 46.1016 35.3034 46.1016 35.4348C46.1016 35.5662 46.1274 35.6963 46.1777 35.8176C46.228 35.939 46.3017 36.0493 46.3946 36.1422C46.4875 36.2351 46.5978 36.3088 46.7192 36.3591C46.8406 36.4093 46.9707 36.4351 47.1021 36.4351H50.2837C50.4151 36.4351 50.5452 36.4093 50.6666 36.3591C50.788 36.3088 50.8983 36.2351 50.9912 36.1422C51.0841 36.0493 51.1578 35.939 51.2081 35.8176C51.2583 35.6963 51.2842 35.5662 51.2842 35.4348C51.2842 35.3034 51.2583 35.1734 51.2081 35.052C51.1578 34.9306 51.0841 34.8203 50.9912 34.7274C50.8983 34.6345 50.788 34.5609 50.6666 34.5107C50.5452 34.4604 50.4151 34.4345 50.2837 34.4346H47.1021Z" fill="#00003A"/>
<path d="M13.5438 45.5078C12.2101 45.5766 12.3135 47.5772 13.6474 47.5083H16.8289C18.1626 47.5083 18.1626 45.5078 16.8289 45.5078C15.7389 45.5078 14.6256 45.5078 13.544 45.5078H13.5438Z" fill="#00003A"/>
<path d="M13.6467 52.8818C12.3131 52.8818 12.3131 54.8823 13.6467 54.8823H16.8283C18.162 54.8823 18.162 52.8818 16.8283 52.8818H13.6467Z" fill="#00003A"/>
<path d="M21.9003 45.5078C20.5666 45.5766 20.67 47.5772 22.0035 47.5083H25.1851C26.5188 47.5083 26.5188 45.5078 25.1851 45.5078C24.095 45.5078 22.9818 45.5078 21.9001 45.5078H21.9003Z" fill="#00003A"/>
<path d="M22.0038 52.8818C21.8724 52.8818 21.7423 52.9076 21.6208 52.9578C21.4994 53.0081 21.3891 53.0817 21.2961 53.1746C21.2032 53.2675 21.1294 53.3778 21.0791 53.4991C21.0288 53.6205 21.0029 53.7507 21.0029 53.8821C21.0029 54.0135 21.0288 54.1436 21.0791 54.265C21.1294 54.3864 21.2032 54.4967 21.2961 54.5896C21.3891 54.6825 21.4994 54.7562 21.6208 54.8064C21.7423 54.8567 21.8724 54.8824 22.0038 54.8823H25.1854C25.3168 54.8824 25.4469 54.8567 25.5684 54.8064C25.6898 54.7562 25.8001 54.6825 25.8931 54.5896C25.986 54.4967 26.0598 54.3864 26.1101 54.265C26.1604 54.1436 26.1863 54.0135 26.1863 53.8821C26.1863 53.7507 26.1604 53.6205 26.1101 53.4991C26.0598 53.3778 25.986 53.2675 25.8931 53.1746C25.8001 53.0817 25.6898 53.0081 25.5684 52.9578C25.4469 52.9076 25.3168 52.8818 25.1854 52.8818H22.0038Z" fill="#00003A"/>
<path d="M17.2578 1.00293C14.2627 1.00293 11.8164 3.43945 11.8164 6.4345V7.12205H10.8125C7.5058 7.12205 4.81055 9.81732 4.81055 13.124C4.81257 27.7487 4.81251 42.3721 4.81251 56.9989C4.81251 60.3056 7.5058 62.9989 10.8125 62.9989H39.3984C39.6637 62.9989 39.918 62.8934 40.1055 62.706L59.8945 42.917C60.082 42.7295 60.1874 42.4751 60.1874 42.2099V23.708C60.2059 22.3563 58.1689 22.3563 58.1874 23.708V41.2099H43.8339C40.8388 41.2099 38.3964 43.6524 38.3964 46.6475V56.749C38.3775 58.1013 40.4155 58.1013 40.3964 56.749V46.6475C40.3964 44.7258 41.9122 43.2099 43.8339 43.2099H56.7733L38.9843 60.999H10.8124C8.57911 60.999 6.81241 59.2322 6.81241 56.9989V21.5009H59.1855C59.7408 21.5031 60.1915 21.0523 60.1894 20.497V13.124C60.1894 9.81732 57.4961 7.12205 54.1894 7.12205H52.705V6.4345C52.705 3.43945 50.2587 1.00293 47.2636 1.00293C44.2685 1.00293 41.8241 3.43945 41.8241 6.4345V7.12205H22.6972V6.4345C22.6972 3.43945 20.2528 1.00293 17.2577 1.00293H17.2578ZM17.2578 3.00285C19.1795 3.00285 20.6973 4.51284 20.6973 6.4345V8.85645C20.6973 10.7781 19.1795 12.2958 17.2578 12.2958C15.3362 12.2958 13.8164 10.7781 13.8164 8.85645V6.4345C13.8164 4.51284 15.3362 3.00285 17.2578 3.00285ZM47.2637 3.00285C49.1853 3.00285 50.7051 4.51284 50.7051 6.4345V8.85645C50.7051 10.7781 49.1853 12.2958 47.2637 12.2958C45.342 12.2958 43.8242 10.7781 43.8242 8.85645V6.4345C43.8242 4.51288 45.342 3.00285 47.2637 3.00285ZM10.8125 9.12209H11.8301C11.9703 11.9939 14.3524 14.2959 17.2578 14.2959C20.1633 14.2959 22.5432 11.9939 22.6836 9.12209H41.8379C41.9781 11.9939 44.3582 14.2959 47.2637 14.2959C50.1691 14.2959 52.5511 11.9939 52.6914 9.12209H54.1895C56.4228 9.12209 58.1895 10.8907 58.1895 13.124V19.5009H6.81056V13.124C6.81056 10.8907 8.57919 9.12209 10.8125 9.12209Z" fill="#00003A"/>
</svg>
