<svg width="64" height="64" viewBox="0 0 64 64" fill="none" xmlns="http://www.w3.org/2000/svg">
<path d="M56.513 48.6162C54.317 48.6162 53.2199 50.7165 53.7254 52.3506L52.3658 57.2646C52.1161 58.1964 52.6664 58.9469 53.5982 58.9469H59.6722C60.6041 58.9469 61.1543 58.1964 60.9046 57.2646L59.3495 52.1765C59.8435 50.3524 58.5585 48.6162 56.513 48.6162Z" fill="#5575FF"/>
<path d="M27.3393 3.47465L3.9311 17.2031C1.56901 18.6499 1.3701 21.7827 3.46625 23.8789L11.2768 31.0625C11.8058 30.7325 12.4552 30.5078 12.9311 30.4101C13.7987 31.6749 15.2517 32.5039 16.9077 32.5039H45.7163C47.6011 32.5039 48.9652 31.5069 49.7748 30.2949C50.446 30.2609 51.1218 30.3716 51.769 30.5939C54.4971 28.3165 57.2271 26.0415 59.9565 23.7657C63.6793 20.0144 61.5065 16.9074 59.6948 15.8615L36.7846 3.52355C33.4909 1.55291 30.9887 1.36768 27.3393 3.47476L27.3393 3.47465Z" fill="#5575FF"/>
<path d="M30.3418 42.0157C30.3418 42.738 30.1995 43.4532 29.9231 44.1205C29.6467 44.7878 29.2416 45.3941 28.7309 45.9048C28.2202 46.4155 27.6139 46.8206 26.9466 47.097C26.2793 47.3734 25.5641 47.5157 24.8418 47.5157C24.1195 47.5157 23.4043 47.3734 22.737 47.097C22.0697 46.8206 21.4634 46.4155 20.9527 45.9048C20.442 45.3941 20.0369 44.7878 19.7605 44.1205C19.4841 43.4532 19.3418 42.738 19.3418 42.0157C19.3418 41.2934 19.4841 40.5782 19.7605 39.9109C20.0369 39.2437 20.442 38.6373 20.9527 38.1266C21.4634 37.6159 22.0697 37.2107 22.737 36.9343C23.4043 36.6579 24.1195 36.5156 24.8418 36.5156C25.5641 36.5156 26.2793 36.6579 26.9466 36.9343C27.6139 37.2107 28.2202 37.6159 28.7309 38.1266C29.2416 38.6373 29.6467 39.2437 29.9231 39.9109C30.1995 40.5782 30.3418 41.2934 30.3418 42.0157Z" fill="#5575FF"/>
<path d="M44.9697 42.0157C44.9697 42.738 44.8275 43.4532 44.5511 44.1205C44.2747 44.7878 43.8695 45.3941 43.3588 45.9048C42.8481 46.4155 42.2418 46.8206 41.5745 47.097C40.9072 47.3734 40.192 47.5157 39.4697 47.5157C38.7475 47.5157 38.0323 47.3734 37.365 47.097C36.6977 46.8206 36.0914 46.4155 35.5806 45.9048C35.0699 45.3941 34.6648 44.7878 34.3884 44.1205C34.112 43.4532 33.9697 42.738 33.9697 42.0157C33.9697 41.2934 34.112 40.5782 34.3884 39.9109C34.6648 39.2437 35.0699 38.6373 35.5806 38.1266C36.0914 37.6159 36.6977 37.2107 37.365 36.9343C38.0323 36.6579 38.7475 36.5156 39.4697 36.5156C40.192 36.5156 40.9072 36.6579 41.5745 36.9343C42.2418 37.2107 42.8481 37.6159 43.3588 38.1266C43.8695 38.6373 44.2747 39.2437 44.5511 39.9109C44.8275 40.5782 44.9697 41.2934 44.9697 42.0157Z" fill="#5575FF"/>
<path d="M26.8567 2.65029L3.44845 16.3788C0.527334 18.2519 0.262865 22.0514 2.79025 24.5565C4.19397 25.8443 5.60098 27.1401 7.00509 28.4315C7.94365 29.3212 9.26325 27.886 8.29806 27.0253L4.14181 23.2031C2.32533 21.3085 2.76145 19.0473 4.4289 18.0174C12.2261 13.4569 20.0338 8.84798 27.8176 4.30257C31.4767 2.12828 33.684 2.86159 36.3312 4.36497L55.5676 14.7243V26.1833L51.5832 29.5056C51.4783 29.4792 51.3723 29.4565 51.2668 29.4354C51.617 28.4686 51.5363 26.9871 51.5363 25.4333C51.5363 16.5677 39.0274 13.7694 31.3097 13.7694C23.3203 13.7694 11.0851 16.5195 11.0851 25.4333C11.0851 27.0283 10.9462 28.4675 11.5011 29.8338C8.08937 31.374 6.50117 35.3572 8.46403 39.0096L10.4054 42.3748C11.2313 43.8052 12.5287 44.7944 13.9875 45.2771C14.2285 55.1022 22.2247 62.9783 32.1086 62.9783C42.0155 62.9783 50.0284 55.0661 50.2336 45.2087C51.6141 44.7053 52.8358 43.7436 53.6261 42.3748L55.5675 39.0232V47.6385C53.8307 48.0332 52.5187 49.5886 52.5187 51.4393C52.5187 53.5848 54.2775 55.3533 56.423 55.3533C57.4179 55.3533 58.3209 54.9611 59.0129 54.3397L59.841 57.4334C59.9556 57.8611 59.6753 57.8553 59.5754 57.8553H53.5148C53.1449 57.8553 53.2128 57.5691 53.2492 57.4334L53.5734 56.2244C53.9435 54.9209 51.9703 54.3928 51.6398 55.7068L51.3156 56.91C50.8972 58.6557 52.0416 59.8475 53.5148 59.8475H59.5754C61.2951 59.8475 62.1611 58.345 61.7765 56.91C61.3574 55.3007 60.7141 53.4308 60.2882 51.8416C60.4881 49.9815 59.4654 48.3726 57.5675 47.7283V27.0018C58.588 26.1511 59.6245 25.2892 60.634 24.4373C63.8431 21.2824 63.7198 17.2704 60.1476 15.0174L57.5676 13.6287C57.5347 10.7674 54.5853 10.0314 52.9562 11.1443L37.257 2.69124C33.4775 0.526213 30.7061 0.413488 26.8566 2.64995L26.8567 2.65029ZM31.3098 15.7714C38.5478 15.7714 49.3512 18.0938 49.5363 25.4335V27.6854C49.5363 29.8197 47.8464 31.5018 45.7121 31.5018H16.9094C14.7751 31.5018 13.0852 29.8197 13.0852 27.6854V25.4335C13.0852 17.8244 24.8407 15.8036 31.3098 15.7714ZM57.5676 15.8016L59.216 16.6903C62.0715 18.4618 61.1814 21.285 59.2903 23.079L57.5676 24.5165L57.5676 15.8016ZM55.5676 28.6708V32.5301C55.0794 31.6822 54.3931 30.9391 53.5305 30.37L55.5676 28.6708ZM50.2531 31.3192C54.1213 31.6473 55.2739 35.6724 53.841 38.0125L51.8996 41.3797C51.4881 42.0924 50.9097 42.6313 50.2531 43.0107V34.912C50.2531 33.5774 48.2512 33.5774 48.2512 34.912V44.8261C48.2512 53.789 41.0716 60.9784 32.1086 60.9784C23.1456 60.9784 15.9641 53.7892 15.9641 44.8261V33.4971C15.9641 33.4971 35.8234 33.5009 45.7121 33.5009C47.8385 33.5009 49.2747 32.6453 50.2531 31.3192ZM12.5813 31.5634C12.9811 32.008 13.4458 32.3911 13.9641 32.6962V43.1082C13.2324 42.7287 12.5883 42.1555 12.1399 41.3788L10.1984 38.0116C8.60974 35.2599 10.2711 32.3396 12.5813 31.5634ZM24.8449 35.5185C21.2669 35.5185 18.341 38.4366 18.341 42.0146C18.341 45.5926 21.2669 48.5185 24.8449 48.5185C28.0807 48.5185 30.767 46.1226 31.2531 43.0185H33.0578C33.5439 46.1226 36.2322 48.5185 39.468 48.5185C43.046 48.5185 45.9719 45.5926 45.9719 42.0146C45.9719 38.4366 43.046 35.5185 39.468 35.5185C36.2294 35.5185 33.5386 37.9117 33.0559 41.0185H31.2551C30.7723 37.9108 28.0834 35.5175 24.8449 35.5175V35.5185ZM24.8449 37.5184C27.3421 37.5184 29.3391 39.5174 29.3391 42.0146C29.3391 44.5117 27.3421 46.5165 24.8449 46.5165C22.3478 46.5165 20.341 44.5117 20.341 42.0146C20.341 39.5174 22.3478 37.5184 24.8449 37.5184ZM39.468 37.5184C41.9651 37.5184 43.9699 39.5174 43.9699 42.0146C43.9699 44.5117 41.9651 46.5165 39.468 46.5165C36.9708 46.5165 34.9719 44.5117 34.9719 42.0146C34.9719 39.5174 36.9708 37.5184 39.468 37.5184ZM56.4231 49.536C57.4877 49.536 58.3274 50.3757 58.3274 51.4403C58.3274 52.505 57.4877 53.3525 56.4231 53.3525C55.3584 53.3525 54.5188 52.505 54.5188 51.4403C54.5188 50.3757 55.3584 49.536 56.4231 49.536Z" fill="#00003A"/>
</svg>
