<svg width="64" height="64" viewBox="0 0 64 64" fill="none" xmlns="http://www.w3.org/2000/svg">
<path d="M10.8173 24.5252C8.52631 28.2008 11.0945 32.798 15.2422 32.798C18.1809 32.798 20.5631 30.4157 20.5631 27.4771C20.5631 24.0258 17.2328 21.8257 14.9664 22.166C14.8737 17.7757 15.1629 13.4138 17.8831 9.6307C5.30923 3.15248 -0.673561 21.2039 10.8173 24.5252ZM46.381 9.50942C49.0551 13.7277 49.582 17.9751 49.4914 22.2012C46.8808 21.5017 43.5367 23.7287 43.5367 27.4771C43.5367 30.4157 45.919 32.798 48.8576 32.798C53.8951 32.798 55.1515 27.3935 53.2825 24.5252C66.2087 19.4487 56.3843 3.12215 46.381 9.50942Z" fill="#5575FF"/>
<path d="M30.2783 35.6601C30.2783 36.3824 30.1361 37.0976 29.8597 37.7649C29.5833 38.4322 29.1781 39.0385 28.6674 39.5492C28.1567 40.0599 27.5504 40.4651 26.8831 40.7415C26.2158 41.0179 25.5006 41.1601 24.7783 41.1601C24.056 41.1601 23.3409 41.0179 22.6736 40.7415C22.0063 40.4651 21.4 40.0599 20.8892 39.5492C20.3785 39.0385 19.9734 38.4322 19.697 37.7649C19.4206 37.0976 19.2783 36.3824 19.2783 35.6601C19.2783 34.9379 19.4206 34.2227 19.697 33.5554C19.9734 32.8881 20.3785 32.2817 20.8892 31.771C21.4 31.2603 22.0063 30.8552 22.6736 30.5788C23.3409 30.3024 24.056 30.1602 24.7783 30.1602C25.5006 30.1602 26.2158 30.3024 26.8831 30.5788C27.5504 30.8552 28.1567 31.2603 28.6674 31.771C29.1781 32.2817 29.5833 32.8881 29.8597 33.5554C30.1361 34.2227 30.2783 34.9379 30.2783 35.6601Z" fill="#5575FF"/>
<path d="M44.9082 35.6601C44.9082 36.3824 44.7659 37.0976 44.4895 37.7649C44.2131 38.4322 43.808 39.0385 43.2973 39.5492C42.7866 40.0599 42.1802 40.4651 41.513 40.7415C40.8457 41.0179 40.1305 41.1601 39.4082 41.1601C38.6859 41.1601 37.9707 41.0179 37.3034 40.7415C36.6361 40.4651 36.0298 40.0599 35.5191 39.5492C35.0084 39.0385 34.6033 38.4322 34.3269 37.7649C34.0505 37.0976 33.9082 36.3824 33.9082 35.6601C33.9082 34.9379 34.0505 34.2227 34.3269 33.5554C34.6033 32.8881 35.0084 32.2817 35.5191 31.771C36.0298 31.2603 36.6361 30.8552 37.3034 30.5788C37.9707 30.3024 38.6859 30.1602 39.4082 30.1602C40.1305 30.1602 40.8457 30.3024 41.513 30.5788C42.1802 30.8552 42.7866 31.2603 43.2973 31.771C43.808 32.2817 44.2131 32.8881 44.4895 33.5554C44.7659 34.2227 44.9082 34.9379 44.9082 35.6601Z" fill="#5575FF"/>
<path d="M27.75 46.4326C25.0146 46.4326 22.8125 48.6347 22.8125 51.3701V52.4326H41.375V51.3701C41.375 48.6347 39.1729 46.4326 36.4375 46.4326H27.75Z" fill="#5575FF"/>
<path d="M32.1406 0.999023C26.1891 0.999023 20.9142 3.86328 17.6035 8.27826C16.2488 7.51166 14.6918 7.06544 13.0293 7.06544C7.86996 7.06544 3.66797 11.2752 3.66797 16.4346C3.66797 20.2979 6.02881 23.6154 9.37891 25.042C8.52694 27.0988 8.86318 29.2654 9.94141 30.8818C7.62086 32.8701 6.95874 36.2896 8.54102 39.0302L10.4824 42.3955C11.3075 43.8245 12.6012 44.8127 14.0566 45.2959C14.2969 55.1219 22.301 62.9991 32.1855 62.9991C42.0932 62.9991 50.1064 55.0857 50.3105 45.2275C51.6909 44.7245 52.9129 43.7641 53.7031 42.3955L55.6523 39.0302C57.263 36.2405 56.5447 32.7455 54.1211 30.7743C55.2383 28.8041 55.3741 27.1066 54.6172 25.0439C57.9697 23.6188 60.332 20.3 60.332 16.4346C60.332 11.2752 56.132 7.06544 50.9727 7.06544C49.3794 7.06544 47.8805 7.47372 46.5645 8.18068C43.2551 3.82322 38.0472 0.999023 32.1406 0.999023ZM32.1406 2.99905C41.1036 2.99905 48.248 10.1805 48.293 19.1494L48.3028 21.1455C43.6665 21.5348 41.1096 26.4351 43.2208 30.415C42.1463 29.6305 40.8294 29.1592 39.4044 29.1592C36.1686 29.1592 33.4803 31.555 32.9942 34.6592H31.1914C30.7053 31.555 28.0171 29.1592 24.7813 29.1592C23.2035 29.1592 21.7541 29.7301 20.625 30.6728C23.1132 26.4719 20.1907 21.6692 16.0059 21.1748L15.9961 19.1435C15.9512 10.1866 23.1776 2.99905 32.1406 2.99905H32.1406ZM13.0293 9.06731C14.2864 9.06731 15.4598 9.38932 16.4922 9.9423C14.9015 12.6421 13.9792 15.7817 13.9961 19.1494L14.0059 21.2412C12.5942 21.519 11.3493 22.2722 10.4415 23.3232C7.64945 22.28 5.66998 19.6 5.66998 16.4346C5.66998 12.3561 8.9509 9.06731 13.0294 9.06731H13.0293ZM50.9727 9.06731C55.0511 9.06731 58.332 12.3561 58.332 16.4346C58.332 19.6015 56.3508 22.283 53.5566 23.3252C52.717 22.3507 51.5872 21.6367 50.3027 21.3154L50.2929 19.1435C50.2759 15.7365 49.3172 12.5627 47.6875 9.8408C48.6766 9.34836 49.7892 9.06731 50.9726 9.06731H50.9727ZM15.2207 23.1221C17.6143 23.1221 19.5332 25.0391 19.5332 27.4326C19.5332 29.8262 17.6143 31.7431 15.2207 31.7431C12.8271 31.7431 10.9023 29.8262 10.9023 27.4326C10.9023 25.0391 12.8271 23.1221 15.2207 23.1221ZM48.7793 23.1221C51.1729 23.1221 53.0898 25.0391 53.0898 27.4326C53.0898 29.8262 51.1729 31.7431 48.7793 31.7431C46.3857 31.7431 44.4688 29.8262 44.4688 27.4326C44.4688 25.0391 46.3857 23.1221 48.7793 23.1221ZM24.7812 31.1611C27.2784 31.1611 29.2773 33.1659 29.2773 35.663C29.2773 38.1601 27.2784 40.1591 24.7812 40.1591C22.2841 40.1591 20.2773 38.1601 20.2773 35.663C20.2773 33.1659 22.2841 31.1611 24.7812 31.1611ZM39.4043 31.1611C41.9014 31.1611 43.9082 33.1659 43.9082 35.663C43.9082 38.1601 41.9014 40.1591 39.4043 40.1591C36.9072 40.1591 34.9082 38.1601 34.9082 35.663C34.9082 33.1659 36.9072 31.1611 39.4043 31.1611ZM52.8008 32.2881C54.5404 33.6472 55.0578 36.058 53.918 38.0322L51.9688 41.3994C51.5591 42.109 50.983 42.6453 50.3301 43.0243V33.5439C51.2497 33.3096 52.0908 32.8776 52.8008 32.2881ZM19.2266 32.3032C18.6284 33.2861 18.2773 34.4335 18.2773 35.6625C18.2773 39.2405 21.2032 42.1586 24.7812 42.1586C28.0198 42.1586 30.7106 39.7654 31.1934 36.6586H32.9922C33.475 39.7654 36.1657 42.1586 39.4043 42.1586C42.9823 42.1586 45.9082 39.2405 45.9082 35.6625C45.9082 34.5388 45.62 33.4797 45.1133 32.5551C46.0339 33.2166 47.1361 33.6359 48.3301 33.7211V44.8462C48.3301 53.8091 41.1485 60.9984 32.1855 60.9984C23.2226 60.9984 16.0332 53.8092 16.0332 44.8462V33.6859C17.2342 33.5302 18.3336 33.0391 19.2266 32.3032ZM11.2891 32.3598C12.0744 32.9871 13.0107 33.4309 14.0332 33.6274V43.1235C13.3048 42.7447 12.6636 42.1727 12.2168 41.3988L10.2676 38.0317C9.01103 35.7862 9.87788 33.4894 11.2891 32.3598ZM27.748 45.4302C24.476 45.4302 21.8145 48.0994 21.8145 51.3715V52.4341C21.8156 52.984 22.2606 53.4299 22.8105 53.4321H41.375C41.925 53.4299 42.37 52.984 42.3711 52.4341V51.3715C42.3711 48.0994 39.7096 45.4302 36.4375 45.4302H27.748ZM27.748 47.4302H36.4375C38.6254 47.4302 40.3711 49.1098 40.3711 51.4301H23.8145C23.8145 48.8674 25.8255 47.4302 27.748 47.4302Z" fill="#00003A"/>
</svg>
