<svg width="65" height="64" viewBox="0 0 65 64" fill="none" xmlns="http://www.w3.org/2000/svg">
<path d="M2.50488 44.3729V34.4971H20.758C22.8998 34.4971 26.4216 34.6729 30.3439 38.6923C33.7568 42.1896 38.0606 46.409 38.0606 46.409C40.5713 48.9197 37.3931 52.2519 32.5258 51.2957C36.7441 53.6581 41.3064 53.4918 46.8199 53.4918C50.202 53.4918 56.5049 54.0743 56.5049 62.0011H31.1651C18.5453 62.0011 16.4542 47.574 5.89773 47.574C4.73322 47.4504 2.50488 47.1641 2.50488 44.3728V44.3729Z" fill="#5575FF"/>
<path d="M2.50392 33.5C1.95086 33.4979 1.50113 33.945 1.5 34.4981V44.375C1.5 47.1092 3.52341 48.5742 5.90039 48.5742C10.8762 48.7442 15.0721 53.4879 17.0312 55.4766C20.4683 59.1016 24.4692 63 31.1602 63H56.502C57.2101 63 57.5078 62.3653 57.5078 62C57.5078 57.7715 55.6941 55.1923 53.4258 53.9024C49.4576 51.8876 44.8081 52.3829 40.7891 52.3829C39.3792 52.1334 39.1512 54.3203 40.582 54.3673C44.7694 54.3673 49.0555 53.8006 52.4374 55.6447C53.9594 56.5103 55.0247 58.1492 55.2949 60.9964H31.162C25.2332 60.9964 21.8829 57.6904 18.4804 54.1018C15.0857 50.155 10.7718 46.6697 5.97844 46.5764C4.35528 46.5764 3.50383 45.6031 3.50383 44.2698V35.5003H20.7617C22.8487 35.5003 25.9034 35.5751 29.6269 39.3909C33.0509 42.8996 36.8457 46.6207 37.3554 47.1194C39.8471 49.6446 34.7059 51.4776 33.0292 50.3811L29.5097 46.8596C28.5644 45.9143 27.1465 47.3323 28.0918 48.2776L31.7695 51.9476C37.0148 53.6288 42.1255 49.7538 38.7636 45.7013C36.0376 42.9941 33.3956 40.388 31.0585 37.9963C26.9374 33.7732 22.9581 33.5002 20.7617 33.5002L2.50392 33.5Z" fill="#00003A"/>
<path d="M51.4055 3.00488C48.099 5.1749 47.5228 11.2077 49.8781 13.2763C42.8331 21.068 55.6466 27.0437 58.0988 18.4365C59.4269 18.599 61.2558 18.2184 62.4406 17.3486C61.8632 10.8275 57.5613 5.23276 51.4055 3.00488Z" fill="#5575FF"/>
<path d="M30.5342 11.4731C29.4125 13.7639 28.8457 16.2798 28.8389 18.8305C28.8423 19.7105 28.9031 20.5967 29.0441 21.4653C32.4933 23.2806 36.3175 20.2112 36.3175 16.6567C36.3175 13.1653 33.1264 10.5984 30.5343 11.4731H30.5342Z" fill="#5575FF"/>
<path d="M45.5254 26.4482C45.5254 26.9817 45.4203 27.51 45.2162 28.0029C45.012 28.4958 44.7128 28.9436 44.3355 29.3208C43.9583 29.698 43.5104 29.9973 43.0176 30.2014C42.5247 30.4056 41.9964 30.5107 41.4629 30.5107C40.9294 30.5107 40.4011 30.4056 39.9082 30.2014C39.4154 29.9973 38.9675 29.698 38.5903 29.3208C38.213 28.9436 37.9138 28.4958 37.7096 28.0029C37.5055 27.51 37.4004 26.9817 37.4004 26.4482C37.4004 25.9147 37.5055 25.3864 37.7096 24.8935C37.9138 24.4006 38.213 23.9528 38.5903 23.5756C38.9675 23.1984 39.4154 22.8991 39.9082 22.695C40.4011 22.4908 40.9294 22.3857 41.4629 22.3857C41.9964 22.3857 42.5247 22.4908 43.0176 22.695C43.5104 22.8991 43.9583 23.1984 44.3355 23.5756C44.7128 23.9528 45.012 24.4006 45.2162 24.8935C45.4203 25.3864 45.5254 25.9147 45.5254 26.4482Z" fill="#5575FF"/>
<path d="M45.6748 0.99707C35.8376 0.99707 27.8408 8.9939 27.8408 18.8311C27.8408 28.6684 35.8375 36.6651 45.6748 36.6651C55.5121 36.6651 63.501 28.6684 63.501 18.8311C63.501 8.9939 55.5121 0.99707 45.6748 0.99707ZM45.6748 2.9971C53.7547 2.9971 60.3839 9.0281 61.3623 16.839C60.4272 17.3127 59.0982 17.5518 58.2197 17.4444C57.6969 17.3809 57.2143 17.7335 57.1162 18.251C56.7394 20.2496 55.0075 21.6872 52.9736 21.6885C50.6318 21.6885 48.7549 19.8116 48.7549 17.4698C48.7576 16.1314 49.3941 14.8751 50.4717 14.0811C50.9856 13.7024 51.0178 12.9456 50.5382 12.5245C49.1599 10.6981 49.2362 8.31854 50.0108 6.3584C50.4596 5.03246 48.6833 4.38823 48.1574 5.60452C47.2745 8.24539 47.103 11.0343 48.6495 13.2237C47.5241 14.374 46.7575 15.8331 46.755 17.4678C46.7928 21.9418 50.2886 23.6063 52.9738 23.6885C55.6768 23.6868 57.9632 21.8923 58.7941 19.3819C59.6848 19.3895 60.6158 19.2473 61.4952 18.9385C61.437 27.6447 54.395 34.6651 45.6749 34.6651C36.9186 34.6651 29.8409 27.5875 29.8409 18.8311C29.8409 16.5123 30.3489 14.3181 31.2413 12.335C35.8795 12.4695 37.0413 19.4485 32.1573 20.8605C30.8745 21.2263 31.4233 23.15 32.7062 22.7843C39.8096 20.7932 38.041 11.3842 32.3156 10.3447C35.4851 5.43895 39.9224 2.9971 45.6749 2.9971H45.6748ZM41.46 21.3858C38.6759 21.3858 36.4033 23.6662 36.4033 26.4503C36.4033 29.2344 38.6759 31.5128 41.46 31.5128C44.244 31.5128 46.5244 29.2344 46.5244 26.4503C46.5244 23.6662 44.244 21.3858 41.46 21.3858ZM41.46 23.3858C43.1632 23.3858 44.5225 24.7471 44.5225 26.4503C44.5225 28.1535 43.1632 29.5127 41.46 29.5127C39.7568 29.5127 38.4033 28.1535 38.4033 26.4503C38.4033 24.7471 39.7568 23.3858 41.46 23.3858Z" fill="#00003A"/>
</svg>
