<svg width="65" height="64" viewBox="0 0 65 64" fill="none" xmlns="http://www.w3.org/2000/svg">
<path d="M32.5557 22.4111C25.3986 22.4193 18.4338 26.4562 14.5391 32.4607H50.5073C46.6189 26.466 39.701 22.4306 32.5557 22.4111Z" fill="#5575FF"/>
<path d="M38.75 47C38.75 48.6576 38.0915 50.2474 36.9194 51.4195C35.7473 52.5916 34.1576 53.2501 32.5 53.2501C30.8424 53.2501 29.2527 52.5916 28.0806 51.4195C26.9085 50.2474 26.25 48.6576 26.25 47C26.25 46.1793 26.4117 45.3666 26.7257 44.6083C27.0398 43.85 27.5002 43.161 28.0806 42.5806C28.6609 42.0002 29.3499 41.5399 30.1082 41.2258C30.8665 40.9117 31.6792 40.75 32.5 40.75C33.3208 40.75 34.1335 40.9117 34.8918 41.2258C35.6501 41.5399 36.3391 42.0002 36.9194 42.5806C37.4998 43.161 37.9602 43.85 38.2743 44.6083C38.5883 45.3666 38.75 46.1793 38.75 47Z" fill="#5575FF"/>
<path d="M32.55 2.00391C31.1443 2.00391 29.7524 2.28078 28.4537 2.81872C27.155 3.35667 25.9749 4.14514 24.9809 5.13913C23.9869 6.13312 23.1985 7.31316 22.6605 8.61187C22.1226 9.91058 21.8457 11.3025 21.8457 12.7082C21.8495 13.2158 21.8894 13.7224 21.965 14.2243C25.5662 14.2041 30.4878 13.433 35.3083 10.2395C36.2848 12.1956 38.3138 14.6463 42.9022 15.3804C43.1317 14.5081 43.25 13.6102 43.2544 12.7082C43.2544 11.3025 42.9775 9.91058 42.4395 8.61187C41.9016 7.31316 41.1131 6.13312 40.1191 5.13913C39.1252 4.14514 37.9451 3.35667 36.6464 2.81872C35.3477 2.28078 33.9557 2.00391 32.55 2.00391Z" fill="#5575FF"/>
<path d="M32.5 39.75C28.5078 39.75 25.251 43.0068 25.251 46.999C25.251 48.3816 25.6387 49.6844 26.314 50.7859C26.3828 50.8979 26.473 50.9952 26.5794 51.0723C26.6859 51.1494 26.8065 51.2048 26.9343 51.2353C27.0621 51.2658 27.1947 51.2708 27.3245 51.2501C27.4543 51.2293 27.5787 51.1832 27.6907 51.1144C27.8027 51.0456 27.9 50.9553 27.9771 50.8489C28.0542 50.7425 28.1096 50.6219 28.1401 50.4941C28.1706 50.3663 28.1756 50.2337 28.1549 50.1039C28.1341 49.9741 28.088 49.8497 28.0192 49.7377C27.5302 48.9401 27.2515 48.0073 27.2515 46.999C27.2515 44.0877 29.5886 41.7505 32.5 41.7505C35.4113 41.7505 37.7485 44.0877 37.7485 46.999C37.7485 49.9103 35.4113 52.2476 32.5 52.2475C31.6975 52.2475 30.9409 52.0721 30.2633 51.7529C30.1436 51.6896 30.0124 51.6512 29.8774 51.64C29.7425 51.6289 29.6067 51.6452 29.4783 51.6881C29.3498 51.731 29.2315 51.7996 29.1303 51.8896C29.0292 51.9796 28.9473 52.0892 28.8898 52.2118C28.8323 52.3343 28.8002 52.4674 28.7956 52.6027C28.791 52.738 28.8139 52.8728 28.863 52.999C28.912 53.1252 28.9862 53.2401 29.0809 53.3368C29.1757 53.4335 29.2892 53.51 29.4144 53.5615C30.3513 54.0028 31.3993 54.248 32.5 54.248C36.4922 54.248 39.749 50.9912 39.749 46.999C39.749 43.0068 36.4922 39.75 32.5 39.75Z" fill="#00003A"/>
<path d="M32.5503 1.00586C26.0972 1.00586 20.8464 6.25666 20.8464 12.7098C20.8464 16.7543 22.9116 20.3231 26.0401 22.4263C21.3208 23.8864 17.1592 26.8824 14.3048 31.0531H10.5411C6.49015 31.0531 4.25381 34.4686 4.85443 38.1639L8.49297 58.5788C9.17204 61.7386 11.3854 63.1035 14.297 63.1035H50.8056C53.9349 63.0725 56.0842 61.3659 56.6096 58.5788L60.2462 38.1639C60.7906 34.1572 58.4273 31.0531 54.5615 31.0531H16.799C19.8051 27.259 24.0596 24.6832 28.7729 23.776C30.9979 24.7378 34.1319 24.7939 36.318 23.7799C39.9166 24.4748 43.251 26.1355 45.964 28.5726C46.9593 29.4969 48.328 27.9722 47.302 27.082C44.9255 24.9471 42.1092 23.3683 39.0625 22.4262C42.1909 20.3231 44.2543 16.7543 44.2543 12.7098C44.2543 6.25666 39.0034 1.00586 32.5503 1.00586ZM32.5503 3.00901C37.9209 3.00901 42.2511 7.33927 42.2511 12.7098C42.2511 13.2143 42.2016 13.7053 42.1279 14.1887C38.5383 13.3549 37.014 11.4126 36.2045 9.79116C35.9193 9.14308 35.2475 9.1257 34.755 9.40383C30.5249 12.2062 26.2299 13.0515 22.875 13.191C22.8671 13.0305 22.8515 12.8723 22.8515 12.7098C22.8515 7.33927 27.1798 3.00901 32.5503 3.00901ZM34.9662 11.5615C36.0958 13.3484 38.0915 15.2776 41.6212 16.1312C40.241 19.8029 36.7136 22.4087 32.5503 22.4087C28.0373 22.4087 24.2716 19.3476 23.1801 15.1844C26.5377 15.002 30.7576 14.0993 34.9662 11.5615ZM10.5411 33.0563H54.5615C57.6811 33.0563 58.6317 35.6244 58.2724 37.8098L54.6417 58.2306C54.2515 60.4455 52.5973 61.1003 50.8056 61.1003H14.297C12.0997 61.1349 10.7892 59.9969 10.4589 58.2306L6.82824 37.8098C6.45177 34.9465 8.0412 33.0916 10.5411 33.0563Z" fill="#00003A"/>
</svg>
