<svg width="64" height="64" viewBox="0 0 64 64" fill="none" xmlns="http://www.w3.org/2000/svg">
<path d="M5.9882 1.99902H58.0131C60.2166 1.99902 61.9906 3.77298 61.9906 5.97648C61.9906 8.18002 60.2166 9.95394 58.0131 9.95394H5.9882C3.7847 9.95394 2.01074 8.18002 2.01074 5.97648C2.01074 3.77298 3.7847 1.99902 5.9882 1.99902Z" fill="#5575FF"/>
<path d="M34.5 27.5527C34.5 29.7406 33.8512 31.8795 32.6356 33.6987C31.4201 35.5179 29.6923 36.9358 27.6709 37.7731C25.6495 38.6104 23.4252 38.8295 21.2793 38.4027C19.1334 37.9758 17.1622 36.9222 15.6151 35.3751C14.068 33.828 13.0144 31.8568 12.5876 29.7109C12.1607 27.5649 12.3798 25.3407 13.2171 23.3193C14.0544 21.2979 15.4723 19.5701 17.2915 18.3545C19.1107 17.1389 21.2495 16.4902 23.4375 16.4902V27.5527H34.5Z" fill="#5575FF"/>
<path d="M37.4965 56.6921C37.4965 58.1497 36.9175 59.5475 35.8868 60.5782C34.8561 61.6089 33.4583 62.1879 32.0007 62.1879C30.5431 62.1879 29.1452 61.6089 28.1146 60.5782C27.0839 59.5475 26.5049 58.1497 26.5049 56.6921C26.5049 55.9704 26.647 55.2557 26.9232 54.589C27.1994 53.9222 27.6042 53.3163 28.1146 52.806C28.6249 52.2957 29.2307 51.8908 29.8975 51.6146C30.5643 51.3384 31.279 51.1963 32.0007 51.1963C32.7224 51.1963 33.4371 51.3384 34.1038 51.6146C34.7706 51.8908 35.3765 52.2957 35.8868 52.806C36.3971 53.3163 36.802 53.9222 37.0781 54.589C37.3543 55.2557 37.4965 55.9704 37.4965 56.6921Z" fill="#5575FF"/>
<path d="M5.99612 1.00586C3.25159 1.00586 1.01367 3.24375 1.01367 5.9883C1.01367 8.71637 3.22527 10.9421 5.94721 10.9688V40.2159C5.94721 43.5279 8.64475 46.2254 11.9567 46.2254H31.0453V50.3628C27.9393 50.8505 25.5444 53.5427 25.5444 56.7811C25.5444 60.3623 28.4694 63.2874 32.0508 63.2874C35.6321 63.2874 38.5571 60.3623 38.5571 56.7811C38.5571 53.5396 36.1587 50.8447 33.0484 50.3608V46.2254H52.1448C55.4568 46.2254 58.1543 43.5279 58.1543 40.2159V14.6269C58.1735 13.2724 56.132 13.2724 56.1511 14.6269V40.2159C56.1511 42.4527 54.3817 44.2222 52.1448 44.2222H11.9567C9.71984 44.2222 7.95036 42.4527 7.95036 40.2159V10.9707H58.1054C60.8499 10.9707 63.0898 8.73285 63.0898 5.9883C63.0898 3.24379 60.8499 1.00586 58.1054 1.00586H5.99612ZM5.99612 3.00901H58.1054C59.7749 3.00901 61.0847 4.31887 61.0847 5.9883C61.0847 7.65777 59.7749 8.9676 58.1054 8.9676H5.99612C4.3267 8.9676 3.01682 7.65777 3.01682 5.9883C3.01682 4.31887 4.3267 3.00901 5.99612 3.00901ZM32.0508 52.2798C34.5495 52.2798 36.5539 54.2823 36.5539 56.7811C36.5539 59.2798 34.5495 61.2842 32.0508 61.2842C29.552 61.2842 27.5495 59.2798 27.5495 56.7811C27.5495 54.2823 29.552 52.2798 32.0508 52.2798Z" fill="#00003A"/>
<path d="M38.1868 19.3477C36.8531 19.3477 36.8531 21.3481 38.1868 21.3481H50.6474C51.9811 21.3481 51.9811 19.3477 50.6474 19.3477H38.1868Z" fill="#00003A"/>
<path d="M39.5081 26.9512C38.1744 26.9512 38.1744 28.9517 39.5081 28.9517H50.6473C51.981 28.9517 51.981 26.9512 50.6473 26.9512H39.5081Z" fill="#00003A"/>
<path d="M43.5606 33.7568C42.228 33.8268 42.3313 35.8272 43.6639 35.7573H50.6472C51.9809 35.7573 51.9809 33.7568 50.6472 33.7568C48.2887 33.7568 45.9112 33.7568 43.5606 33.7568Z" fill="#00003A"/>
<path d="M15.6396 35.4336C16.2655 36.0528 16.9629 36.5953 17.7171 37.0494C17.5958 36.978 17.4758 36.9043 17.3572 36.8284C17.0485 36.6256 16.7501 36.4075 16.4632 36.175C16.1765 35.9418 15.9016 35.6943 15.6396 35.4336Z" fill="#00003A"/>
<path d="M23.475 15.5186C18.5914 15.5186 14.1799 18.4598 12.311 22.9717C10.4421 27.4836 11.483 32.6856 14.9362 36.1389C18.3895 39.5921 23.5837 40.6252 28.0956 38.7563C32.6075 36.8874 35.5566 32.4837 35.5565 27.6001C35.5565 26.2643 33.5514 26.2643 33.5514 27.6001C33.5514 31.6793 31.1033 35.3466 27.3346 36.9077C24.7124 37.9938 21.8187 37.9062 19.3279 36.7825L24.0541 28.5977H31.1707C32.5065 28.5977 32.5065 26.5926 31.1707 26.5926C28.9381 26.5926 26.7054 26.5926 24.4727 26.5926V16.5162C24.4708 15.9658 24.0255 15.5205 23.475 15.5186ZM22.4774 17.8249V25.4795L16.4249 20.501C18.0492 18.9942 20.1859 18.0709 22.4774 17.8249ZM15.1299 22.0249L22.184 27.8309L17.5947 35.7809C17.1565 35.4659 16.7388 35.1167 16.3486 34.7265C13.4642 31.8421 12.6064 27.5092 14.1674 23.7405C14.425 23.1187 14.7609 22.5565 15.1299 22.0249Z" fill="#00003A"/>
</svg>
