<svg width="59" height="58" viewBox="0 0 59 58" fill="none" xmlns="http://www.w3.org/2000/svg">
<path d="M43.7529 4.0319C48.7225 6.64225 52.2473 12.0715 52.7121 17.7123C56.6905 15.876 58.2261 10.2792 55.9699 6.38955C53.1646 1.55324 47.6632 1.33477 43.7529 4.0319Z" fill="#5575FF"/>
<path d="M9.36905 10.7024L4.51908 13.491C3.47047 14.0937 3.11389 15.4184 3.71937 16.4622L8.17214 24.1403L7.3368 24.6172C2.65748 27.3062 1.06586 33.222 3.76746 37.8795C6.46905 42.537 12.4108 44.1212 17.0902 41.4322L17.9255 40.9553L21.9277 47.8551C22.5331 48.8988 23.8658 49.2538 24.9146 48.6511L29.7645 45.8643C30.8131 45.2616 31.1698 43.9369 30.5643 42.893L12.356 11.5002C11.6815 10.3374 10.477 10.0657 9.36905 10.7024Z" fill="#5575FF"/>
<path d="M47.9837 30.5081C46.9777 31.4904 45.8418 32.3569 44.5622 33.0922L39.0957 36.234L43.7026 56.1853H53.9173L47.9837 30.5081Z" fill="#5575FF"/>
<path d="M27.1804 3.30237L13.2776 11.2906C12.2155 9.23791 10.0757 9.1987 8.89938 9.8974L4.05879 12.6816C2.58853 13.5266 2.07537 15.4256 2.92425 16.889L6.9112 23.7638C1.30487 27.0828 0.297383 33.6608 2.97047 38.2691C5.48212 42.5991 10.5928 44.5061 15.2106 43.1401C16.4891 42.8634 15.9159 40.944 14.6931 41.4073C10.8675 42.5389 6.64399 40.9771 4.54962 37.3664C2.0221 33.009 3.64306 27.636 7.82705 25.3409L21.1039 48.2308C21.9528 49.6941 23.8624 50.2067 25.3327 49.3618L30.1715 46.5776C31.5314 45.7961 32.3263 43.9188 31.1531 42.1048L38.5242 37.8691L42.8153 56.3887C42.9106 56.8001 43.2786 57.0915 43.7027 57.0915H53.9173C54.5027 57.0915 54.9361 56.5496 54.8046 55.9817L49.957 35.0601C49.6208 33.8116 47.8828 34.355 48.1822 35.4672L52.772 55.279H44.4264L40.1745 36.9204L45.0577 34.1148C51.0321 30.6816 54.2497 24.356 53.976 17.951C57.904 15.3153 59.165 10.0828 56.7608 5.93796C54.093 1.43616 48.5685 0.0844255 44.0636 2.76259C38.5297 0.0294853 32.3168 0.402396 27.1804 3.30237ZM50.0263 10.7206C54.4813 18.4009 51.8599 28.116 44.1437 32.5502L30.2444 40.5365L14.1916 12.864L28.0944 4.86706C37.0757 -0.172052 46.4221 4.25181 50.0263 10.7206ZM55.1816 6.84067C56.9515 9.8919 56.2823 13.6114 53.7483 15.8483C52.9947 10.9135 49.8531 6.25192 45.9416 3.84226C50.1934 2.03821 53.6344 4.29715 55.1816 6.84067ZM11.5473 11.9313L29.7269 43.273C30.0872 43.894 29.8887 44.6473 29.2646 45.0059L24.4187 47.7883C23.7948 48.1468 23.0432 47.9489 22.6831 47.3281L4.5034 15.9864C4.14317 15.3654 4.34373 14.6121 4.96752 14.2535L9.81341 11.4693C10.6417 10.9933 11.3132 11.5276 11.5473 11.9313Z" fill="#00003A"/>
</svg>
