<svg width="59" height="58" viewBox="0 0 59 58" fill="none" xmlns="http://www.w3.org/2000/svg">
<path d="M26.7139 25.9402V33.1565C26.7139 33.864 27.287 34.4327 27.9978 34.4327H31.5473C32.258 34.4327 32.8312 33.864 32.8312 33.1565V25.9402H26.7139Z" fill="#5575FF"/>
<path d="M21.6862 39.0447C20.4703 39.0447 20.5593 40.9156 21.7736 40.8576H25.0737C26.288 40.8576 26.288 39.0447 25.0737 39.0447C23.9446 39.0447 22.8154 39.0447 21.6862 39.0447Z" fill="#00003A"/>
<path d="M21.6928 43.0452C21.5731 43.0451 21.4546 43.0684 21.344 43.1139C21.2334 43.1595 21.1329 43.2262 21.0483 43.3104C20.9636 43.3945 20.8965 43.4946 20.8507 43.6046C20.8048 43.7146 20.7812 43.8325 20.7812 43.9516C20.7812 44.0708 20.8048 44.1886 20.8507 44.2987C20.8965 44.4087 20.9636 44.5087 21.0483 44.5929C21.1329 44.6771 21.2334 44.7438 21.344 44.7893C21.4546 44.8348 21.5731 44.8582 21.6928 44.8581H28.293C28.4127 44.8582 28.5312 44.8348 28.6418 44.7893C28.7523 44.7438 28.8528 44.6771 28.9375 44.5929C29.0221 44.5087 29.0893 44.4087 29.1351 44.2987C29.1809 44.1886 29.2045 44.0708 29.2045 43.9516C29.2045 43.8325 29.1809 43.7146 29.1351 43.6046C29.0893 43.4946 29.0221 43.3945 28.9375 43.3104C28.8528 43.2262 28.7523 43.1595 28.6418 43.1139C28.5312 43.0684 28.4127 43.0451 28.293 43.0452H21.6928Z" fill="#00003A"/>
<path d="M9.42454 6.45581C6.90247 6.45581 4.87207 8.47673 4.87207 10.987V19.9362H54.6731V10.987C54.6731 8.47673 52.6427 6.45581 50.1206 6.45581H9.42454Z" fill="#5575FF"/>
<path d="M15.5952 1.16882C12.9855 1.16882 10.8112 3.07056 10.3866 5.5514H9.42449C6.41375 5.5514 3.96152 7.99221 3.96152 10.9889V19.7965C3.94642 19.8909 3.94642 19.9871 3.96152 20.0815V51.6568C3.96152 54.6535 6.41374 57.0961 9.42449 57.0961H50.1211C53.1318 57.0961 55.5858 54.6535 55.5858 51.6568V10.9889C55.5858 7.99221 53.1318 5.5514 50.1211 5.5514H48.6166C48.1921 3.07049 46.0177 1.16882 43.408 1.16882C40.7983 1.16882 38.6179 3.07056 38.1922 5.5514H20.811C20.3853 3.07049 18.205 1.16882 15.5952 1.16882ZM15.5952 2.97424C17.2144 2.97424 18.5511 4.06671 18.942 5.5514H12.2538C12.6432 4.06671 13.976 2.97424 15.5952 2.97424ZM43.408 2.97424C45.0273 2.97424 46.3601 4.06651 46.7494 5.5514H40.0594C40.4504 4.06671 41.7887 2.97424 43.408 2.97424ZM9.42449 7.36393H18.9278C18.5201 8.82162 17.1964 9.8862 15.5952 9.8862H13.1892C13.0678 9.88343 12.9472 9.90484 12.8343 9.94913C12.7214 9.99342 12.6185 10.0596 12.5317 10.1441C12.4449 10.2285 12.3759 10.3294 12.3288 10.4407C12.2818 10.5521 12.2575 10.6716 12.2575 10.7924C12.2575 10.9132 12.2818 11.0328 12.3288 11.1441C12.3759 11.2554 12.4449 11.3563 12.5317 11.4408C12.6185 11.5252 12.7214 11.5914 12.8343 11.6357C12.9472 11.68 13.0678 11.7014 13.1892 11.6986H15.5952C15.6255 11.6978 15.6558 11.6956 15.6859 11.6918C18.2379 11.6483 20.3615 9.79021 20.8021 7.36236H46.7334C46.3273 8.82002 45.0091 9.88464 43.408 9.88464H41.0019C40.8806 9.88186 40.7599 9.90327 40.647 9.94756C40.5341 9.99186 40.4312 10.0582 40.3445 10.1426C40.2577 10.227 40.1887 10.3278 40.1416 10.4392C40.0945 10.5505 40.0703 10.6701 40.0703 10.7909C40.0703 10.9117 40.0945 11.0313 40.1416 11.1426C40.1887 11.254 40.2577 11.3548 40.3445 11.4392C40.4312 11.5236 40.5341 11.5899 40.647 11.6342C40.7599 11.6785 40.8806 11.6999 41.0019 11.6972H43.408C46.0006 11.6972 48.1631 9.81925 48.6078 7.36236H50.1211C52.1545 7.36236 53.7649 8.9635 53.7649 10.9874V51.6554C53.7649 53.6792 52.1545 55.2821 50.1211 55.2821H9.42449C7.39109 55.2821 5.78251 53.6792 5.78251 51.6554V20.8411H49.4418C49.5624 20.8428 49.6821 20.8205 49.7941 20.7757C49.906 20.7309 50.0078 20.6644 50.0937 20.5801C50.1796 20.4958 50.2478 20.3953 50.2943 20.2845C50.3409 20.1737 50.3648 20.0549 50.3648 19.9349C50.3648 19.8148 50.3409 19.6959 50.2943 19.5851C50.2478 19.4743 50.1796 19.3739 50.0937 19.2896C50.0078 19.2053 49.906 19.1387 49.7941 19.0939C49.6821 19.0491 49.5624 19.027 49.4418 19.0286H5.78251V10.9874C5.78251 8.9635 7.39108 7.36236 9.42449 7.36236V7.36393ZM19.8329 25.0322C17.831 25.0322 16.1892 26.6647 16.1892 28.6573V47.3628C16.1892 49.3554 17.831 50.9878 19.8329 50.9878H39.7144C41.7164 50.9879 43.3564 49.3554 43.3564 47.3628V28.6573C43.3564 26.6647 41.7163 25.0322 39.7144 25.0322H19.8329ZM19.8329 26.8447H31.9237V33.1601C31.9237 33.3804 31.7712 33.5283 31.5484 33.5283H27.9989C27.7762 33.5283 27.6219 33.3804 27.6219 33.1601V28.9989C27.6246 28.8782 27.6031 28.7582 27.5585 28.6459C27.514 28.5336 27.4473 28.4312 27.3625 28.3449C27.2777 28.2586 27.1764 28.19 27.0646 28.1432C26.9528 28.0964 26.8327 28.0722 26.7114 28.0722C26.5901 28.0722 26.4701 28.0964 26.3583 28.1432C26.2464 28.19 26.1452 28.2586 26.0604 28.3449C25.9755 28.4312 25.9089 28.5336 25.8644 28.6459C25.8198 28.7582 25.7982 28.8782 25.8009 28.9989V33.1601C25.8009 34.3548 26.8002 35.3408 27.9989 35.3408H31.5484C32.7472 35.3408 33.7446 34.3548 33.7446 33.1601V26.8447H39.7144C40.739 26.8447 41.5354 27.6374 41.5354 28.6573V47.3628C41.5354 48.3826 40.739 49.1753 39.7144 49.1753H19.8329C18.8084 49.1753 18.0119 48.3825 18.0119 47.3628V28.6573C18.0119 27.6375 18.8084 26.8447 19.8329 26.8447Z" fill="#00003A"/>
</svg>
