<svg width="59" height="58" viewBox="0 0 59 58" fill="none" xmlns="http://www.w3.org/2000/svg">
<path d="M49.7284 19.9054C49.7284 21.8755 48.2464 35.9894 36.1838 25.1267C24.3389 30.8283 8.9201 39.4515 8.97083 18.6238C8.97083 7.93007 18.8071 1.82434 29.5508 1.82434C34.0045 1.82434 39.2699 3.3218 40.7049 8.65216C47.2271 8.65216 49.7284 13.6447 49.7284 19.9054Z" fill="#5575FF"/>
<path d="M28.2371 36.865C28.2371 37.5195 28.1076 38.1677 27.8559 38.7724C27.6043 39.3771 27.2354 39.9266 26.7704 40.3895C26.3054 40.8523 25.7533 41.2194 25.1458 41.4699C24.5382 41.7204 23.887 41.8493 23.2294 41.8493C22.5718 41.8493 21.9206 41.7204 21.313 41.4699C20.7055 41.2194 20.1534 40.8523 19.6884 40.3895C19.2234 39.9266 18.8545 39.3771 18.6029 38.7724C18.3512 38.1677 18.2217 37.5195 18.2217 36.865C18.2217 36.2104 18.3512 35.5623 18.6029 34.9575C18.8545 34.3528 19.2234 33.8033 19.6884 33.3405C20.1534 32.8776 20.7055 32.5104 21.313 32.2599C21.9206 32.0095 22.5718 31.8806 23.2294 31.8806C23.887 31.8806 24.5382 32.0095 25.1458 32.2599C25.7533 32.5104 26.3054 32.8776 26.7704 33.3405C27.2354 33.8033 27.6043 34.3528 27.8559 34.9575C28.1076 35.5623 28.2371 36.2104 28.2371 36.865Z" fill="#5575FF"/>
<path d="M41.5555 36.865C41.5555 37.5195 41.4259 38.1677 41.1743 38.7724C40.9226 39.3771 40.5537 39.9266 40.0887 40.3895C39.6237 40.8523 39.0717 41.2194 38.4641 41.4699C37.8565 41.7204 37.2054 41.8493 36.5477 41.8493C35.2196 41.8493 33.9459 41.3242 33.0068 40.3895C32.0676 39.4547 31.54 38.1869 31.54 36.865C31.54 35.543 32.0676 34.2752 33.0068 33.3405C33.9459 32.4057 35.2196 31.8806 36.5477 31.8806C37.2054 31.8806 37.8565 32.0095 38.4641 32.2599C39.0717 32.5104 39.6237 32.8776 40.0887 33.3405C40.5537 33.8033 40.9226 34.3528 41.1743 34.9575C41.4259 35.5623 41.5555 36.2104 41.5555 36.865Z" fill="#5575FF"/>
<path d="M14.6859 5.49011C6.57956 11.6284 7.121 21.8533 9.67285 27.9358C7.51643 29.7172 6.85664 32.8667 8.31779 35.3857L10.0872 38.439C10.8395 39.736 12.0178 40.6446 13.3433 41.0817C13.5694 49.9797 20.8492 57.1057 29.8442 57.1057C38.8603 57.1057 46.157 49.947 46.3505 41.0197C47.6074 40.564 48.7189 39.6848 49.4394 38.4426L51.2106 35.3893C53.0215 32.1427 51.5231 28.5317 48.6818 27.1799C53.0911 18.8815 50.1384 7.50764 40.7026 7.74511C39.461 7.71771 39.461 9.58538 40.7026 9.55764C49.5195 9.24629 50.5155 21.2857 46.7595 26.7764C44.1289 30.4732 39.0985 26.5325 36.7974 24.4559C36.5228 24.2069 36.1239 24.1486 35.7891 24.3089C29.8441 27.1706 23.0329 30.6715 18.0736 30.9182C15.5939 31.0415 13.6727 30.4482 12.2461 28.6632C10.8195 26.8781 9.86673 23.7248 9.87915 18.629C9.87915 3.52188 30.8343 -0.510607 37.6919 5.30959C38.5882 6.12616 39.8188 4.78798 38.9225 3.97141C33.2279 -1.3125 20.8039 0.873939 14.6859 5.49011ZM36.1732 26.1357C39.4107 28.7974 43.6209 32.0477 47.4904 28.6402C50.53 29.7655 50.5868 33.0976 49.6332 34.483L47.8621 37.5363C47.4883 38.1807 46.9633 38.6618 46.3683 39.0055V33.9946C46.3855 32.7691 44.5299 32.7691 44.5473 33.9946V40.6604C44.5473 48.7829 38.005 55.2932 29.8442 55.2932C21.6835 55.2932 15.1429 48.7831 15.1429 40.6604V32.4794C16.6846 32.8202 17.7989 32.7688 19.105 32.651C18.0016 33.7231 17.3125 35.2167 17.3125 36.8653C17.3125 40.1079 19.9694 42.7525 23.2271 42.7525C26.1758 42.7525 28.6318 40.5836 29.0724 37.7681H30.7049C31.1455 40.5836 33.5998 42.7525 36.5484 42.7525C39.8062 42.7525 42.4631 40.1079 42.4631 36.8653C42.4631 33.6228 39.8062 30.9713 36.5484 30.9713C33.6023 30.9713 31.1503 33.1426 30.7067 35.9556H29.0707C28.7145 33.6972 27.0642 31.8543 24.9005 31.2155C28.6761 29.8729 32.5823 27.8732 36.1732 26.1356V26.1357ZM10.6242 29.5146C11.3767 30.5898 12.3894 31.3427 13.3219 31.8209V39.0992C12.6575 38.754 12.0739 38.2354 11.6664 37.5328L9.89515 34.4795C8.92951 32.8148 9.3024 30.7703 10.6242 29.5146ZM23.2271 32.7838C25.5008 32.7838 27.3279 34.6024 27.3279 36.8654C27.3279 39.1285 25.5008 40.9454 23.2271 40.9454C20.9535 40.9454 19.1352 39.1285 19.1353 36.8654C19.1352 34.6024 20.9535 32.7838 23.2271 32.7838ZM36.5484 32.7838C38.8221 32.7838 40.6421 34.6024 40.6421 36.8654C40.6421 39.1285 38.8221 40.9454 36.5484 40.9454C34.2748 40.9454 32.4494 39.1285 32.4494 36.8654C32.4494 34.6024 34.2748 32.7838 36.5484 32.7838Z" fill="#00003A"/>
</svg>
