<svg width="59" height="58" viewBox="0 0 59 58" fill="none" xmlns="http://www.w3.org/2000/svg">
<path d="M54.9428 17.7255C52.7947 15.3078 47.7949 9.65248 40.4229 1.81128V13.1942C40.4229 15.7045 42.4533 17.7255 44.9753 17.7255H54.9428Z" fill="#5575FF"/>
<path d="M8.92688 46.8973C8.88076 47.2502 8.84863 47.6077 8.84863 47.9735C8.84863 52.5234 12.5287 56.1864 17.1 56.1864H46.691C41.7963 55.0933 39.2008 52.0686 39.2008 46.8979L8.92688 46.8973Z" fill="#5575FF"/>
<path d="M25.8269 13.933C24.6127 13.9953 24.7068 15.8084 25.921 15.7459H35.082C36.2963 15.7459 36.2963 13.933 35.082 13.933C31.9999 13.933 28.902 13.933 25.8269 13.933Z" fill="#00003A"/>
<path d="M45.009 36.8724L43.3153 39.7959L42.9456 39.1603C42.6461 38.6451 41.9372 38.5523 41.514 38.973L40.0824 40.398H35.8414C34.6271 40.398 34.6271 42.2109 35.8414 42.2109H40.4588C40.7011 42.2107 40.9333 42.1142 41.104 41.9433L41.9576 41.0937L42.5222 42.0637C42.8722 42.6706 43.7517 42.6706 44.1017 42.0637L45.4863 39.6755L46.2256 42.4317C46.5391 43.6004 48.3001 43.1321 47.9865 41.9634L46.6759 37.0932C46.4592 36.2883 45.4203 36.1634 45.009 36.8723V36.8724Z" fill="#00003A"/>
<path d="M27.547 28.9754C27.547 30.4763 27.25 31.9626 26.6729 33.3493C26.0959 34.736 25.25 35.9959 24.1837 37.0572C23.1174 38.1186 21.8516 38.9605 20.4584 39.5349C19.0652 40.1093 17.572 40.4049 16.064 40.4049C14.5561 40.4049 13.0629 40.1093 11.6697 39.5349C10.2765 38.9605 9.01063 38.1186 7.94434 37.0572C6.87804 35.9959 6.03221 34.736 5.45514 33.3493C4.87807 31.9626 4.58105 30.4763 4.58105 28.9754C4.58106 25.9441 5.79087 23.037 7.94435 20.8936C10.0978 18.7501 13.0186 17.546 16.064 17.546C19.1095 17.546 22.0302 18.7501 24.1837 20.8936C26.3372 23.037 27.547 25.9441 27.547 28.9754Z" fill="#5575FF"/>
<path d="M16.0612 22.3413C15.606 22.3585 15.1507 22.6979 15.1507 23.3114V23.6777C11.5897 24.7477 12.478 30.0003 16.0256 30.0003C18.0027 30.0003 17.7448 32.8747 16.1323 32.8747C15.366 32.8747 14.8346 32.5151 14.6403 31.7932C14.3394 30.6024 12.5428 31.0811 12.8798 32.2624C13.1844 33.394 14.0768 34.2241 15.1507 34.5261V34.6838C15.1231 35.9192 16.9992 35.9192 16.9717 34.6838V34.5049C20.5568 33.1026 19.3211 28.1877 16.0985 28.1877C14.0848 28.1877 14.3481 25.2866 15.9812 25.2866C16.8759 25.2866 17.3053 25.7315 17.4838 26.3947C17.7796 27.6005 19.6001 27.1099 19.2444 25.9203C18.9397 24.7885 18.0459 23.9584 16.9717 23.6565V23.3114C16.9717 22.6317 16.5164 22.3248 16.0612 22.3413Z" fill="#00003A"/>
<path d="M23.5645 0.911256C20.549 0.911256 18.0982 3.35058 18.0982 6.352V16.847C17.4426 16.7401 16.7747 16.6697 16.0891 16.6697C9.24444 16.6697 3.67482 22.2117 3.6748 29.0244C3.6748 30.2358 5.50044 30.2358 5.50044 29.0244C5.50045 23.1928 10.2301 18.4851 16.0891 18.4851C21.9482 18.4851 26.6778 23.1928 26.6778 29.0244C26.6778 34.8562 21.9482 39.5655 16.0891 39.5655C12.5941 39.5655 9.50351 37.8809 7.57365 35.2895C7.23066 34.8289 6.92835 34.3423 6.66351 33.8287C6.12579 32.6953 4.42727 33.5666 5.0427 34.6602C5.35334 35.2625 5.71134 35.8367 6.11314 36.3763C8.37409 39.4123 12.0061 41.3809 16.0891 41.3809C16.7747 41.3809 17.4426 41.3105 18.0982 41.2036V46.0646H12.477C11.2608 46.0646 11.2608 47.88 12.477 47.88H38.2871C38.5564 51.1352 39.9912 54.049 42.1254 55.3701H17.1293C13.0403 55.3701 9.77154 52.1166 9.77154 48.0466C9.77154 47.7331 9.80153 47.4184 9.84457 47.0893C9.84457 45.8499 8.30484 45.8528 8.03496 46.8553C7.98559 47.2331 7.94769 47.6292 7.94769 48.0484C7.94769 53.0927 12.0614 57.1872 17.1293 57.1872H50.4717C53.4872 57.1872 55.9379 54.7408 55.9379 51.7394V17.7547C55.9395 17.5242 55.8529 17.3017 55.6957 17.1324C48.321 9.28836 43.3228 3.63672 41.1689 1.21263C40.9956 1.02052 40.7481 0.910913 40.4886 0.911256H23.5645ZM23.5645 2.72661H40.0843C42.1312 5.03117 46.5813 10.0287 52.9492 16.8435H45.0464C43.0098 16.8435 41.3969 15.247 41.3969 13.2199V6.352C41.3969 5.08558 39.5731 5.14816 39.5731 6.352V13.2199C39.5731 16.2213 42.0309 18.6606 45.0464 18.6606H54.1141V51.7394C54.1141 53.7665 52.5083 55.3719 50.4717 55.3719H47.2514C43.5084 55.3719 40.1644 52.0845 40.1644 47.0893C40.2355 46.5469 39.8128 46.066 39.2632 46.0646H19.9167V40.7728C23.5454 39.5984 26.4394 36.8001 27.7447 33.2473H47.9603C49.1765 33.2473 49.1765 31.4301 47.9603 31.4301H28.2559C28.7765 29.6497 28.5084 26.3529 27.4455 24.0535H47.9603C49.1765 24.0535 49.1765 22.2381 47.9603 22.2381H26.4445C24.9076 19.9262 22.6166 18.1517 19.9167 17.2778V6.352C19.9167 4.3249 21.5279 2.72661 23.5645 2.72661Z" fill="#00003A"/>
</svg>
