<svg width="59" height="58" viewBox="0 0 59 58" fill="none" xmlns="http://www.w3.org/2000/svg">
<path d="M7.64844 46.6958C7.64844 53.2029 12.4929 56.2725 16.9583 56.2725H42.6971C35.1124 54.2422 34.7676 46.6958 34.7676 46.6958C25.7279 46.6958 16.6882 46.6958 7.64844 46.6958Z" fill="#5575FF"/>
<path d="M40.0485 20.1978C39.2102 20.1978 38.3802 20.3621 37.6057 20.6814C36.8312 21.0007 36.1275 21.4687 35.5347 22.0587C34.942 22.6487 34.4718 23.3492 34.151 24.12C33.8302 24.8909 33.665 25.7171 33.665 26.5515C33.6677 28.0739 34.2195 29.5447 35.2199 30.6963V42.6237L40.2551 38.7626L45.2903 42.6237V30.1751C46.0331 29.1113 46.4315 27.847 46.432 26.5515C46.432 25.7171 46.2669 24.8909 45.9461 24.12C45.6253 23.3492 45.1551 22.6487 44.5623 22.0587C43.9696 21.4687 43.2659 21.0007 42.4914 20.6814C41.7169 20.3621 40.8868 20.1978 40.0485 20.1978Z" fill="#5575FF"/>
<path d="M16.3903 0.905151C13.3795 0.905151 10.9255 3.34063 10.9255 6.3373V46.4424C10.9255 47.2282 11.3533 47.5257 11.8271 47.5257H34.2409C34.4732 51.0091 36.7095 54.284 38.4203 55.2801H16.9344C12.2652 55.2801 8.53369 51.5643 8.53369 46.9168C8.51993 45.5522 6.71094 45.547 6.71094 46.9168C6.71094 52.5369 11.2881 57.0926 16.9344 57.0926H47.3613C50.3721 57.0926 52.826 54.65 52.826 51.6533V6.3373C52.826 3.34059 50.372 0.905151 47.3613 0.905151H16.3903ZM16.3903 2.71757H47.3613C49.3947 2.71757 51.0051 4.31338 51.0051 6.3373V51.6533C51.0051 53.6772 49.3947 55.2801 47.3613 55.2801H43.4988C38.9608 55.2801 35.8043 50.2507 35.861 46.6495C35.8782 46.1387 35.4675 45.7149 34.954 45.7132H12.7465V6.3373C12.7465 4.31338 14.3569 2.71757 16.3903 2.71757ZM17.66 11.127C16.473 11.2137 16.5646 12.9754 17.7543 12.9394H43.8527C45.0932 12.9668 45.0932 11.1004 43.8527 11.127H17.66ZM39.9884 19.262C35.9764 19.262 32.7027 22.5134 32.7027 26.5067C32.7027 28.1856 33.2863 29.7303 34.2552 30.9619V42.5555C34.2582 43.3055 35.1229 43.7275 35.7205 43.2705L40.1965 39.8455L44.6654 43.2705C45.263 43.7275 46.1277 43.3055 46.1307 42.5555V34.9692C46.1582 33.7337 44.2822 33.7337 44.3097 34.9692V40.7164L40.7478 37.9799C40.4205 37.7295 39.9653 37.7295 39.6381 37.9799L36.0762 40.7164V32.6115C37.2083 33.3335 38.5493 33.7584 39.9884 33.7584C44.0005 33.7584 47.2671 30.5001 47.2671 26.5067C47.2671 22.5134 44.0005 19.262 39.9884 19.262ZM17.7543 19.9505C16.5127 19.9231 16.5127 21.7908 17.7543 21.763H19.1591C20.4007 21.7904 20.4007 19.9227 19.1591 19.9505H17.7543ZM22.5468 19.9505C21.3052 19.9231 21.3052 21.7908 22.5468 21.763H28.2605C29.5021 21.7904 29.5021 19.9227 28.2605 19.9505H22.5468ZM39.9884 21.0745C43.0163 21.0745 45.4532 23.493 45.4532 26.5067C45.4532 29.5205 43.0163 31.9459 39.9884 31.9459C37.0111 31.9459 34.5648 29.6057 34.5237 26.5067C34.5237 23.493 36.9606 21.0745 39.9884 21.0745ZM17.6635 28.0909C17.6624 28.0915 17.6612 28.092 17.6601 28.0926C16.4741 28.18 16.5657 29.9401 17.7544 29.9052H23.4681C24.7096 29.9326 24.7096 28.0649 23.4681 28.0926C21.5366 28.0909 19.5882 28.0959 17.6637 28.0909H17.6635ZM26.7614 28.0926C25.5759 28.1759 25.6605 29.9349 26.8484 29.9052H28.2604C29.502 29.9326 29.502 28.0649 28.2604 28.0926C27.7653 28.0926 27.2492 28.0926 26.7613 28.0926H26.7614ZM28.3601 36.263C24.8053 36.2699 21.215 36.2665 17.66 36.2665C16.5214 36.3915 16.6087 38.0666 17.7543 38.0737H28.2605C29.4733 38.1398 29.5729 36.329 28.36 36.2629L28.3601 36.263Z" fill="#00003A"/>
</svg>
