<svg width="59" height="58" viewBox="0 0 59 58" fill="none" xmlns="http://www.w3.org/2000/svg">
<path d="M29.314 1.81641V9.85254C30.1954 9.40733 31.1699 9.17531 32.1584 9.17533C33.8254 9.17533 35.4242 9.83447 36.6029 11.0077C37.7817 12.181 38.4439 13.7723 38.4439 15.4316C38.4439 17.0908 37.7817 18.6821 36.6029 19.8554C35.4242 21.0287 33.8254 21.6878 32.1584 21.6878C31.1694 21.6856 30.1948 21.4512 29.314 21.0035V29.0467H37.6068C37.0208 30.0163 36.71 31.1258 36.7074 32.2573C36.7074 33.9165 37.3696 35.5078 38.5483 36.6811C39.7271 37.8544 41.3259 38.5135 42.9929 38.5135C44.6599 38.5135 46.2587 37.8544 47.4374 36.6811C48.6162 35.5078 49.2784 33.9165 49.2784 32.2573C49.2763 31.126 48.9661 30.0164 48.3808 29.0467H56.6718V6.35479C56.6718 3.84053 54.6382 1.81641 52.1122 1.81641H29.314Z" fill="#5575FF"/>
<path d="M15.635 20.0625C13.968 20.0625 12.3692 20.7216 11.1904 21.8949C10.0117 23.0682 9.34945 24.6595 9.34944 26.3187C9.35123 27.2636 9.56802 28.1958 9.98352 29.0453H1.95605V51.7372C1.95605 54.2515 3.98966 56.2756 6.5157 56.2756H29.3139V48.0374C28.3455 48.6107 27.24 48.9144 26.1133 48.9167C24.4462 48.9167 22.8475 48.2576 21.6687 47.0843C20.4899 45.911 19.8277 44.3197 19.8277 42.6605C19.8277 41.0012 20.4899 39.4099 21.6687 38.2366C22.8475 37.0634 24.4462 36.4042 26.1133 36.4042C27.24 36.4065 28.3455 36.7102 29.3139 37.2835V29.0453H21.2829C21.6996 28.1961 21.9176 27.2639 21.9205 26.3187C21.9205 24.6595 21.2583 23.0682 20.0795 21.8949C18.9008 20.7216 17.302 20.0625 15.635 20.0625Z" fill="#5575FF"/>
<path d="M6.51564 0.908203C3.50016 0.908203 1.04407 3.35284 1.04407 6.35427V24.9616C1.02662 26.1891 2.88537 26.1891 2.86792 24.9616V6.35427C2.86792 4.32716 4.47903 2.72356 6.51564 2.72356H28.4019V9.85201C28.4013 10.5298 29.12 10.9692 29.7271 10.6622C33.4103 8.99226 37.4042 11.2181 37.5319 15.431C37.5319 19.2974 33.2193 21.9289 29.7288 20.1946C29.122 19.886 28.4019 20.3247 28.4019 21.003V28.1385H22.5495C23.8159 23.307 20.2655 19.1557 15.6349 19.1557C10.8899 19.1557 7.51421 23.6298 8.67822 28.1385H1.956C1.45237 28.1386 1.04412 28.5449 1.04407 29.0462V51.7381C1.04407 54.7395 3.50016 57.1842 6.51564 57.1842H52.112C55.1275 57.1842 57.5836 54.7395 57.5836 51.7381V6.35427C57.5836 3.35284 55.1275 0.908203 52.112 0.908203H6.51564ZM30.2258 2.72356H52.112C54.1486 2.72356 55.7598 4.32716 55.7598 6.35427V28.1385H48.3806C47.6711 28.1382 47.233 28.909 47.5987 29.5142C49.6754 33.2011 46.716 37.4935 42.9928 37.6053C39.0712 37.6053 36.3273 33.0058 38.3886 29.5142C38.7543 28.909 38.3162 28.1382 37.6067 28.1385H33.5333C32.3001 28.1212 32.3001 29.9712 33.5333 29.9539H36.1159C34.5093 34.7027 38.3127 39.4207 42.9928 39.4207C47.7997 39.4207 51.3021 34.3734 49.8429 29.9539H55.7598V51.7381C55.7598 53.7652 54.1486 55.3688 52.112 55.3688H30.2258V48.0383C30.2258 47.334 29.4551 46.898 28.8472 47.2582C25.145 49.3031 20.8327 45.7322 20.7396 42.6614C20.7396 38.3195 25.3394 36.0354 28.8472 38.0645C29.4551 38.4247 30.2258 37.9887 30.2258 37.2844V29.0462V22.1706C34.8191 23.838 39.3558 19.8334 39.3558 15.431C39.3558 10.6561 34.7396 7.35527 30.2258 8.80651L30.2258 2.72356ZM15.6349 20.9711C19.6876 20.9711 21.8747 25.1127 20.4635 28.6473C20.1672 29.2504 20.6083 29.9539 21.2828 29.9539H28.4019V35.9194C23.6397 34.3456 18.9157 37.8142 18.9157 42.6614C18.9157 47.3505 23.574 50.7248 28.4019 49.4033V55.3688H6.51564C4.47903 55.3688 2.86792 53.7652 2.86792 51.7381V29.9539H9.98346C10.6567 29.9532 11.0972 29.2517 10.8028 28.6491C9.11508 25.0669 12.2665 20.9711 15.6349 20.9711Z" fill="#00003A"/>
</svg>
