<svg width="59" height="58" viewBox="0 0 59 58" fill="none" xmlns="http://www.w3.org/2000/svg">
<path d="M11.6267 14.0458C9.10462 14.0458 7.07422 16.0667 7.07422 18.577V53.7508C7.07422 55.3265 8.22258 56.1864 9.26509 56.1864H14.175C15.5617 56.1864 17.1946 55.1152 17.1946 53.2694V14.0458H11.6267Z" fill="#5575FF"/>
<path d="M37.3799 14.3528H43.6396C45.1528 14.3528 46.371 15.5653 46.371 17.0715V23.302C46.371 24.8082 45.1528 26.0207 43.6396 26.0207H37.3799C35.8667 26.0207 34.6484 24.8082 34.6484 23.302V17.0715C34.6484 15.5653 35.8667 14.3528 37.3799 14.3528Z" fill="#5575FF"/>
<path d="M21.135 0.908691C19.3508 0.908691 17.9365 1.55999 17.0556 2.61314C16.1747 3.66628 15.8321 5.03326 15.8321 6.40105V53.2694C15.6657 54.615 14.8742 55.2837 13.7212 55.2837H9.26481C8.72526 55.2837 7.98087 54.8882 7.98087 53.7508V18.5752C7.98087 16.5513 9.59122 14.9502 11.6246 14.9502H13.0971C14.3386 14.9776 14.3386 13.11 13.0971 13.1377H11.6246C8.61388 13.1377 6.16699 15.5785 6.16699 18.5752V53.7508C6.16699 55.7648 7.71932 57.0961 9.26481 57.0961H13.7212H47.9128C50.9235 57.0961 53.3758 54.6535 53.3758 51.6569V6.34084C53.3758 3.34417 50.9235 0.908691 47.9128 0.908691H21.135ZM21.135 2.72111H47.9128C49.9462 2.72111 51.5548 4.31692 51.5548 6.34084V51.6569C51.5548 53.6807 49.9462 55.2837 47.9128 55.2837H16.981C17.4125 54.6883 17.646 54.1137 17.646 53.2694V6.40105C17.646 5.34256 17.9299 4.41214 18.4604 3.7779C18.991 3.14366 19.7694 2.72111 21.135 2.72111ZM24.1528 7.14979C22.9123 7.12239 22.9123 8.98889 24.1528 8.96221H45.3787C46.5668 8.93823 46.5668 7.1753 45.3787 7.14979H24.1528ZM37.3799 13.444C35.378 13.444 33.7361 15.0781 33.7361 17.0707V23.3047C33.7361 25.2973 35.378 26.9244 37.3799 26.9244H43.6377C45.6397 26.9244 47.2797 25.2973 47.2797 23.3047C47.3073 22.0692 45.4312 22.0692 45.4587 23.3047C45.4587 24.3245 44.6623 25.1119 43.6377 25.1119H37.3799C36.3553 25.1119 35.5589 24.3245 35.5589 23.3047V17.0707C35.5589 16.0509 36.3553 15.2582 37.3799 15.2582H43.6377C44.6623 15.2582 45.4587 16.0509 45.4587 17.0707V19.5664C45.4312 20.8019 47.3073 20.8019 47.2797 19.5664V17.0707C47.2797 15.0781 45.6396 13.444 43.6377 13.444H37.3799ZM22.1824 16.2211C20.9409 16.1937 20.9409 18.0614 22.1824 18.0336H30.0408C31.2823 18.061 31.2823 16.1933 30.0408 16.2211H22.1824ZM22.0953 21.887C20.9099 21.9702 20.9944 23.7291 22.1824 23.6994H30.0408C31.2823 23.7268 31.2823 21.8592 30.0408 21.887C27.395 21.887 24.7345 21.887 22.0953 21.887ZM22.1824 32.4239C20.9409 32.3965 20.9409 34.2641 22.1824 34.2363H37.2661C38.5076 34.2637 38.5076 32.3961 37.2661 32.4239H22.1824ZM41.2513 32.4239C40.0097 32.3965 40.0097 34.2641 41.2513 34.2363H46.6022C47.8437 34.2637 47.8437 32.3961 46.6022 32.4239H41.2513ZM22.0953 38.0897C20.9099 38.1729 20.9944 39.9319 22.1824 39.9022H37.2661C38.5076 39.9296 38.5076 38.0619 37.2661 38.0897C31.9838 38.0897 26.6204 38.0897 22.0953 38.0897ZM41.157 38.0897C39.9711 38.177 40.0626 39.9371 41.2513 39.9022H46.6022C47.8437 39.9296 47.8437 38.0619 46.6022 38.0897C44.7907 38.0897 42.9612 38.0897 41.157 38.0897H41.157ZM22.1824 48.124C20.9673 48.124 20.9673 49.9382 22.1824 49.9382H27.5334C28.7486 49.9382 28.7486 48.124 27.5334 48.124H22.1824ZM31.5186 48.124C30.3034 48.124 30.3034 49.9382 31.5186 49.9382H46.6022C47.8174 49.9382 47.8174 48.124 46.6022 48.124H31.5186Z" fill="#00003A"/>
</svg>
