<svg width="58" height="58" viewBox="0 0 58 58" fill="none" xmlns="http://www.w3.org/2000/svg">
<path d="M44.2582 38.8068L38.8086 44.2564L45.3875 51.9734L51.9752 45.3857L44.2582 38.8068Z" fill="#5575FF"/>
<path d="M12.2539 20.0493L26.0381 33.8335L33.8359 26.0358L20.0517 12.2516L12.2539 20.0493Z" fill="#5575FF"/>
<path d="M23.2076 7.86771C18.722 12.3596 14.2217 16.8368 9.74135 21.3339C8.81464 22.1914 10.1773 23.5448 11.0284 22.6121L12.2747 21.3659L24.7978 33.889L21.7698 36.9169L8.70957 23.8531C4.33293 19.4765 -1.93126 26.1289 2.25124 30.3114L15.8522 43.9142C19.5059 47.5679 25.7068 43.3383 22.9558 38.2979C24.6801 36.571 26.4054 34.8484 28.1289 33.1249C34.5041 40.6297 40.8938 48.0953 47.2575 55.5651C49.1672 57.8048 52.6188 57.6408 54.6412 55.6183L55.6198 54.6397C57.6422 52.6172 57.8064 49.1656 55.5666 47.2559C48.8222 41.4906 42.0771 35.7539 35.3176 29.9906C34.2845 29.0457 33.0621 30.4206 34.1387 31.3698L42.9212 38.8599L38.8615 42.9196L29.4142 31.8396L38.2977 22.9561C43.4695 25.5542 47.5062 19.4376 43.914 15.8453L30.313 2.24968C26.2224 -1.57274 20.0947 3.11142 23.2076 7.86771ZM29.033 3.52965L42.6269 17.1324C45.0217 20.1166 41.0673 22.982 38.8668 21.1283C34.1192 16.3873 29.0714 11.3574 25.0477 7.31105C22.4776 4.74093 26.2461 0.742681 29.033 3.52965ZM24.3883 9.24518C28.5664 13.4158 32.7406 17.5904 36.9149 21.7647L33.8905 24.7909L21.3674 12.2678L24.3883 9.24518ZM20.0874 13.5549C24.2588 17.7293 28.4312 21.9027 32.6035 26.0762C30.3835 28.2421 28.2288 30.4527 26.0778 32.6037L13.5617 20.0806L20.0874 13.5549ZM7.42429 25.1384C12.1244 29.8385 16.5495 34.308 21.2167 38.9752C23.3599 41.1183 19.9722 45.3038 17.1322 42.6271L3.5312 29.0244C0.955078 26.4483 5.04211 22.7562 7.42429 25.1384ZM44.3075 40.0406L50.6365 45.4406L45.4404 50.6367L40.0422 44.306L44.3075 40.0406ZM52.0228 46.6213L54.3859 48.6369C55.7547 49.804 55.6705 52.0308 54.3398 53.3615L53.3613 54.333C52.0306 55.6637 49.8055 55.755 48.6385 54.3862L46.6228 52.0212L52.0228 46.6213Z" fill="#00003A"/>
</svg>
