<svg width="58" height="58" viewBox="0 0 58 58" fill="none" xmlns="http://www.w3.org/2000/svg">
<path d="M20.5039 1.80798H37.4949C39.0011 1.80798 40.2137 3.02047 40.2137 4.52667V9.13795C40.2137 10.6442 39.0011 11.8567 37.4949 11.8567H20.5039C18.9977 11.8567 17.7852 10.6442 17.7852 9.13795V4.52667C17.7852 3.02047 18.9977 1.80798 20.5039 1.80798Z" fill="#5575FF"/>
<path d="M20.2148 42.9905C21.5523 45.3071 24.5145 46.1008 26.8311 44.7633C29.1476 43.4258 29.9413 40.4636 28.6039 38.1471C27.2664 35.8305 21.7536 33.1091 20.5153 33.8241C19.0964 34.6433 18.8773 40.6739 20.2148 42.9905H20.2148Z" fill="#5575FF"/>
<path d="M38.2946 42.9905C36.9571 45.3071 33.995 46.1008 31.6784 44.7633C29.3618 43.4258 28.5681 40.4636 29.9056 38.1471C31.243 35.8305 36.7558 33.1091 37.9942 33.8241C39.413 34.6433 39.6321 40.6739 38.2946 42.9905H38.2946Z" fill="#5575FF"/>
<path d="M20.5038 0.905151C18.5113 0.905151 16.8789 2.53052 16.8789 4.5231V9.1393C16.8789 11.1319 18.5113 12.766 20.5038 12.766H37.496C39.4886 12.766 41.1228 11.1319 41.1228 9.1393V4.5231C41.1228 2.53052 39.4886 0.905151 37.496 0.905151H20.5038ZM20.5038 2.71768H37.496C38.5158 2.71768 39.3103 3.50328 39.3103 4.5231V9.1393C39.3103 10.1591 38.5158 10.9518 37.496 10.9518H20.5038C19.484 10.9518 18.6913 10.1591 18.6913 9.1393V4.5231C18.6913 3.50328 19.484 2.71768 20.5038 2.71768ZM21.3676 14.752V21.2887C14.6603 24.3224 10.1811 30.8594 10.1758 38.2667C10.1757 48.6524 18.6143 57.0928 28.9999 57.0927C39.3855 57.0928 47.826 48.6524 47.8259 38.2667C47.8224 30.8618 43.3373 24.3246 36.634 21.2887V14.752C36.634 13.5425 34.8198 13.5425 34.8198 14.752V21.6693C34.8216 22.0384 35.0469 22.3695 35.3897 22.5064C41.8105 25.1076 46.0091 31.3391 46.0134 38.2667C46.0134 38.9248 45.9671 39.5718 45.8949 40.2102C43.6494 41.2687 41.5835 41.8501 39.6467 42.0811C40.0292 40.7923 40.1372 39.2723 40.0874 37.8172C40.0874 32.2588 37.4186 32.0674 33.572 34.0435C31.8616 34.9293 29.4777 36.8554 29.2567 37.495C28.3249 36.2343 26.7322 35.0295 24.9414 34.0435C21.5995 32.3202 18.6737 31.8848 18.5127 36.4277C17.4838 36.2105 16.437 36.0719 15.3603 36.0595C15.0421 36.0561 14.7181 36.062 14.3903 36.0869C13.1418 36.1331 13.2751 38.0234 14.5177 37.8941C14.7914 37.877 15.0627 37.8701 15.339 37.8735C16.3727 37.8838 17.4003 38.0445 18.4295 38.2895C18.4089 40.1592 18.6511 42.086 19.4348 43.4438C20.7388 45.7023 23.3539 46.7557 25.7768 46.1608C26.0796 46.0864 26.3818 45.9837 26.6742 45.858C27.8195 45.3955 27.0833 43.6806 25.9592 44.1924C25.7584 44.2787 25.5562 44.3417 25.3503 44.3924C23.6969 44.7984 21.9017 44.0989 21.0013 42.5392C20.5135 41.6945 20.1773 39.6651 20.2385 37.877C20.2385 34.0055 20.8483 33.9793 24.1113 35.6556C27.3746 37.2762 28.1775 38.8293 28.1734 42.0188V55.2392C19.1553 54.8059 11.9883 47.395 11.9884 38.2682C11.9918 31.3412 16.1919 25.1141 22.6121 22.5132C22.9559 22.3748 23.1809 22.0413 23.1802 21.6707V14.7532C23.1802 13.4018 21.3676 13.4581 21.3676 14.752ZM38.2748 37.8773C38.3358 39.6655 37.9998 41.6947 37.512 42.5396C36.4194 44.4319 34.0253 45.0712 32.1329 43.9786C30.2404 42.886 29.6012 40.4919 30.6938 38.5995C31.1698 37.775 32.7999 36.4867 34.4073 35.6542C37.947 33.8071 38.2748 34.2123 38.2748 37.8773ZM45.4983 42.3625C43.7423 49.4732 37.5347 54.7984 29.9858 55.2306V44.5751C32.6758 47.0268 36.5206 46.687 38.7103 43.9521C40.8355 43.8322 43.0913 43.3498 45.4983 42.3625Z" fill="#00003A"/>
</svg>
