<svg width="59" height="58" viewBox="0 0 59 58" fill="none" xmlns="http://www.w3.org/2000/svg">
<path d="M9.5362 7.37305C7.01016 7.37305 4.97656 9.39719 4.97656 11.9114V18.6055H53.6507V11.9114C53.6507 9.39719 51.6171 7.37305 49.0911 7.37305H46.8255V8.03962C46.8255 10.271 45.0207 12.0674 42.7788 12.0674C40.537 12.0674 38.7322 10.271 38.7322 8.03962V7.37305H19.4605V8.03962C19.4605 10.271 17.6557 12.0674 15.4139 12.0674C13.172 12.0674 11.3672 10.271 11.3672 8.03962V7.37305H9.5362Z" fill="#5575FF"/>
<path d="M39.2136 30.873C37.0286 32.5122 35.7956 35.1245 35.7914 37.8492C35.7914 42.6499 39.7014 46.5418 44.5247 46.5418C47.8325 46.5397 50.9035 44.6685 52.3812 41.7255C49.2172 36.7276 44.4404 32.883 39.2136 30.873ZM14.377 33.403C10.2972 35.9794 6.89705 39.9438 4.96973 43.8337V48.3207C8.54799 50.786 13.3992 50.3118 16.3722 47.2374C20.1589 49.706 24.4641 46.8089 24.444 43.0159C24.444 39.1809 21.2285 37.6496 18.3177 37.9873C17.5881 36.0611 16.1751 34.4194 14.377 33.403Z" fill="#5575FF"/>
<path d="M15.3904 0.90625C12.6634 0.90625 10.436 3.11435 10.436 5.82861V6.45171H9.52199C6.51126 6.45171 4.05725 8.89429 4.05725 11.891V18.5728C4.05532 19.076 4.46568 19.4845 4.9713 19.4826H52.6567V40.514C47.4622 32.8242 38.731 28.1005 29.2772 28.0902C19.5606 28.0902 11.1231 32.8756 5.88001 40.498V22.0863C5.89756 20.8607 4.04161 20.8607 4.05903 22.0863C4.05421 31.9357 4.05903 41.837 4.05903 51.6526C4.05903 54.6493 6.51125 57.0902 9.52199 57.0902H35.5475H35.5494H49.5269C52.2539 57.0902 54.4777 54.8767 54.4777 52.1624C54.4755 38.738 54.4795 25.3112 54.4795 11.891C54.4795 8.89429 52.0273 6.45171 49.0166 6.45171H47.665V5.82861C47.665 3.11435 45.4394 0.90625 42.7124 0.90625C39.9854 0.90625 37.7581 3.11435 37.7581 5.82861V6.45171H20.343V5.82861C20.343 3.11435 18.1174 0.90625 15.3904 0.90625ZM15.3904 2.71878C17.1401 2.71878 18.522 4.0871 18.522 5.82861V8.02351C18.522 9.76498 17.1401 11.1404 15.3904 11.1404C13.6407 11.1404 12.257 9.76498 12.257 8.02351V5.82861C12.257 4.0871 13.6407 2.71878 15.3904 2.71878ZM42.7124 2.71878C44.462 2.71878 45.844 4.0871 45.844 5.82861V8.02351C45.844 9.76498 44.462 11.1404 42.7124 11.1404C40.9627 11.1404 39.579 9.76498 39.579 8.02351V5.82861C39.579 4.08714 40.9627 2.71878 42.7124 2.71878ZM9.52199 8.26423H10.4485C10.5763 10.8668 12.745 12.953 15.3904 12.953C18.0358 12.953 20.2028 10.8668 20.3306 8.26423H37.7704C37.8982 10.8668 40.067 12.953 42.7124 12.953C45.3577 12.953 47.5247 10.8668 47.6525 8.26423H49.0165C51.0499 8.26423 52.6584 9.86708 52.6584 11.891V17.67H5.88001V11.891C5.88001 9.86708 7.48858 8.26423 9.52199 8.26423ZM29.2737 29.9027C38.2135 29.913 46.4542 34.4232 51.2945 41.7529C49.8991 44.132 47.3199 45.6346 44.5245 45.6364C38.519 45.6364 34.8273 39.3722 37.6726 34.1242C38.1576 33.0817 36.8082 32.1314 36.0793 33.2481C32.1202 41.0076 38.556 47.4489 44.5245 47.4489C47.6393 47.4469 50.544 45.9447 52.3455 43.4858C52.4488 43.6721 52.5575 43.854 52.6567 44.0434V52.1624C52.6567 53.9039 51.2765 55.2777 49.5268 55.2777H35.5493H35.5475H9.52195C7.48867 55.2777 5.88001 53.6766 5.88001 51.6526V49.8809C9.38536 51.5011 13.5572 50.8585 16.4592 48.2755C18.4684 49.3212 20.6335 49.2138 22.2903 48.2618C25.8746 45.8101 26.3461 40.6447 22.9962 38.1993C21.7822 37.3468 20.2976 37.0678 18.8403 37.1195C18.1895 35.6997 17.2447 34.4335 16.0395 33.4609C19.9897 31.1807 24.5322 29.9041 29.2737 29.9031V29.9027ZM14.3892 34.4924C15.7835 35.41 16.8758 36.7512 17.4657 38.3085C17.6131 38.6975 18.0075 38.9368 18.4224 38.8891C19.6823 38.7428 21.0007 39.0141 21.947 39.6785C24.2329 41.256 24.0921 45.062 21.3798 46.6931C20.1029 47.4274 18.4962 47.5415 16.8717 46.4824C16.5054 46.243 16.0197 46.2974 15.7158 46.6115C13.1599 49.2545 9.05079 49.7492 5.88001 47.8241V44.022C7.92466 40.1243 10.8714 36.8843 14.3892 34.4923V34.4924Z" fill="#00003A"/>
</svg>
