<svg width="49" height="58" viewBox="0 0 49 58" fill="none" xmlns="http://www.w3.org/2000/svg">
<path d="M21.4236 40.0977C16.9285 40.5939 12.678 42.3905 9.19751 45.2652C5.71706 48.1399 3.15928 51.9668 1.84033 56.2728H46.0884C44.8393 52.1914 42.4757 48.5357 39.2612 45.7131C36.0468 42.8905 32.1079 41.0121 27.8837 40.2873L29.6452 46.0348H23.2421L21.4236 40.0977Z" fill="#5575FF"/>
<path d="M11.0701 6.31641L16.0358 22.5234H29.9997L31.1948 26.8615C31.5791 28.3382 32.8674 29.0456 34.383 29.0456H46.0137C47.5293 29.0456 48.3394 27.7993 47.9551 26.3225L44.8399 15.0227C44.4556 13.5459 43.1673 12.8386 41.6517 12.8386H36.3957L35.2005 8.5005C34.8162 7.02377 33.528 6.31641 32.0124 6.31641H11.0701Z" fill="#5575FF"/>
<path d="M10.0049 5.95141C13.4173 17.0905 16.8321 28.2266 20.2445 39.3653C11.254 40.7712 3.67959 47.1412 0.967539 56.0102C0.789399 56.5933 1.22788 57.1821 1.84028 57.182H46.0884C46.7008 57.1821 47.1393 56.5933 46.9611 56.0102C44.729 48.7105 39.2107 43.0808 32.3133 40.5336C31.1585 40.08 30.5065 41.8299 31.6792 42.2355C37.6598 44.4441 42.4189 49.2156 44.7009 55.3666H3.1779C6.00667 47.7125 12.7825 42.2779 20.7806 41.115L22.0113 45.1304H20.9623C20.9308 45.1288 20.8993 45.1288 20.8679 45.1304C19.6508 45.1931 19.7452 47.0102 20.9623 46.9476H31.665C32.8821 46.9476 32.8821 45.1304 31.665 45.1304H30.322L23.6696 23.4295H29.3032L30.3113 27.0868C30.8019 28.9721 32.5822 29.9517 34.3829 29.9517H46.0136C48.6369 29.9517 49.181 27.7057 48.8349 26.0799L45.7233 14.7924C45.2327 12.9071 43.4523 11.9275 41.6516 11.9275L39.9596 11.9294C38.7264 11.912 38.7264 13.7621 39.9596 13.7447H41.6516C42.8822 13.7447 43.6784 14.1799 43.9564 15.2481C43.9576 15.2528 43.9588 15.2575 43.96 15.2622L47.0716 26.5497C47.3282 27.5994 46.7905 28.1381 46.0136 28.1381H34.3829C33.1524 28.1381 32.3562 27.703 32.0782 26.6348C31.7846 25.5675 31.4893 24.4977 31.1948 23.4296H36.3742C38.4942 23.4296 39.6243 21.445 39.1955 19.5577L36.0839 8.27025C35.5933 6.38496 33.813 5.40539 32.0123 5.40539L18.1481 5.40716L17.6494 3.7815C16.0047 -1.38172 8.61406 0.857628 10.0049 5.95141ZM15.9039 4.3098L16.2406 5.40716H11.7468C11.2368 2.05873 15.1908 1.73021 15.9039 4.3098ZM12.3007 7.22252H32.0123C33.2428 7.22252 34.0391 7.65767 34.317 8.72586C35.3545 12.492 36.3938 16.2606 37.4322 20.0275C37.6183 21.1274 37.1262 21.6159 36.3742 21.6159H16.7108C15.2421 16.8177 13.77 12.0205 12.3007 7.22252ZM17.2683 23.4295H21.762L28.4127 45.1287H23.9171L17.2683 23.4295Z" fill="#00003A"/>
</svg>
