<svg width="58" height="58" viewBox="0 0 58 58" fill="none" xmlns="http://www.w3.org/2000/svg">
<path d="M8.13269 40.2337L5.44071 51.7374C4.89199 54.1911 6.14055 56.2758 8.65481 56.2758H10.0429C14.6886 56.2758 15.3661 52.4208 17.1728 49.3436C13.4012 47.1719 10.2703 44.0246 8.13269 40.2337ZM50.0428 39.8455C47.9051 43.6364 44.9877 47.0432 41.2162 49.2149C43.5477 53.8399 44.2825 56.2017 47.4807 56.2758H49.4719C51.9862 56.2758 53.2347 54.1911 52.686 51.7374L50.0428 39.8455Z" fill="#5575FF"/>
<path d="M13.6648 1.81531C7.12029 1.81484 1.81484 7.12029 1.81531 13.6647C1.81992 16.9716 3.41546 20.4133 5.84844 22.6529C8.03192 14.5173 14.2754 8.12489 22.348 5.71903C20.1212 3.42923 16.8587 1.81984 13.6648 1.81531ZM44.4318 1.81531C41.2352 1.81511 37.806 3.39322 35.5755 5.68305C43.6545 8.0813 49.928 14.5143 52.1176 22.6524C54.5423 20.4139 56.2741 16.9648 56.2795 13.6647C56.28 7.12098 50.9756 1.81582 44.4318 1.81531Z" fill="#5575FF"/>
<path d="M28.0907 16.1873V29.7409L22.5315 35.1932C21.6663 36.0406 22.9373 37.3384 23.8025 36.491L29.6361 30.7645C29.8072 30.5946 29.9035 30.3634 29.9037 30.1223V16.1873C29.9037 14.8892 28.0907 15.0346 28.0907 16.1873Z" fill="#00003A"/>
<path d="M47.0365 29.2124C46.7961 29.2124 46.5655 29.3079 46.3955 29.4779C46.2255 29.6479 46.13 29.8785 46.13 30.1189C46.13 30.3593 46.2255 30.5898 46.3955 30.7598C46.5655 30.9298 46.7961 31.0253 47.0365 31.0253H49.9198C50.1602 31.0253 50.3908 30.9298 50.5608 30.7598C50.7308 30.5898 50.8263 30.3593 50.8263 30.1189C50.8263 29.8785 50.7308 29.6479 50.5608 29.4779C50.3908 29.3079 50.1602 29.2124 49.9198 29.2124H47.0365Z" fill="#00003A"/>
<path d="M28.0906 8.23983V11.1231C28.0906 12.3318 29.9035 12.3318 29.9035 11.1231V8.23983C29.9035 6.90678 28.0906 7.03656 28.0906 8.23983Z" fill="#00003A"/>
<path d="M43.1962 13.6788L41.1625 15.7192C40.2504 16.5704 41.5843 17.9112 42.4402 17.0036L44.4806 14.9632C45.4687 13.9752 44.1031 12.7719 43.1962 13.6788Z" fill="#00003A"/>
<path d="M15.8816 40.9934L13.8412 43.0338C12.9849 43.8901 14.2694 45.1745 15.1257 44.3182L17.1661 42.2778C18.1059 41.338 16.739 40.136 15.8816 40.9934Z" fill="#00003A"/>
<path d="M41.1628 42.2778L43.1965 44.3182C44.0528 45.1745 45.3373 43.89 44.481 43.0337L42.4405 40.9933C41.4711 40.0239 40.3509 41.4659 41.1628 42.2778Z" fill="#00003A"/>
<path d="M13.8412 14.9631L15.8816 17.0035C16.7379 17.8598 18.0223 16.5753 17.166 15.719L15.1256 13.6786C14.2116 12.7647 12.9553 14.0773 13.8412 14.9631Z" fill="#00003A"/>
<path d="M8.40904 29.2124C8.16863 29.2124 7.93806 29.3079 7.76806 29.4779C7.59807 29.6479 7.50256 29.8785 7.50256 30.1189C7.50256 30.3593 7.59807 30.5898 7.76806 30.7598C7.93806 30.9298 8.16863 31.0253 8.40904 31.0253H11.2924C11.5328 31.0253 11.7633 30.9298 11.9333 30.7598C12.1033 30.5898 12.1988 30.3593 12.1988 30.1189C12.1988 29.8785 12.1033 29.6479 11.9333 29.4779C11.7633 29.3079 11.5328 29.2124 11.2924 29.2124H8.40904Z" fill="#00003A"/>
<path d="M28.0906 46.8736V49.757C28.0906 50.9656 29.9035 50.9656 29.9035 49.757V46.8736C29.9035 45.4842 28.0906 45.6796 28.0906 46.8736Z" fill="#00003A"/>
<path d="M4.61111 22.5927C3.05837 29.0864 3.9073 35.4188 6.96008 40.7178L4.55438 51.5408C3.80398 55.0206 5.9288 57.1836 8.45431 57.1836H10.1848C12.3083 57.1836 13.7406 56.4516 14.6417 55.4197C15.7488 53.8597 16.3613 52.5214 17.3044 50.9043C23.9652 54.4851 32.8451 55.0525 40.8171 50.8884C41.8112 52.3787 42.5161 54.2802 43.4852 55.4179C44.3862 56.4499 45.8186 57.1872 47.9421 57.1872H49.4755C52.7897 57.1872 54.1421 54.2637 53.5689 51.539L51.9947 44.4691C51.6361 43.131 49.9396 43.8176 50.2201 44.8644L51.8014 51.9343C52.1563 53.826 51.4625 55.3718 49.4755 55.3718H47.9421C46.1874 55.3718 45.4575 54.9183 44.852 54.2248C43.8228 52.6874 43.2905 51.5394 42.3896 49.9772C49.4866 45.5232 54.2125 37.6318 54.2125 28.6432C54.2125 26.567 53.9553 24.5515 53.4803 22.621C64.5196 9.61264 48.2519 -5.84031 35.692 4.37171C33.5737 3.79213 31.3468 3.47644 29.0457 3.47644C17.9846 3.47644 8.58369 10.6302 5.21032 20.5574C-2.48673 10.6575 8.78239 -1.48645 18.9159 4.07565C19.9814 4.67813 20.8704 3.06384 19.7917 2.48544C6.45116 -3.64584 -5.21848 11.2153 4.61111 22.5927ZM52.8846 20.584C50.4475 13.3817 44.8424 7.63554 37.7254 5.01701C48.4657 -2.30204 60.7688 10.7136 52.8846 20.584ZM29.0457 5.2918C41.9546 5.2918 52.3971 15.7343 52.3971 28.6432C52.3971 41.5521 41.9546 51.9999 29.0457 51.9999C16.1368 51.9999 5.68898 41.5521 5.68898 28.6432C5.68898 15.7343 16.1368 5.2918 29.0457 5.2918ZM8.32869 42.9267C10.2857 45.758 12.8052 48.1682 15.7284 49.9967C14.807 51.3369 14.2304 53.0938 13.273 54.2248C12.6676 54.9183 11.9395 55.3683 10.1848 55.3683H8.45431C6.44984 55.1912 5.99017 53.5368 6.32719 51.9361C7.02372 48.7979 7.73266 45.6125 8.32869 42.9267Z" fill="#00003A"/>
</svg>
